CourierBadi-Bold.ufo
<glyph name="exclam" format="2">
  <advance width="1228"/>
  <unicode hex="0021"/>
  <outline>
    <contour>
      <point x="549.0" y="1303.0" type="line" smooth="yes"/>
      <point x="508.0290864552033" y="1301.1813463980704"/>
      <point x="471.79408813202696" y="1261.305300610954"/>
      <point x="474.08002874369623" y="1216.6685734042164" type="curve" smooth="yes"/>
      <point x="522.0777650102674" y="509.70174559690156" type="line" smooth="yes"/>
      <point x="527.5894755060028" y="465.7947377530014"/>
      <point x="570.1236254767942" y="431.46606039414576"/>
      <point x="614.0" y="430.0" type="curve" smooth="yes"/>
      <point x="659.0404132088748" y="431.51631020658135"/>
      <point x="699.9082039784057" y="466.8337398432307"/>
      <point x="704.9191044870952" y="509.65599684438774" type="curve" smooth="yes"/>
      <point x="753.916813727168" y="1216.6230804396055" type="line" smooth="yes"/>
      <point x="756.2059118679731" y="1261.305300610954"/>
      <point x="719.9709135447968" y="1301.1813463980704"/>
      <point x="679.0" y="1303.0" type="curve" smooth="yes"/>
    </contour>
    <contour>
      <point x="455.0" y="207.0" type="curve" smooth="yes"/>
      <point x="455.0" y="53.0" type="line" smooth="yes"/>
      <point x="459.68228074320274" y="-9.218343055579357"/>
      <point x="521.1539856802591" y="-43.652877220423015"/>
      <point x="614.0" y="-44.0" type="curve" smooth="yes"/>
      <point x="706.8460143197409" y="-43.652877220423015"/>
      <point x="768.3177192567973" y="-9.218343055579357"/>
      <point x="773.0" y="53.0" type="curve" smooth="yes"/>
      <point x="773.0" y="207.0" type="line" smooth="yes"/>
      <point x="768.3177192567973" y="269.21834305557934"/>
      <point x="706.8460143197409" y="303.652877220423"/>
      <point x="614.0" y="304.0" type="curve" smooth="yes"/>
      <point x="521.1539856802591" y="303.652877220423"/>
      <point x="459.68228074320274" y="269.21834305557934"/>
    </contour>
  </outline>
</glyph>
<glyph name="numbersign" format="2">
  <advance width="1228"/>
  <unicode hex="0023"/>
  <outline>
    <contour>
      <point x="919.065555360192" y="1242.2853342710787"/>
      <point x="876.8420375045379" y="1221.8708749958746"/>
      <point x="863.093757008914" y="1184.554482580005" type="curve" smooth="yes"/>
      <point x="569.0941714107978" y="53.55607648738847" type="line" smooth="yes"/>
      <point x="560.1428743750351" y="-11.277177527968814"/>
      <point x="622.9729006208493" y="-54.487801988448446"/>
      <point x="672.0" y="-56.0" type="curve" smooth="yes"/>
      <point x="702.934444639808" y="-55.285334271078575"/>
      <point x="745.1579624954621" y="-34.87087499587463"/>
      <point x="758.906242991086" y="2.4455174199949976" type="curve" smooth="yes"/>
      <point x="1052.9058285892022" y="1133.4439235126115" type="line" smooth="yes"/>
      <point x="1061.8571256249647" y="1198.277177527969"/>
      <point x="999.0270993791507" y="1241.4878019884484"/>
      <point x="950.0" y="1243.0" type="curve" smooth="yes"/>
    </contour>
    <contour>
      <point x="123.0" y="510.0" type="line" smooth="yes"/>
      <point x="67.71230949748747" y="508.40622508291443"/>
      <point x="27.015154995058715" y="464.2462112512353"/>
      <point x="26.0" y="404.0" type="curve" smooth="yes"/>
      <point x="27.015154995058715" y="343.7537887487647"/>
      <point x="67.71230949748747" y="299.59377491708557"/>
      <point x="123.0" y="298.0" type="curve" smooth="yes"/>
      <point x="1035.0" y="298.0" type="line" smooth="yes"/>
      <point x="1090.2876905025125" y="299.59377491708557"/>
      <point x="1130.9848450049412" y="343.7537887487647"/>
      <point x="1132.0" y="404.0" type="curve" smooth="yes"/>
      <point x="1130.9848450049412" y="464.2462112512353"/>
      <point x="1090.2876905025125" y="508.40622508291443"/>
      <point x="1035.0" y="510.0" type="curve" smooth="yes"/>
    </contour>
    <contour>
      <point x="525.065555360192" y="1242.2853342710787"/>
      <point x="482.8420375045379" y="1221.8708749958746"/>
      <point x="469.0937570089141" y="1184.554482580005" type="curve" smooth="yes"/>
      <point x="175.09417141079777" y="53.55607648738847" type="line" smooth="yes"/>
      <point x="166.14287437503515" y="-11.277177527968814"/>
      <point x="228.97290062084926" y="-54.487801988448446"/>
      <point x="278.0" y="-56.0" type="curve" smooth="yes"/>
      <point x="308.934444639808" y="-55.285334271078575"/>
      <point x="351.1579624954621" y="-34.87087499587463"/>
      <point x="364.9062429910859" y="2.4455174199949976" type="curve" smooth="yes"/>
      <point x="658.9058285892022" y="1133.4439235126115" type="line" smooth="yes"/>
      <point x="667.8571256249649" y="1198.277177527969"/>
      <point x="605.0270993791507" y="1241.4878019884484"/>
      <point x="556.0" y="1243.0" type="curve" smooth="yes"/>
    </contour>
    <contour>
      <point x="193.0" y="899.0" type="line" smooth="yes"/>
      <point x="137.71230949748747" y="897.4062250829145"/>
      <point x="97.01515499505871" y="853.2462112512353"/>
      <point x="96.0" y="793.0" type="curve" smooth="yes"/>
      <point x="97.01515499505871" y="732.7537887487647"/>
      <point x="137.71230949748747" y="688.5937749170855"/>
      <point x="193.0" y="687.0" type="curve" smooth="yes"/>
      <point x="1105.0" y="687.0" type="line" smooth="yes"/>
      <point x="1160.2876905025125" y="688.5937749170855"/>
      <point x="1200.9848450049412" y="732.7537887487647"/>
      <point x="1202.0" y="793.0" type="curve" smooth="yes"/>
      <point x="1200.9848450049412" y="853.2462112512353"/>
      <point x="1160.2876905025125" y="897.4062250829145"/>
      <point x="1105.0" y="899.0" type="curve" smooth="yes"/>
    </contour>
  </outline>
</glyph>
<glyph name="dollar" format="2">
  <advance width="1228"/>
  <unicode hex="0024"/>
  <outline>
    <contour>
      <point x="338.85161203738966" y="1153.7460989689698"/>
      <point x="155.03554430185022" y="1030.066468022363"/>
      <point x="151.0" y="817.0" type="curve" smooth="yes"/>
      <point x="152.8139031942951" y="683.0430308746537"/>
      <point x="230.22523206794034" y="600.6537817496354"/>
      <point x="326.0000390473058" y="560.5834276976557" type="curve" smooth="yes"/>
      <point x="476.27272679414756" y="499.3302377787245"/>
      <point x="684.5548605254429" y="509.17499424980315"/>
      <point x="793.2630166237905" y="468.0900764459302" type="curve" smooth="yes"/>
      <point x="845.165493964128" y="449.460206389885"/>
      <point x="866.3840988059555" y="434.4926105166418"/>
      <point x="864.0" y="388.0" type="curve" smooth="yes"/>
      <point x="867.5894755060028" y="304.2052622469986"/>
      <point x="805.3100382100897" y="252.8707250313999"/>
      <point x="637.0" y="254.0" type="curve" smooth="yes"/>
      <point x="510.68086802517337" y="253.67624495888623"/>
      <point x="391.067356906014" y="287.3885995783636"/>
      <point x="290.17214403792235" y="346.34480310277866" type="curve" smooth="yes"/>
      <point x="251.2462112512353" y="367.9848450049413"/>
      <point x="189.39939060013612" y="356.4747060443033"/>
      <point x="156.58947550600286" y="296.2052622469986" type="curve" smooth="yes"/>
      <point x="129.4296086729922" y="237.38784058334693"/>
      <point x="149.0347496786344" y="176.91891951420916"/>
      <point x="195.2880133577453" y="149.39071931861395" type="curve" smooth="yes"/>
      <point x="324.79471130349845" y="76.26624938909598"/>
      <point x="481.25740988535915" y="40.2066127883902"/>
      <point x="644.0" y="40.0" type="curve" smooth="yes"/>
      <point x="924.1050990759129" y="41.53637462226402"/>
      <point x="1083.1265550253424" y="187.32017645383044"/>
      <point x="1086.0" y="388.0" type="curve" smooth="yes"/>
      <point x="1084.0363643438222" y="540.3873332975671"/>
      <point x="994.9017105766685" y="627.9055143256298"/>
      <point x="888.1197550874433" y="669.7665159660355" type="curve" smooth="yes"/>
      <point x="732.4180614683972" y="727.7117299001618"/>
      <point x="528.3616524185835" y="717.8334049870336"/>
      <point x="427.9604098673419" y="756.8268533758081" type="curve" smooth="yes"/>
      <point x="385.15531265602215" y="772.3546461003045"/>
      <point x="370.6559388497795" y="782.4057057654542"/>
      <point x="373.0" y="817.0" type="curve" smooth="yes"/>
      <point x="368.70359463606275" y="902.4562257723195"/>
      <point x="434.9454123687859" y="941.9414092513014"/>
      <point x="572.0" y="941.0" type="curve" smooth="yes"/>
      <point x="690.6445165407271" y="941.280128057242"/>
      <point x="799.6212772652781" y="912.3334999809439"/>
      <point x="899.0" y="859.0" type="curve" smooth="yes"/>
      <point x="940.0226952938922" y="838.7236237093321"/>
      <point x="1001.6939755935322" y="852.6289159561213"/>
      <point x="1030.993949734227" y="914.0223363943682" type="curve" smooth="yes"/>
      <point x="1056.6981487636185" y="973.4795166292707"/>
      <point x="1035.508324206663" y="1033.5656963525607"/>
      <point x="988.733722240539" y="1060.140504051153" type="curve" smooth="yes"/>
      <point x="863.2319144407556" y="1125.0911841164445"/>
      <point x="716.33593873293" y="1154.8359500054326"/>
      <point x="568.0" y="1155.0" type="curve" smooth="yes"/>
    </contour>
    <contour>
      <point x="507.0304009377713" y="163.03153355570234" type="line"/>
      <point x="504.0" y="-160.0" type="line" smooth="yes"/>
      <point x="505.64660154218336" y="-216.45263642483306"/>
      <point x="550.0936785230645" y="-257.8127633360782"/>
      <point x="608.0" y="-259.0" type="curve" smooth="yes"/>
      <point x="665.9063214769355" y="-257.8127633360782"/>
      <point x="710.3533984578166" y="-216.45263642483306"/>
      <point x="712.0" y="-160.0" type="curve" smooth="yes"/>
      <point x="708.9695990622288" y="163.03153355570234" type="line"/>
    </contour>
    <contour>
      <point x="550.0936785230645" y="1444.8127633360782"/>
      <point x="505.64660154218336" y="1403.4526364248331"/>
      <point x="504.0" y="1347.0" type="curve" smooth="yes"/>
      <point x="507.2644614112839" y="1036.4629209377695" type="line"/>
      <point x="708.735538588716" y="1036.4629209377695" type="line"/>
      <point x="712.0" y="1347.0" type="line" smooth="yes"/>
      <point x="710.3533984578166" y="1403.4526364248331"/>
      <point x="665.9063214769355" y="1444.8127633360782"/>
      <point x="608.0" y="1446.0" type="curve" smooth="yes"/>
    </contour>
  </outline>
</glyph>
<glyph name="percent" format="2">
  <advance width="1228"/>
  <unicode hex="0025"/>
  <outline>
    <contour>
      <point x="596.0" y="252.0" type="curve" smooth="yes"/>
      <point x="598.9819726599933" y="87.07584904079988"/>
      <point x="739.0758490407999" y="-53.01802734000675"/>
      <point x="904.0" y="-56.0" type="curve" smooth="yes"/>
      <point x="1068.9241509592" y="-53.01802734000675"/>
      <point x="1209.0180273400067" y="87.07584904079988"/>
      <point x="1212.0" y="252.0" type="curve" smooth="yes"/>
      <point x="1209.0180273400067" y="416.9241509592001"/>
      <point x="1068.9241509592" y="557.0180273400067"/>
      <point x="904.0" y="560.0" type="curve" smooth="yes"/>
      <point x="739.0758490407999" y="557.0180273400067"/>
      <point x="598.9819726599933" y="416.9241509592001"/>
    </contour>
    <contour>
      <point x="16.0" y="935.0" type="curve" smooth="yes"/>
      <point x="18.981972659993247" y="770.0758490407999"/>
      <point x="159.07584904079988" y="629.9819726599933"/>
      <point x="324.0" y="627.0" type="curve" smooth="yes"/>
      <point x="488.9241509592001" y="629.9819726599933"/>
      <point x="629.0180273400067" y="770.0758490407999"/>
      <point x="632.0" y="935.0" type="curve" smooth="yes"/>
      <point x="629.0180273400067" y="1099.9241509592"/>
      <point x="488.9241509592001" y="1240.0180273400067"/>
      <point x="324.0" y="1243.0" type="curve" smooth="yes"/>
      <point x="159.07584904079988" y="1240.0180273400067"/>
      <point x="18.981972659993247" y="1099.9241509592"/>
    </contour>
    <contour>
      <point x="105.59180862460317" y="253.6588032258826" type="line" smooth="yes"/>
      <point x="65.58947550600286" y="213.20526224699856"/>
      <point x="67.97406553844803" y="151.04872231730053"/>
      <point x="105.40591149911855" y="110.52382461279498" type="curve" smooth="yes"/>
      <point x="143.92739240885888" y="71.59717581525696"/>
      <point x="205.62784035667008" y="66.85065061332557"/>
      <point x="248.40819137539683" y="104.3411967741174" type="curve" smooth="yes"/>
      <point x="1122.4081913753969" y="934.3411967741174" type="line" smooth="yes"/>
      <point x="1162.4105244939972" y="974.7947377530014"/>
      <point x="1160.025934461552" y="1036.9512776826996"/>
      <point x="1122.5940885008815" y="1077.476175387205" type="curve" smooth="yes"/>
      <point x="1084.0726075911411" y="1116.402824184743"/>
      <point x="1022.37215964333" y="1121.1493493866744"/>
      <point x="979.5918086246032" y="1083.6588032258826" type="curve" smooth="yes"/>
    </contour>
    <contour>
      <point x="1014.0" y="252.0" type="curve" smooth="yes"/>
      <point x="1017.0107961383432" y="186.98818229866455"/>
      <point x="969.0118177013354" y="138.98920386165685"/>
      <point x="904.0" y="142.0" type="curve" smooth="yes"/>
      <point x="838.9881822986646" y="138.98920386165685"/>
      <point x="790.9892038616568" y="186.98818229866455"/>
      <point x="794.0" y="252.0" type="curve" smooth="yes"/>
      <point x="790.9892038616568" y="317.0118177013355"/>
      <point x="838.9881822986646" y="365.01079613834315"/>
      <point x="904.0" y="362.0" type="curve" smooth="yes"/>
      <point x="969.0118177013354" y="365.01079613834315"/>
      <point x="1017.0107961383432" y="317.0118177013355"/>
    </contour>
    <contour>
      <point x="434.0" y="935.0" type="curve" smooth="yes"/>
      <point x="437.01079613834315" y="869.9881822986646"/>
      <point x="389.0118177013355" y="821.9892038616568"/>
      <point x="324.0" y="825.0" type="curve" smooth="yes"/>
      <point x="258.9881822986645" y="821.9892038616568"/>
      <point x="210.98920386165685" y="869.9881822986646"/>
      <point x="214.0" y="935.0" type="curve" smooth="yes"/>
      <point x="210.98920386165685" y="1000.0118177013354"/>
      <point x="258.9881822986645" y="1048.010796138343"/>
      <point x="324.0" y="1045.0" type="curve" smooth="yes"/>
      <point x="389.0118177013355" y="1048.010796138343"/>
      <point x="437.01079613834315" y="1000.0118177013354"/>
    </contour>
  </outline>
</glyph>
<glyph name="ampersand" format="2">
  <advance width="1228"/>
  <unicode hex="0026"/>
  <outline>
    <contour>
      <point x="387.5110433469263" y="1300.2097428443667"/>
      <point x="232.35114361836517" y="1128.4237631068308"/>
      <point x="230.0" y="920.0" type="curve" smooth="yes"/>
      <point x="230.76171590598088" y="790.8434316543978"/>
      <point x="281.26784841168666" y="691.3295203850336"/>
      <point x="360.88226549304386" y="603.0849522532013" type="curve" smooth="yes"/>
      <point x="928.9015270379414" y="-18.93614298378897" type="line" smooth="yes"/>
      <point x="963.8806060168095" y="-53.936017397353964"/>
      <point x="1017.1697012480033" y="-56.112891088009405"/>
      <point x="1065.622438405824" y="-29.65964499862713" type="curve" smooth="yes"/>
      <point x="1121.2572374607203" y="3.1759274939353617"/>
      <point x="1135.7725829875849" y="68.10384113812759"/>
      <point x="1098.1101976205475" y="112.92330638143301" type="curve" smooth="yes"/>
      <point x="542.126124245245" y="721.9058481705548" type="line" smooth="yes"/>
      <point x="481.2736452990988" y="789.3014352226375"/>
      <point x="451.07305975267974" y="839.884967888056"/>
      <point x="452.0" y="920.0" type="curve" smooth="yes"/>
      <point x="449.9576159832184" y="1016.393502652861"/>
      <point x="505.3950509630213" y="1090.197686649019"/>
      <point x="617.0" y="1087.0" type="curve" smooth="yes"/>
      <point x="695.5795425654411" y="1087.4348597321546"/>
      <point x="763.0479730795146" y="1064.4641703736565"/>
      <point x="827.2754410535822" y="1021.6205903468356" type="curve" smooth="yes"/>
      <point x="864.7356820403903" y="998.5863643380748"/>
      <point x="928.1999471503617" y="1005.2480613055803"/>
      <point x="962.9835486390684" y="1064.9691918167357" type="curve" smooth="yes"/>
      <point x="993.1503900810919" y="1124.4467465638018"/>
      <point x="976.2720009724037" y="1182.7448008751633"/>
      <point x="932.9774194173162" y="1210.8584890646391" type="curve" smooth="yes"/>
      <point x="843.405293702648" y="1266.7975244677302"/>
      <point x="734.253670374204" y="1302.5916499683956"/>
      <point x="618.0" y="1303.0" type="curve" smooth="yes"/>
    </contour>
    <contour>
      <point x="264.0415525847914" y="652.5256312693161"/>
      <point x="125.61234078090257" y="523.069615478116"/>
      <point x="123.0" y="320.0" type="curve" smooth="yes"/>
      <point x="125.24953021166371" y="123.83827034423376"/>
      <point x="274.3039822263268" y="-53.11943278954854"/>
      <point x="516.0" y="-56.0" type="curve" smooth="yes"/>
      <point x="811.1312167979606" y="-50.76211010036205"/>
      <point x="988.3008931048892" y="242.72392788373378"/>
      <point x="1085.6885746414127" y="581.6481505619056" type="curve" smooth="yes"/>
      <point x="1099.920527215897" y="634.6766762180893"/>
      <point x="1073.908182494247" y="694.0487891558001"/>
      <point x="1003.01472427366" y="706.6281510116029" type="curve" smooth="yes"/>
      <point x="944.0" y="715.0"/>
      <point x="892.8746324966493" y="692.1040232098231"/>
      <point x="875.2005211873396" y="636.9551208600355" type="curve" smooth="yes"/>
      <point x="806.1804645533383" y="380.9798649390818"/>
      <point x="698.5191783705567" y="153.1391957394269"/>
      <point x="516.0" y="160.0" type="curve" smooth="yes"/>
      <point x="408.0909480417551" y="157.7774916482025"/>
      <point x="342.14197644296974" y="217.64468040027023"/>
      <point x="345.0" y="320.0" type="curve" smooth="yes"/>
      <point x="342.7377783592403" y="433.8051886107353"/>
      <point x="409.0189616977618" y="495.5183484385755"/>
      <point x="575.584155108107" y="605.2905800435439" type="curve"/>
      <point x="449.31176393060514" y="754.9746858026732" type="line"/>
    </contour>
  </outline>
</glyph>
<glyph name="quotesingle" format="2">
  <advance width="1228"/>
  <unicode hex="0027"/>
  <outline>
    <contour>
      <point x="532.0" y="1303.0" type="line" smooth="yes"/>
      <point x="491.2482559554275" y="1301.2552321337175"/>
      <point x="453.79408813202696" y="1261.305300610954"/>
      <point x="457.24881791415197" y="1214.8941860967732" type="curve" smooth="yes"/>
      <point x="512.2498358328372" y="764.8858270953252" type="line" smooth="yes"/>
      <point x="520.0461894038376" y="718.9136943094684"/>
      <point x="564.8586502333778" y="682.547680746809"/>
      <point x="614.0" y="681.0" type="curve" smooth="yes"/>
      <point x="664.1413497666222" y="682.547680746809"/>
      <point x="708.1836540692636" y="719.34921640853"/>
      <point x="715.7501641671628" y="764.8858270953252" type="curve" smooth="yes"/>
      <point x="770.7511820858481" y="1214.8941860967732" type="line" smooth="yes"/>
      <point x="774.2059118679731" y="1261.305300610954"/>
      <point x="736.7517440445724" y="1301.2552321337175"/>
      <point x="696.0" y="1303.0" type="curve" smooth="yes"/>
    </contour>
  </outline>
</glyph>
<glyph name="parenleft" format="2">
  <advance width="1228"/>
  <unicode hex="0028"/>
  <outline>
    <contour>
      <point x="263.0" y="517.0" type="curve" smooth="yes"/>
      <point x="264.8810954160173" y="82.847602575006"/>
      <point x="524.1264835969793" y="-228.15556096295091"/>
      <point x="753.5750722423046" y="-366.19540875958234" type="curve" smooth="yes"/>
      <point x="802.299805415051" y="-387.922129872001"/>
      <point x="854.7587997515553" y="-356.3023997661697"/>
      <point x="877.1547594742265" y="-320.4928556845359" type="curve" smooth="yes"/>
      <point x="897.9664812383646" y="-284.5820584196973"/>
      <point x="905.872485953738" y="-225.3167018235409"/>
      <point x="870.679812954811" y="-191.59111779789157" type="curve" smooth="yes"/>
      <point x="676.7345034966274" y="-64.71873518271215"/>
      <point x="477.14774342958" y="157.06899238349624"/>
      <point x="479.0" y="517.0" type="curve" smooth="yes"/>
      <point x="477.16999980925016" y="876.9958593123841"/>
      <point x="676.8708749958746" y="1102.842037504538"/>
      <point x="870.679812954811" y="1229.5911177978915" type="curve" smooth="yes"/>
      <point x="905.872485953738" y="1263.3167018235408"/>
      <point x="897.9664812383646" y="1322.5820584196974"/>
      <point x="877.1547594742265" y="1358.492855684536" type="curve" smooth="yes"/>
      <point x="854.7587997515553" y="1394.3023997661696"/>
      <point x="802.299805415051" y="1425.922129872001"/>
      <point x="753.5750722423046" y="1404.1954087595823" type="curve" smooth="yes"/>
      <point x="524.0110076286626" y="1266.050074446009"/>
      <point x="264.8620387993155" y="951.0973622930541"/>
    </contour>
  </outline>
</glyph>
<glyph name="parenright" format="2">
  <advance width="1228"/>
  <unicode hex="0029"/>
  <outline>
    <contour>
      <point x="350.8452405257735" y="1358.492855684536" type="curve" smooth="yes"/>
      <point x="330.0335187616354" y="1322.5820584196974"/>
      <point x="322.127514046262" y="1263.3167018235408"/>
      <point x="357.32018704518896" y="1229.5911177978915" type="curve" smooth="yes"/>
      <point x="551.1291250041254" y="1102.842037504538"/>
      <point x="750.8300001907498" y="876.9958593123841"/>
      <point x="749.0" y="517.0" type="curve" smooth="yes"/>
      <point x="750.85225657042" y="157.06899238349624"/>
      <point x="551.2654965033726" y="-64.71873518271215"/>
      <point x="357.32018704518896" y="-191.59111779789157" type="curve" smooth="yes"/>
      <point x="322.127514046262" y="-225.3167018235409"/>
      <point x="330.0335187616354" y="-284.5820584196973"/>
      <point x="350.8452405257735" y="-320.4928556845359" type="curve" smooth="yes"/>
      <point x="373.2412002484447" y="-356.3023997661697"/>
      <point x="425.7001945849491" y="-387.922129872001"/>
      <point x="474.4249277576954" y="-366.19540875958234" type="curve" smooth="yes"/>
      <point x="703.8735164030207" y="-228.15556096295091"/>
      <point x="963.1189045839827" y="82.847602575006"/>
      <point x="965.0" y="517.0" type="curve" smooth="yes"/>
      <point x="963.1379612006845" y="951.0973622930541"/>
      <point x="703.9889923713374" y="1266.050074446009"/>
      <point x="474.4249277576954" y="1404.1954087595823" type="curve" smooth="yes"/>
      <point x="425.7001945849491" y="1425.922129872001"/>
      <point x="373.2412002484447" y="1394.3023997661696"/>
    </contour>
  </outline>
</glyph>
<glyph name="asterisk" format="2">
  <advance width="1228"/>
  <unicode hex="002A"/>
  <outline>
    <contour>
      <point x="1101.0753046328753" y="703.2616463578083"/>
      <point x="1089.7680850806864" y="688.6983845952157"/>
      <point x="1043.1678991134747" y="680.3064918218107" type="curve" smooth="yes"/>
      <point x="559.9411627665388" y="581.9376072999573" type="line"/>
      <point x="557.275183961149" y="587.3291498000815" type="line"/>
      <point x="1009.0784434978799" y="793.0516974831089" type="line" smooth="yes"/>
      <point x="1050.7149858514251" y="814.0432801417833"/>
      <point x="1067.3880144147477" y="807.838662064739"/>
      <point x="1082.6205174769832" y="754.6284470043462" type="curve" smooth="yes"/>
    </contour>
    <contour>
      <point x="271.1395423941799" y="226.0831379454783"/>
      <point x="270.61590119404445" y="241.49261051664178"/>
      <point x="304.2009486998521" y="275.17649929069995" type="curve" smooth="yes"/>
      <point x="644.7726426649735" y="651.88578870838" type="line"/>
      <point x="650.395894653205" y="646.5371657574063" type="line"/>
      <point x="401.5167562051724" y="210.933349796622" type="line" smooth="yes"/>
      <point x="378.0379637901501" y="168.9551337025499"/>
      <point x="360.7873373466686" y="161.0961837233416"/>
      <point x="317.8332781615232" y="194.6159569337665" type="curve" smooth="yes"/>
    </contour>
    <contour>
      <point x="668.8161993706074" y="1095.2579930971085"/>
      <point x="680.1592777307337" y="1080.1973321752482"/>
      <point x="673.2254355815123" y="1033.9088103486133" type="curve" smooth="yes"/>
      <point x="616.1031352856058" y="544.5904768181313" type="line"/>
      <point x="610.913093132707" y="544.5280889088796" type="line"/>
      <point x="554.7745644184877" y="1033.9088103486133" type="line" smooth="yes"/>
      <point x="546.8407222692663" y="1080.1973321752482"/>
      <point x="559.0774038612014" y="1095.2173582599962"/>
      <point x="614.0" y="1093.0" type="curve" smooth="yes"/>
    </contour>
    <contour>
      <point x="159.61198558525246" y="807.838662064739"/>
      <point x="177.30212102390766" y="814.0424204781533"/>
      <point x="218.89865135002108" y="793.062127315348" type="curve" smooth="yes"/>
      <point x="669.724816038851" y="587.3291498000815" type="line"/>
      <point x="668.0588372334612" y="581.9376072999573" type="line"/>
      <point x="183.82011376373325" y="680.3089484710902" type="line" smooth="yes"/>
      <point x="137.2319149193135" y="688.6983845952157"/>
      <point x="125.9446253704152" y="702.9396928783094"/>
      <point x="145.37948252301672" y="754.6284470043462" type="curve" smooth="yes"/>
    </contour>
    <contour>
      <point x="867.2843562938258" y="160.11297090566435"/>
      <point x="849.1541250939359" y="168.79136951234338"/>
      <point x="826.4832437948277" y="210.933349796622" type="curve" smooth="yes"/>
      <point x="576.5816897428595" y="646.5935250420906" type="line"/>
      <point x="582.2273573350265" y="651.88578870838" type="line"/>
      <point x="922.7990513001479" y="275.17649929069995" type="line" smooth="yes"/>
      <point x="956.3377454900044" y="241.6104221482626"/>
      <point x="955.7102899925134" y="224.8598066716578"/>
      <point x="910.0472415351543" y="194.52975535023018" type="curve" smooth="yes"/>
    </contour>
  </outline>
</glyph>
<glyph name="plus" format="2">
  <advance width="1228"/>
  <unicode hex="002B"/>
  <outline>
    <contour>
      <point x="233.0" y="688.0" type="line" smooth="yes"/>
      <point x="177.71230949748747" y="686.4062250829145"/>
      <point x="137.0151549950587" y="642.2462112512353"/>
      <point x="136.0" y="582.0" type="curve" smooth="yes"/>
      <point x="137.0151549950587" y="521.7537887487647"/>
      <point x="177.71230949748747" y="477.59377491708557"/>
      <point x="233.0" y="476.0" type="curve" smooth="yes"/>
      <point x="517.9583694396574" y="485.95836943965736" type="line"/>
      <point x="508.0" y="201.0" type="line" smooth="yes"/>
      <point x="509.59377491708557" y="145.71230949748747"/>
      <point x="553.7537887487647" y="105.01515499505871"/>
      <point x="614.0" y="104.0" type="curve" smooth="yes"/>
      <point x="674.2462112512353" y="105.01515499505871"/>
      <point x="718.4062250829145" y="145.71230949748747"/>
      <point x="720.0" y="201.0" type="curve" smooth="yes"/>
      <point x="710.0416305603426" y="485.95836943965736" type="line"/>
      <point x="995.0" y="476.0" type="line" smooth="yes"/>
      <point x="1050.2876905025125" y="477.59377491708557"/>
      <point x="1090.9848450049412" y="521.7537887487647"/>
      <point x="1092.0" y="582.0" type="curve" smooth="yes"/>
      <point x="1090.9848450049412" y="642.2462112512353"/>
      <point x="1050.2876905025125" y="686.4062250829145"/>
      <point x="995.0" y="688.0" type="curve" smooth="yes"/>
      <point x="710.0416305603426" y="678.0416305603426" type="line"/>
      <point x="720.0" y="963.0" type="line" smooth="yes"/>
      <point x="718.4062250829145" y="1018.2876905025125"/>
      <point x="674.2462112512353" y="1058.9848450049412"/>
      <point x="614.0" y="1060.0" type="curve" smooth="yes"/>
      <point x="553.7537887487647" y="1058.9848450049412"/>
      <point x="509.59377491708557" y="1018.2876905025125"/>
      <point x="508.0" y="963.0" type="curve" smooth="yes"/>
      <point x="517.9583694396574" y="678.0416305603426" type="line"/>
    </contour>
  </outline>
</glyph>
<glyph name="comma" format="2">
  <advance width="1228"/>
  <unicode hex="002C"/>
  <outline>
    <contour>
      <point x="520.0" y="328.0" type="line" smooth="yes"/>
      <point x="482.2937960555944" y="326.58511324193313"/>
      <point x="443.8452405257735" y="297.4928556845359"/>
      <point x="434.62781490043426" y="260.50363449775" type="curve" smooth="yes"/>
      <point x="340.6264033377848" y="-221.5036128634619" type="line" smooth="yes"/>
      <point x="332.740039746517" y="-277.05514308407214"/>
      <point x="378.0010811395242" y="-326.4964862965463"/>
      <point x="444.0" y="-328.0" type="curve" smooth="yes"/>
      <point x="495.8828841525369" y="-327.48718671444095"/>
      <point x="542.3365862448252" y="-304.74301097056116"/>
      <point x="561.1493493866744" y="-266.62784035667005" type="curve" smooth="yes"/>
      <point x="773.1507267510709" y="217.3753083381636" type="line" smooth="yes"/>
      <point x="790.8934233475954" y="263.31004576606387"/>
      <point x="765.5528878288727" y="322.4919348800545"/>
      <point x="714.0" y="328.0" type="curve" smooth="yes"/>
    </contour>
  </outline>
</glyph>
<glyph name="period" format="2">
  <advance width="1228"/>
  <unicode hex="002E"/>
  <outline>
    <contour>
      <point x="445.0" y="237.0" type="curve" smooth="yes"/>
      <point x="445.0" y="53.0" type="line" smooth="yes"/>
      <point x="450.29676428157467" y="-10.22427664661926"/>
      <point x="514.5064335169054" y="-43.70174862320958"/>
      <point x="614.0" y="-44.0" type="curve" smooth="yes"/>
      <point x="713.4935664830946" y="-43.70174862320958"/>
      <point x="777.7032357184254" y="-10.22427664661926"/>
      <point x="783.0" y="53.0" type="curve" smooth="yes"/>
      <point x="783.0" y="237.0" type="line" smooth="yes"/>
      <point x="777.7032357184254" y="300.2242766466193"/>
      <point x="713.4935664830946" y="333.7017486232096"/>
      <point x="614.0" y="334.0" type="curve" smooth="yes"/>
      <point x="514.5064335169054" y="333.7017486232096"/>
      <point x="450.29676428157467" y="300.2242766466193"/>
    </contour>
  </outline>
</glyph>
<glyph name="zero" format="2">
  <advance width="1228"/>
  <unicode hex="0030"/>
  <outline>
    <contour>
      <point x="336.9374330657714" y="1238.4086519516786"/>
      <point x="157.1444736986844" y="971.7472505087918"/>
      <point x="156.0" y="593.0" type="curve" smooth="yes"/>
      <point x="157.14801205355764" y="214.2394698809487"/>
      <point x="336.98940493048286" y="-51.43874412030717"/>
      <point x="614.0" y="-56.0" type="curve" smooth="yes"/>
      <point x="891.0105950695171" y="-51.43874412030717"/>
      <point x="1070.8519879464425" y="214.2394698809487"/>
      <point x="1072.0" y="593.0" type="curve" smooth="yes"/>
      <point x="1070.8555263013156" y="971.7472505087918"/>
      <point x="891.0625669342286" y="1238.4086519516786"/>
      <point x="614.0" y="1243.0" type="curve" smooth="yes"/>
    </contour>
    <contour>
      <point x="274.44443116635136" y="367.45479581536335" type="line"/>
      <point x="393.9192090837014" y="192.19726336150757" type="line"/>
      <point x="946.5555688336486" y="810.5452041846366" type="line"/>
      <point x="838.0807909162986" y="997.8027366384924" type="line"/>
    </contour>
    <contour>
      <point x="752.8843488306712" y="1032.2280834369485"/>
      <point x="850.9497604281531" y="883.0199207871395"/>
      <point x="850.0" y="593.0" type="curve" smooth="yes"/>
      <point x="850.9536625616014" y="302.99622297759964"/>
      <point x="752.9608507225594" y="154.81994263259753"/>
      <point x="614.0" y="160.0" type="curve" smooth="yes"/>
      <point x="475.0391492774407" y="154.81994263259753"/>
      <point x="377.0463374383986" y="302.99622297759964"/>
      <point x="378.0" y="593.0" type="curve" smooth="yes"/>
      <point x="377.0502395718469" y="883.0199207871395"/>
      <point x="475.1156511693287" y="1032.2280834369485"/>
      <point x="614.0" y="1027.0" type="curve" smooth="yes"/>
    </contour>
  </outline>
</glyph>
<glyph name="one" format="2">
  <advance width="1228"/>
  <unicode hex="0031"/>
  <outline>
    <contour>
      <point x="233.20452269817437" y="996.9710370473722" type="line" smooth="yes"/>
      <point x="194.59689246336256" y="971.4213891334983"/>
      <point x="174.44020702278596" y="909.5465336412027"/>
      <point x="204.53903345726988" y="853.0279214482098" type="curve" smooth="yes"/>
      <point x="240.03349284101128" y="796.2342461800143"/>
      <point x="302.898920988252" y="790.1852288558209"/>
      <point x="337.9538534594193" y="810.1268438518111" type="curve" smooth="yes"/>
      <point x="536.8159041684377" y="983.0371547714651" type="line"/>
      <point x="535.4770330351469" y="102.3245541255892" type="line"/>
      <point x="752.6576407756646" y="103.18718196725482" type="line"/>
      <point x="753.0" y="1157.0" type="line" smooth="yes"/>
      <point x="746.0539449607772" y="1231.5933013880542"/>
      <point x="663.919811160444" y="1257.7542894908715"/>
      <point x="610.2117127347794" y="1228.9754523031133" type="curve" smooth="yes"/>
    </contour>
    <contour>
      <point x="300.0" y="178.0" type="line" smooth="yes"/>
      <point x="244.71230949748747" y="176.40622508291446"/>
      <point x="204.0151549950587" y="132.2462112512353"/>
      <point x="203.0" y="72.0" type="curve" smooth="yes"/>
      <point x="204.0151549950587" y="11.753788748764679"/>
      <point x="244.71230949748747" y="-32.40622508291445"/>
      <point x="300.0" y="-34.0" type="curve" smooth="yes"/>
      <point x="974.0" y="-34.0" type="line" smooth="yes"/>
      <point x="1029.2876905025125" y="-32.40622508291445"/>
      <point x="1069.9848450049412" y="11.753788748764679"/>
      <point x="1071.0" y="72.0" type="curve" smooth="yes"/>
      <point x="1069.9848450049412" y="132.2462112512353"/>
      <point x="1029.2876905025125" y="176.40622508291446"/>
      <point x="974.0" y="178.0" type="curve" smooth="yes"/>
    </contour>
  </outline>
</glyph>
<glyph name="two" format="2">
  <advance width="1228"/>
  <unicode hex="0032"/>
  <outline>
    <contour>
      <point x="221.37638230733728" y="1122.7653314162142" type="curve" smooth="yes"/>
      <point x="182.1074728257575" y="1092.8036530970555"/>
      <point x="167.0151549950587" y="1033.7537887487647"/>
      <point x="199.09768215561357" y="978.0931291616301" type="curve" smooth="yes"/>
      <point x="235.86363277482366" y="923.3681772962778"/>
      <point x="299.8577824541302" y="913.1741003170469"/>
      <point x="339.76209858644927" y="939.333061978971" type="curve" smooth="yes"/>
      <point x="418.6023146091537" y="995.7912632035534"/>
      <point x="508.22286556936086" y="1027.5743220845761"/>
      <point x="591.0" y="1027.0" type="curve" smooth="yes"/>
      <point x="727.7430177570112" y="1028.917600607482"/>
      <point x="787.3888070503228" y="968.4807156634942"/>
      <point x="785.0" y="859.0" type="curve" smooth="yes"/>
      <point x="786.3515092288753" y="769.4908403404432"/>
      <point x="743.3462889522306" y="709.3133840884244"/>
      <point x="627.7875650702008" y="591.8696039927402" type="curve" smooth="yes"/>
      <point x="187.77354362319787" y="145.85537279991456" type="line" smooth="yes"/>
      <point x="172.0296810190214" y="127.05552802552424"/>
      <point x="163.22754906975737" y="97.92702917793518"/>
      <point x="163.0" y="68.0" type="curve" smooth="yes"/>
      <point x="164.1320222527086" y="9.299652949246394"/>
      <point x="205.65948165148916" y="-32.691814219787986"/>
      <point x="260.0" y="-34.0" type="curve" smooth="yes"/>
      <point x="954.0" y="-34.0" type="line" smooth="yes"/>
      <point x="1009.2876905025125" y="-32.40622508291445"/>
      <point x="1049.9848450049412" y="11.753788748764679"/>
      <point x="1051.0" y="72.0" type="curve" smooth="yes"/>
      <point x="1049.9848450049412" y="132.2462112512353"/>
      <point x="1009.2876905025125" y="176.40622508291446"/>
      <point x="954.0" y="178.0" type="curve" smooth="yes"/>
      <point x="470.6040378178198" y="160.5118596600735" type="line"/>
      <point x="793.2205961453197" y="453.13867727125506" type="line" smooth="yes"/>
      <point x="923.7686189215268" y="585.8194166245086"/>
      <point x="1005.5767905474298" y="704.2658992388158"/>
      <point x="1007.0" y="859.0" type="curve" smooth="yes"/>
      <point x="1004.250931020614" y="1093.3932561516917"/>
      <point x="833.8526462304203" y="1241.2214225290775"/>
      <point x="590.0" y="1243.0" type="curve" smooth="yes"/>
      <point x="465.19150285752085" y="1242.5001695659262"/>
      <point x="326.9007894242874" y="1196.4633195825782"/>
    </contour>
  </outline>
</glyph>
<glyph name="three" format="2">
  <advance width="1228"/>
  <unicode hex="0033"/>
  <outline>
    <contour>
      <point x="229.6609927675439" y="1142.24651822342" type="curve" smooth="yes"/>
      <point x="188.47574042462634" y="1115.4613484263289"/>
      <point x="169.5967935143026" y="1056.657619021703"/>
      <point x="199.10407313774968" y="997.8063729496145" type="curve" smooth="yes"/>
      <point x="232.54857716626827" y="941.4670093263443"/>
      <point x="294.4888696287779" y="929.835005929698"/>
      <point x="334.6005827108123" y="951.9101480196297" type="curve" smooth="yes"/>
      <point x="420.00332785141273" y="1004.0176371287494"/>
      <point x="498.9965836064749" y="1027.3691488025725"/>
      <point x="581.0" y="1027.0" type="curve" smooth="yes"/>
      <point x="715.9405085324089" y="1028.5222132617776"/>
      <point x="775.9374494589845" y="977.1754582757019"/>
      <point x="773.0" y="879.0" type="curve" smooth="yes"/>
      <point x="775.6549899517698" y="770.1715733713307"/>
      <point x="718.6967220982002" y="723.7024314123871"/>
      <point x="575.0" y="725.0" type="curve" smooth="yes"/>
      <point x="520.0" y="725.0" type="line" smooth="yes"/>
      <point x="465.65948165148916" y="723.691814219788"/>
      <point x="424.13202225270857" y="681.7003470507536"/>
      <point x="423.0" y="623.0" type="curve" smooth="yes"/>
      <point x="424.13202225270857" y="564.2996529492464"/>
      <point x="465.65948165148916" y="522.308185780212"/>
      <point x="520.0" y="521.0" type="curve" smooth="yes"/>
      <point x="593.0" y="521.0" type="line" smooth="yes"/>
      <point x="738.7455901229637" y="522.2837059276603"/>
      <point x="813.0778678300828" y="469.864168150895"/>
      <point x="810.0" y="345.0" type="curve" smooth="yes"/>
      <point x="812.4020290744384" y="225.55261858686697"/>
      <point x="746.0598159345801" y="158.19180598560342"/>
      <point x="588.0" y="160.0" type="curve" smooth="yes"/>
      <point x="488.577572834109" y="159.35769080155268"/>
      <point x="391.4328255232554" y="197.76511792891546"/>
      <point x="310.47611014574466" y="259.14275065831265" type="curve" smooth="yes"/>
      <point x="269.8577824541302" y="286.82589968295315"/>
      <point x="205.6072602252892" y="275.4263256040545"/>
      <point x="169.09768215561357" y="220.90687083836985" type="curve" smooth="yes"/>
      <point x="137.0151549950587" y="165.2462112512353"/>
      <point x="152.1074728257575" y="106.19634690294447"/>
      <point x="190.99014625890692" y="76.51171607284182" type="curve" smooth="yes"/>
      <point x="299.39983353074877" y="-2.20984617854997"/>
      <point x="448.8747785958704" y="-55.443708866547574"/>
      <point x="588.0" y="-56.0" type="curve" smooth="yes"/>
      <point x="861.6817720629601" y="-53.93017697209092"/>
      <point x="1029.532529383819" y="115.28388460816015"/>
      <point x="1032.0" y="345.0" type="curve" smooth="yes"/>
      <point x="1030.5318949575058" y="493.8831073288625"/>
      <point x="946.8053237115132" y="608.8912347291667"/>
      <point x="840.9240765644246" y="639.4855867434084" type="curve"/>
      <point x="922.916306586239" y="653.0062410256235"/>
      <point x="993.5660936975191" y="750.2301718907443"/>
      <point x="995.0" y="879.0" type="curve" smooth="yes"/>
      <point x="991.9524602337285" y="1094.0693001062402"/>
      <point x="821.903770062676" y="1241.2041580920895"/>
      <point x="580.0" y="1243.0" type="curve" smooth="yes"/>
      <point x="461.0874922213634" y="1242.6432350900568"/>
      <point x="340.3497857594987" y="1207.1395512361437"/>
    </contour>
  </outline>
</glyph>
<glyph name="four" format="2">
  <advance width="1228"/>
  <unicode hex="0034"/>
  <outline>
    <contour>
      <point x="691.0351988507756" y="1242.0539247692814"/>
      <point x="643.3601065908877" y="1212.4280953725986"/>
      <point x="612.7387769059568" y="1166.9024672788692" type="curve" smooth="yes"/>
      <point x="128.7518606347821" y="443.92201422690584" type="line" smooth="yes"/>
      <point x="118.74906897938604" y="428.3932561516917"/>
      <point x="111.27602340068108" y="401.3235867435024"/>
      <point x="111.0" y="376.0" type="curve" smooth="yes"/>
      <point x="112.17764463703895" y="317.12909314514565"/>
      <point x="153.22328118618861" y="270.1047198792608"/>
      <point x="210.0" y="268.0" type="curve"/>
      <point x="1000.0" y="268.0" type="line"/>
      <point x="1055.2876905025125" y="269.59377491708557"/>
      <point x="1095.9848450049412" y="313.7537887487647"/>
      <point x="1097.0" y="374.0" type="curve" smooth="yes"/>
      <point x="1095.9848450049412" y="434.2462112512353"/>
      <point x="1055.2876905025125" y="478.40622508291443"/>
      <point x="1000.0" y="480.0" type="curve"/>
      <point x="371.70593640516904" y="462.5395689874934" type="line"/>
      <point x="694.4294240232504" y="958.0362945027894" type="line"/>
      <point x="654.0012391559621" y="430.29027757390855" type="line"/>
      <point x="654.0" y="55.0" type="line" smooth="yes"/>
      <point x="655.2331792561819" y="-0.07388882136500641"/>
      <point x="697.5445315899165" y="-42.931824334009775"/>
      <point x="762.0" y="-44.0" type="curve" smooth="yes"/>
      <point x="764.0" y="-44.0" type="line" smooth="yes"/>
      <point x="828.4554684100835" y="-42.931824334009775"/>
      <point x="870.7668207438181" y="-0.07388882136500641"/>
      <point x="872.0" y="55.0" type="curve" smooth="yes"/>
      <point x="872.0" y="1131.0" type="line" smooth="yes"/>
      <point x="870.3775977934305" y="1188.377435190202"/>
      <point x="824.4121138410559" y="1241.0275452958665"/>
      <point x="751.0" y="1243.0" type="curve" smooth="yes"/>
    </contour>
  </outline>
</glyph>
<glyph name="five" format="2">
  <advance width="1228"/>
  <unicode hex="0035"/>
  <outline>
    <contour>
      <point x="351.0" y="1221.0" type="line" smooth="yes"/>
      <point x="286.4360053996433" y="1219.9037687276862"/>
      <point x="245.36562884703463" y="1177.539277721636"/>
      <point x="242.02756643299108" y="1123.3688526345682" type="curve" smooth="yes"/>
      <point x="222.02756643299108" y="623.3688526345682" type="line" smooth="yes"/>
      <point x="221.36562884703463" y="566.460722278364"/>
      <point x="266.85469792174985" y="523.9900915776179"/>
      <point x="331.0" y="523.0" type="curve" smooth="yes"/>
      <point x="356.6076809620811" y="523.1001474929462"/>
      <point x="381.8086880980022" y="528.1165421353941"/>
      <point x="400.19925313012766" y="538.9395531175057" type="curve" smooth="yes"/>
      <point x="462.1058649925361" y="582.0567017040173"/>
      <point x="518.3878405833469" y="604.4296086729922"/>
      <point x="608.0" y="604.0" type="curve" smooth="yes"/>
      <point x="745.7605465827544" y="606.683600570746"/>
      <point x="822.1856090920014" y="522.0064796180164"/>
      <point x="820.0" y="386.0" type="curve" smooth="yes"/>
      <point x="822.3072681994535" y="242.31140735328924"/>
      <point x="740.6193997523533" y="157.66576601801967"/>
      <point x="588.0" y="160.0" type="curve" smooth="yes"/>
      <point x="491.42081138410424" y="159.388219197342"/>
      <point x="395.90087621606625" y="196.05265604836518"/>
      <point x="315.96886716557725" y="253.51807304524667" type="curve" smooth="yes"/>
      <point x="275.8577824541302" y="280.82589968295315"/>
      <point x="211.6072602252892" y="269.4263256040545"/>
      <point x="175.09768215561357" y="214.90687083836985" type="curve" smooth="yes"/>
      <point x="142.79952605871384" y="158.32997476625798"/>
      <point x="160.402475085368" y="98.82048941983007"/>
      <point x="199.43322419006313" y="69.19458174377394" type="curve" smooth="yes"/>
      <point x="306.84569791469386" y="-5.435951246959352"/>
      <point x="452.08411828967076" y="-55.481373083990924"/>
      <point x="588.0" y="-56.0" type="curve" smooth="yes"/>
      <point x="859.0131711445124" y="-53.411102762616125"/>
      <point x="1039.6001546508642" y="139.45287977098042"/>
      <point x="1042.0" y="386.0" type="curve" smooth="yes"/>
      <point x="1040.0156017140127" y="630.4455776127595"/>
      <point x="878.4710982566921" y="817.217455241556"/>
      <point x="621.0" y="820.0" type="curve" smooth="yes"/>
      <point x="537.5356774955798" y="819.7056349083729"/>
      <point x="457.054506621354" y="797.4390553481403"/>
      <point x="439.4309899166252" y="736.1942645402424" type="curve"/>
      <point x="437.2744982235435" y="1014.5378003611247" type="line"/>
      <point x="885.0" y="1009.0" type="line" smooth="yes"/>
      <point x="940.2876905025125" y="1010.5937749170855"/>
      <point x="980.9848450049412" y="1054.7537887487647"/>
      <point x="982.0" y="1115.0" type="curve" smooth="yes"/>
      <point x="980.9848450049412" y="1175.2462112512353"/>
      <point x="940.2876905025125" y="1219.4062250829145"/>
      <point x="885.0" y="1221.0" type="curve" smooth="yes"/>
    </contour>
  </outline>
</glyph>
<glyph name="six" format="2">
  <advance width="1228"/>
  <unicode hex="0036"/>
  <outline>
    <contour>
      <point x="169.0" y="512.0" type="curve" smooth="yes"/>
      <point x="169.17812758174856" y="364.5242344550414"/>
      <point x="197.32099623617395" y="246.65331135358574"/>
      <point x="249.63151736945326" y="155.86838513218106" type="curve" smooth="yes"/>
      <point x="331.56673195608454" y="18.365025902550432"/>
      <point x="476.06993395242745" y="-55.06227536757168"/>
      <point x="626.0" y="-56.0" type="curve" smooth="yes"/>
      <point x="885.2781595627506" y="-53.70562722533076"/>
      <point x="1065.2423059830512" y="122.58663663127672"/>
      <point x="1068.0" y="353.0" type="curve" smooth="yes"/>
      <point x="1065.1606903797153" y="594.6018886578122"/>
      <point x="881.3152484735109" y="762.6912394051682"/>
      <point x="648.0" y="765.0" type="curve" smooth="yes"/>
      <point x="526.464882477975" y="764.1545170969097"/>
      <point x="406.6505397613106" y="707.4613028310516"/>
      <point x="391.40921945645357" y="595.3106303417745" type="curve"/>
      <point x="424.78071662672323" y="846.5588267808545"/>
      <point x="582.7838620958281" y="1011.1073583078086"/>
      <point x="939.7280436567941" y="1028.0439421439971" type="curve" smooth="yes"/>
      <point x="979.4997795733924" y="1032.7385255948054"/>
      <point x="1012.7308380713749" y="1078.7302736618512"/>
      <point x="1007.8699406142736" y="1144.9710474223048" type="curve" smooth="yes"/>
      <point x="1000.4390553481403" y="1209.945493378646"/>
      <point x="953.6452232277578" y="1243.129300653617"/>
      <point x="915.4644977731998" y="1242.965309256821" type="curve" smooth="yes"/>
      <point x="377.19069029527594" y="1215.1009256777947"/>
      <point x="170.2789919851485" y="843.2377288600621"/>
    </contour>
    <contour>
      <point x="846.0" y="353.0" type="curve" smooth="yes"/>
      <point x="848.9360530580673" y="229.8214037054414"/>
      <point x="767.6445260518753" y="158.04767092026287"/>
      <point x="626.0" y="160.0" type="curve" smooth="yes"/>
      <point x="484.5629195258665" y="157.59387682742658"/>
      <point x="403.4228961347215" y="239.98466782426507"/>
      <point x="406.0" y="368.0" type="curve" smooth="yes"/>
      <point x="402.4951509231459" y="479.9651814053327"/>
      <point x="489.130447117287" y="550.8734821841944"/>
      <point x="626.0" y="549.0" type="curve" smooth="yes"/>
      <point x="771.5326367907304" y="550.9921949983025"/>
      <point x="848.6720943322042" y="478.7877963053209"/>
    </contour>
  </outline>
</glyph>
<glyph name="seven" format="2">
  <advance width="1228"/>
  <unicode hex="0037"/>
  <outline>
    <contour>
      <point x="262.0" y="1221.0" type="line" smooth="yes"/>
      <point x="206.71230949748747" y="1219.4062250829145"/>
      <point x="166.0151549950587" y="1175.2462112512353"/>
      <point x="165.0" y="1115.0" type="curve" smooth="yes"/>
      <point x="166.0151549950587" y="1054.7537887487647"/>
      <point x="206.71230949748747" y="1010.5937749170855"/>
      <point x="262.0" y="1009.0" type="curve" smooth="yes"/>
      <point x="816.3035075562377" y="1036.7689521194632" type="line"/>
      <point x="414.52263542683886" y="68.85206285108734" type="line" smooth="yes"/>
      <point x="396.2328794530222" y="11.027397582708495"/>
      <point x="438.6192113268809" y="-42.32212624129202"/>
      <point x="493.1122920556667" y="-53.48633893339544" type="curve" smooth="yes"/>
      <point x="547.8573261070419" y="-61.8797238406398"/>
      <point x="606.0416305603426" y="-37.04163056034262"/>
      <point x="628.5262224616699" y="11.268256313556366" type="curve" smooth="yes"/>
      <point x="1054.5291923765583" y="1066.27561286026" type="line" smooth="yes"/>
      <point x="1058.8989872614927" y="1078.417655497002"/>
      <point x="1062.8515636860159" y="1098.826415904436"/>
      <point x="1063.0" y="1119.0" type="curve" smooth="yes"/>
      <point x="1061.8679777472914" y="1177.7003470507536"/>
      <point x="1020.3405183485108" y="1219.691814219788"/>
      <point x="966.0" y="1221.0" type="curve" smooth="yes"/>
    </contour>
  </outline>
</glyph>
<glyph name="eight" format="2">
  <advance width="1228"/>
  <unicode hex="0038"/>
  <outline>
    <contour>
      <point x="213.0" y="879.0" type="curve" smooth="yes"/>
      <point x="214.92644433895447" y="754.7178447423458"/>
      <point x="295.2179807402716" y="653.8936092695902"/>
      <point x="376.8870290943356" y="637.7156437061742" type="curve"/>
      <point x="272.25681760685956" y="603.9391979131693"/>
      <point x="177.91092731557274" y="487.23794528610745"/>
      <point x="176.0" y="340.0" type="curve" smooth="yes"/>
      <point x="179.22461383609073" y="116.54747058600947"/>
      <point x="367.9583655950421" y="-53.79621110851628"/>
      <point x="614.0" y="-56.0" type="curve" smooth="yes"/>
      <point x="860.0416344049579" y="-53.79621110851628"/>
      <point x="1048.7753861639092" y="116.54747058600947"/>
      <point x="1052.0" y="340.0" type="curve" smooth="yes"/>
      <point x="1050.0890726844273" y="487.23794528610745"/>
      <point x="955.6782147356884" y="603.9890984537232"/>
      <point x="850.0406765883787" y="638.0195816962084" type="curve"/>
      <point x="931.7034195662138" y="653.8282293466245"/>
      <point x="1013.0228640709323" y="754.5747570400191"/>
      <point x="1015.0" y="879.0" type="curve" smooth="yes"/>
      <point x="1011.7743949023562" y="1078.4546400298946"/>
      <point x="838.4934703008919" y="1240.621404140878"/>
      <point x="614.0" y="1243.0" type="curve" smooth="yes"/>
      <point x="389.50652969910817" y="1240.621404140878"/>
      <point x="216.22560509764378" y="1078.4546400298946"/>
    </contour>
    <contour>
      <point x="830.0" y="341.0" type="curve" smooth="yes"/>
      <point x="833.3370972585357" y="229.6896696854457"/>
      <point x="749.5970339909996" y="158.03080339606834"/>
      <point x="614.0" y="160.0" type="curve" smooth="yes"/>
      <point x="478.40296600900035" y="158.03080339606834"/>
      <point x="394.6629027414643" y="229.6896696854457"/>
      <point x="398.0" y="341.0" type="curve" smooth="yes"/>
      <point x="394.6090486460465" y="452.19844126505734"/>
      <point x="478.17468294584626" y="521.8888421096372"/>
      <point x="614.0" y="520.0" type="curve" smooth="yes"/>
      <point x="749.8253170541537" y="521.8888421096372"/>
      <point x="833.3909513539535" y="452.19844126505734"/>
    </contour>
    <contour>
      <point x="795.0" y="876.0" type="curve" smooth="yes"/>
      <point x="798.62274717663" y="788.2716243702188"/>
      <point x="725.1430537912718" y="724.8655429359571"/>
      <point x="614.0" y="727.0" type="curve" smooth="yes"/>
      <point x="502.85694620872823" y="724.8655429359571"/>
      <point x="429.37725282337" y="788.2716243702188"/>
      <point x="433.0" y="876.0" type="curve" smooth="yes"/>
      <point x="429.44336500248386" y="974.8605968636297"/>
      <point x="501.6616040372733" y="1028.7148610138906"/>
      <point x="614.0" y="1027.0" type="curve" smooth="yes"/>
      <point x="726.3383959627267" y="1028.7148610138906"/>
      <point x="798.5566349975161" y="974.8605968636297"/>
    </contour>
  </outline>
</glyph>
<glyph name="nine" format="2">
  <advance width="1228"/>
  <unicode hex="0039"/>
  <outline>
    <contour>
      <point x="160.0" y="834.0" type="curve" smooth="yes"/>
      <point x="162.83930962028472" y="592.3981113421878"/>
      <point x="346.68475152648904" y="424.3087605948318"/>
      <point x="580.0" y="422.0" type="curve" smooth="yes"/>
      <point x="701.535117522025" y="422.8454829030904"/>
      <point x="821.3494602386894" y="479.5386971689484"/>
      <point x="836.5907805435464" y="591.6893696582255" type="curve"/>
      <point x="803.2192833732768" y="340.44117321914547"/>
      <point x="645.2161379041719" y="175.8926416921914"/>
      <point x="288.27195634320594" y="158.95605785600287" type="curve" smooth="yes"/>
      <point x="248.50022042660763" y="154.2614744051946"/>
      <point x="215.26916192862504" y="108.26972633814873"/>
      <point x="220.13005938572644" y="42.0289525776953" type="curve" smooth="yes"/>
      <point x="227.56094465185964" y="-22.945493378646027"/>
      <point x="274.3547767722422" y="-56.12930065361707"/>
      <point x="312.53550222680025" y="-55.965309256821016" type="curve" smooth="yes"/>
      <point x="850.8093097047241" y="-28.10092567779465"/>
      <point x="1057.7210080148516" y="343.7622711399379"/>
      <point x="1059.0" y="675.0" type="curve" smooth="yes"/>
      <point x="1058.8218724182514" y="822.4757655449587"/>
      <point x="1030.6790037638261" y="940.3466886464142"/>
      <point x="978.3684826305467" y="1031.1316148678188" type="curve" smooth="yes"/>
      <point x="896.4332680439154" y="1168.6349740974495"/>
      <point x="751.9300660475725" y="1242.0622753675716"/>
      <point x="602.0" y="1243.0" type="curve" smooth="yes"/>
      <point x="342.72184043724934" y="1240.7056272253308"/>
      <point x="162.75769401694888" y="1064.4133633687234"/>
    </contour>
    <contour>
      <point x="822.0" y="819.0" type="curve" smooth="yes"/>
      <point x="825.504849076854" y="707.0348185946673"/>
      <point x="738.869552882713" y="636.1265178158056"/>
      <point x="602.0" y="638.0" type="curve" smooth="yes"/>
      <point x="456.4673632092696" y="636.0078050016975"/>
      <point x="379.32790566779573" y="708.212203694679"/>
      <point x="382.0" y="834.0" type="curve" smooth="yes"/>
      <point x="379.0639469419327" y="957.1785962945586"/>
      <point x="460.35547394812465" y="1028.9523290797372"/>
      <point x="602.0" y="1027.0" type="curve" smooth="yes"/>
      <point x="743.4370804741335" y="1029.4061231725734"/>
      <point x="824.5771038652786" y="947.0153321757349"/>
    </contour>
  </outline>
</glyph>
<glyph name="less" format="2">
  <advance width="1228"/>
  <unicode hex="003C"/>
  <outline>
    <contour>
      <point x="374.0" y="583.0" type="line"/>
      <point x="1026.6877200815754" y="874.3361633384652" type="line" smooth="yes"/>
      <point x="1077.3172389809013" y="900.2551749590436"/>
      <point x="1097.5004726935879" y="959.8067486002219"/>
      <point x="1071.4105244939972" y="1015.2052622469986" type="curve" smooth="yes"/>
      <point x="1044.5329906736556" y="1066.4514228337318"/>
      <point x="987.0963611942212" y="1091.8757860674195"/>
      <point x="934.0340646059501" y="1068.5290153424758" type="curve" smooth="yes"/>
      <point x="157.0215338435948" y="687.5228693212389" type="line" smooth="yes"/>
      <point x="120.07192725802344" y="668.54762996685"/>
      <point x="92.08300500520556" y="631.5130159469296"/>
      <point x="91.0" y="583.0" type="curve" smooth="yes"/>
      <point x="92.08300500520556" y="534.4869840530704"/>
      <point x="120.07192725802344" y="497.45237003315003"/>
      <point x="157.0215338435948" y="478.47713067876117" type="curve" smooth="yes"/>
      <point x="934.0340646059501" y="97.47098465752417" type="line" smooth="yes"/>
      <point x="987.0963611942212" y="74.12421393258046"/>
      <point x="1044.5329906736556" y="99.54857716626826"/>
      <point x="1071.4105244939972" y="150.79473775300144" type="curve" smooth="yes"/>
      <point x="1097.5004726935879" y="206.19325139977812"/>
      <point x="1077.3172389809013" y="265.74482504095636"/>
      <point x="1026.6877200815754" y="291.6638366615348" type="curve" smooth="yes"/>
    </contour>
  </outline>
</glyph>
<glyph name="greater" format="2">
  <advance width="1228"/>
  <unicode hex="003E"/>
  <outline>
    <contour>
      <point x="854.0" y="583.0" type="line"/>
      <point x="201.3122799184245" y="291.6638366615348" type="line" smooth="yes"/>
      <point x="150.6827610190988" y="265.74482504095636"/>
      <point x="130.4995273064122" y="206.19325139977812"/>
      <point x="156.58947550600286" y="150.79473775300144" type="curve" smooth="yes"/>
      <point x="183.46700932634428" y="99.54857716626826"/>
      <point x="240.90363880577883" y="74.12421393258046"/>
      <point x="293.9659353940499" y="97.47098465752417" type="curve" smooth="yes"/>
      <point x="1070.9784661564051" y="478.47713067876117" type="line" smooth="yes"/>
      <point x="1107.9280727419766" y="497.45237003315003"/>
      <point x="1135.9169949947945" y="534.4869840530704"/>
      <point x="1137.0" y="583.0" type="curve" smooth="yes"/>
      <point x="1135.9169949947945" y="631.5130159469296"/>
      <point x="1107.9280727419766" y="668.54762996685"/>
      <point x="1070.9784661564051" y="687.5228693212389" type="curve" smooth="yes"/>
      <point x="293.9659353940499" y="1068.5290153424758" type="line" smooth="yes"/>
      <point x="240.90363880577883" y="1091.8757860674195"/>
      <point x="183.46700932634428" y="1066.4514228337318"/>
      <point x="156.58947550600286" y="1015.2052622469986" type="curve" smooth="yes"/>
      <point x="130.4995273064122" y="959.8067486002219"/>
      <point x="150.6827610190988" y="900.2551749590436"/>
      <point x="201.3122799184245" y="874.3361633384652" type="curve" smooth="yes"/>
    </contour>
  </outline>
</glyph>
<glyph name="question" format="2">
  <advance width="1228"/>
  <unicode hex="003F"/>
  <outline>
    <contour>
      <point x="283.8277874049631" y="1220.9075164428766" type="curve" smooth="yes"/>
      <point x="239.71305970189184" y="1195.7733407426683"/>
      <point x="216.31691944525994" y="1139.3685764237232"/>
      <point x="242.96707934913772" y="1077.1090736134236" type="curve" smooth="yes"/>
      <point x="273.1840976395986" y="1014.7347409912891"/>
      <point x="336.11879612267114" y="1004.9835624344706"/>
      <point x="373.83537871630915" y="1023.9127804390126" type="curve" smooth="yes"/>
      <point x="454.46671449579105" y="1066.3680378465003"/>
      <point x="532.3812445905496" y="1087.2834655422926"/>
      <point x="619.0" y="1087.0" type="curve" smooth="yes"/>
      <point x="732.701499967781" y="1088.9321984379667"/>
      <point x="780.5648917057625" y="1040.0449250666172"/>
      <point x="778.0" y="956.0" type="curve" smooth="yes"/>
      <point x="780.879288897626" y="869.6931128850446"/>
      <point x="730.4627070719425" y="836.242230877826"/>
      <point x="581.1764319290639" y="775.488983818632" type="curve" smooth="yes"/>
      <point x="512.31362275514" y="747.5445055818141" type="line" smooth="yes"/>
      <point x="480.6564166595474" y="733.4660433421612"/>
      <point x="460.4626065897071" y="696.5895655683821"/>
      <point x="461.032603319342" y="663.5113889900907" type="curve" smooth="yes"/>
      <point x="471.0372920714255" y="438.40799806584806" type="line" smooth="yes"/>
      <point x="476.9512108441999" y="393.0918175057529"/>
      <point x="522.2747921027932" y="356.42055354435706"/>
      <point x="574.0" y="355.0" type="curve" smooth="yes"/>
      <point x="625.7252078972068" y="356.42055354435706"/>
      <point x="671.0487891558001" y="393.0918175057529"/>
      <point x="676.9401642086152" y="437.98375262127036" type="curve" smooth="yes"/>
      <point x="678.9435528515974" y="589.0242846433529" type="line"/>
      <point x="875.1535830048547" y="665.0824172750325"/>
      <point x="997.4589878261103" y="767.1030203164988"/>
      <point x="1000.0" y="956.0" type="curve" smooth="yes"/>
      <point x="997.4701978495307" y="1153.8696016764854"/>
      <point x="849.7369833762095" y="1300.9099235540698"/>
      <point x="618.0" y="1303.0" type="curve" smooth="yes"/>
      <point x="499.16107060649426" y="1302.7825786628505"/>
      <point x="385.8051886107353" y="1275.7377783592403"/>
    </contour>
    <contour>
      <point x="425.0" y="167.0" type="curve" smooth="yes"/>
      <point x="425.0" y="53.0" type="line" smooth="yes"/>
      <point x="429.07924612923125" y="-8.147708438192648"/>
      <point x="487.7422758023056" y="-43.59101570749206"/>
      <point x="574.0" y="-44.0" type="curve" smooth="yes"/>
      <point x="660.2577241976944" y="-43.59101570749206"/>
      <point x="718.9207538707687" y="-8.147708438192648"/>
      <point x="723.0" y="53.0" type="curve" smooth="yes"/>
      <point x="723.0" y="167.0" type="line" smooth="yes"/>
      <point x="718.9207538707687" y="228.14770843819264"/>
      <point x="660.2577241976944" y="263.59101570749203"/>
      <point x="574.0" y="264.0" type="curve" smooth="yes"/>
      <point x="487.7422758023056" y="263.59101570749203"/>
      <point x="429.07924612923125" y="228.14770843819264"/>
    </contour>
  </outline>
</glyph>
<glyph name="at" format="2">
  <advance width="1228"/>
  <unicode hex="0040"/>
  <outline>
    <contour>
      <point x="16.0" y="389.0" type="curve" smooth="yes"/>
      <point x="17.951449747346174" y="42.647008028580196"/>
      <point x="229.25604214407664" y="-184.52128706392634"/>
      <point x="562.0" y="-187.0" type="curve" smooth="yes"/>
      <point x="675.2900431180622" y="-186.84044350006795"/>
      <point x="787.6337687945917" y="-164.6066020740026"/>
      <point x="861.6816494483068" y="-132.12575249489797" type="curve" smooth="yes"/>
      <point x="892.6307512928141" y="-116.4456047856698"/>
      <point x="911.9783370478167" y="-70.78648796257798"/>
      <point x="899.5159534157456" y="-26.06456978963331" type="curve" smooth="yes"/>
      <point x="885.4110604349013" y="17.05841505224276"/>
      <point x="843.7220797383287" y="47.51503846735385"/>
      <point x="804.8997372103677" y="39.46513039524667" type="curve" smooth="yes"/>
      <point x="740.2939462407574" y="19.115203992421094"/>
      <point x="653.1168057663828" y="3.877532245003266"/>
      <point x="560.0" y="4.0" type="curve" smooth="yes"/>
      <point x="324.19755759773795" y="1.33407846824905"/>
      <point x="205.2935614185363" y="143.63606557460147"/>
      <point x="207.0" y="389.0" type="curve" smooth="yes"/>
      <point x="204.96779184401746" y="698.4215594911244"/>
      <point x="393.4061525927165" y="924.6907528584107"/>
      <point x="655.0" y="921.0" type="curve" smooth="yes"/>
      <point x="885.002386757509" y="923.5824563341017"/>
      <point x="1016.9705334185767" y="780.5932795901064"/>
      <point x="1015.0" y="531.0" type="curve" smooth="yes"/>
      <point x="1015.82133322867" y="379.4280597249246"/>
      <point x="969.9388970899947" y="291.15447310560415"/>
      <point x="888.0" y="297.0" type="curve" smooth="yes"/>
      <point x="845.7293003214352" y="292.0115823441666"/>
      <point x="831.9454061567637" y="319.9259804911639"/>
      <point x="852.9445008359997" y="395.59405777638153" type="curve" smooth="yes"/>
      <point x="929.9484142280766" y="697.6094100412972" type="line" smooth="yes"/>
      <point x="933.5091351195957" y="738.7739736971334"/>
      <point x="899.2967966123058" y="772.2715019592868"/>
      <point x="869.9381970140054" y="783.8351920373475" type="curve" smooth="yes"/>
      <point x="840.4208113841042" y="794.388219197342"/>
      <point x="794.1616579934766" y="793.872459248332"/>
      <point x="768.5106949666613" y="763.0466700164529" type="curve" smooth="yes"/>
      <point x="765.5776003004111" y="718.913595794245" type="line"/>
      <point x="771.6372276224914" y="762.3278256783944"/>
      <point x="716.5743872861646" y="816.5893144018281"/>
      <point x="640.0" y="819.0" type="curve" smooth="yes"/>
      <point x="438.997792507644" y="811.7377501007102"/>
      <point x="290.6184575767155" y="546.3651198878271"/>
      <point x="289.0" y="357.0" type="curve" smooth="yes"/>
      <point x="290.8755692510467" y="202.8635306736962"/>
      <point x="386.64106947082604" y="101.18083203494365"/>
      <point x="499.0" y="98.0" type="curve" smooth="yes"/>
      <point x="600.8437485297954" y="100.1295494107321"/>
      <point x="672.422381376605" y="164.42340758346273"/>
      <point x="706.1548968317474" y="232.0501017041508" type="curve"/>
      <point x="711.5214074909752" y="161.9768395670672"/>
      <point x="792.2301718907443" y="104.43390630248085"/>
      <point x="889.0" y="103.0" type="curve" smooth="yes"/>
      <point x="1073.743824902863" y="107.40871196412255"/>
      <point x="1202.6824071013211" y="286.6266192831236"/>
      <point x="1204.0" y="531.0" type="curve" smooth="yes"/>
      <point x="1201.932473474321" y="863.6754930436274"/>
      <point x="983.7747685145106" y="1109.0846546123912"/>
      <point x="660.0" y="1112.0" type="curve" smooth="yes"/>
      <point x="294.11630940694624" y="1108.5691961675516"/>
      <point x="18.17430935265404" y="792.9635034508891"/>
    </contour>
    <contour>
      <point x="678.0" y="561.0" type="curve" smooth="yes"/>
      <point x="679.3291635494795" y="439.4136308416754"/>
      <point x="604.649462432349" y="291.6213479434049"/>
      <point x="524.0" y="300.0" type="curve" smooth="yes"/>
      <point x="499.27869479310976" y="297.2997805837587"/>
      <point x="490.55644292673196" y="303.8019398058978"/>
      <point x="492.0" y="359.0" type="curve" smooth="yes"/>
      <point x="490.0794580636528" y="496.7346384726303"/>
      <point x="584.9096098884227" y="632.0005962657384"/>
      <point x="636.0" y="624.0" type="curve" smooth="yes"/>
      <point x="668.7777953844004" y="627.1174985489838"/>
      <point x="679.4246779024966" y="613.2609861770351"/>
    </contour>
  </outline>
</glyph>
<glyph name="B" format="2">
  <advance width="1228"/>
  <unicode hex="0042"/>
  <outline>
    <contour>
      <point x="268.0" y="1221.0" type="line" smooth="yes"/>
      <point x="213.65948165148916" y="1219.691814219788"/>
      <point x="172.1320222527086" y="1177.7003470507536"/>
      <point x="171.0" y="1119.0" type="curve" smooth="yes"/>
      <point x="171.0" y="68.0" type="line" smooth="yes"/>
      <point x="172.1320222527086" y="9.299652949246394"/>
      <point x="213.65948165148916" y="-32.691814219787986"/>
      <point x="268.0" y="-34.0" type="curve" smooth="yes"/>
      <point x="690.0" y="-34.0" type="line" smooth="yes"/>
      <point x="946.6001942085086" y="-32.30535377831204"/>
      <point x="1105.4506738248674" y="113.0827589647866"/>
      <point x="1108.0" y="336.0" type="curve" smooth="yes"/>
      <point x="1106.4906265599145" y="490.01794318930695"/>
      <point x="1019.7751776706282" y="603.6575911477318"/>
      <point x="904.9747534352906" y="637.020151554921" type="curve"/>
      <point x="980.3884256388783" y="646.3224485385065"/>
      <point x="1040.801969922083" y="741.0540082030683"/>
      <point x="1042.0" y="858.0" type="curve" smooth="yes"/>
      <point x="1039.7832832571185" y="1063.0757155232213"/>
      <point x="894.8998327241153" y="1218.8495522910146"/>
      <point x="644.0" y="1221.0" type="curve" smooth="yes"/>
    </contour>
    <contour>
      <point x="886.0" y="336.0" type="curve" smooth="yes"/>
      <point x="889.5262536145123" y="222.07815576365277"/>
      <point x="816.6917435386905" y="176.969271671863"/>
      <point x="670.0" y="178.0" type="curve" smooth="yes"/>
      <point x="381.36910812618055" y="165.46322754456557" type="line"/>
      <point x="381.5361549607732" y="509.74364848103437" type="line"/>
      <point x="665.0" y="497.0" type="line" smooth="yes"/>
      <point x="823.7233634467638" y="498.02277623319947"/>
      <point x="889.0095547057707" y="453.01456827747603"/>
    </contour>
    <contour>
      <point x="820.0" y="858.0" type="curve" smooth="yes"/>
      <point x="822.6001765730425" y="755.0403638275889"/>
      <point x="768.5665396742396" y="707.6651163518868"/>
      <point x="622.0" y="709.0" type="curve" smooth="yes"/>
      <point x="382.51964585656236" y="694.9666995752776" type="line"/>
      <point x="382.51964585656236" y="1023.0333004247224" type="line"/>
      <point x="622.0" y="1009.0" type="line" smooth="yes"/>
      <point x="769.9584140637223" y="1010.2242509809935"/>
      <point x="822.4908648804043" y="966.2260263028666"/>
    </contour>
  </outline>
</glyph>
<glyph name="C" format="2">
  <advance width="1228"/>
  <unicode hex="0043"/>
  <outline>
    <contour>
      <point x="116.0" y="594.0" type="curve" smooth="yes"/>
      <point x="117.73953460416038" y="213.26396849651442"/>
      <point x="340.3220685589283" y="-52.6685234175237"/>
      <point x="664.0" y="-56.0" type="curve" smooth="yes"/>
      <point x="801.2830662594909" y="-55.729146793490216"/>
      <point x="929.1881002912547" y="-21.338060098031065"/>
      <point x="1053.888706672988" y="49.491160868075966" type="curve" smooth="yes"/>
      <point x="1100.646360460659" y="78.67816774720428"/>
      <point x="1117.5150384673539" y="138.72207973832872"/>
      <point x="1091.8794737845876" y="197.22877713603546" type="curve" smooth="yes"/>
      <point x="1059.1999471503618" y="260.7519386944196"/>
      <point x="993.182778952305" y="265.5518382107784"/>
      <point x="956.6095487678988" y="245.21595806993002" type="curve" smooth="yes"/>
      <point x="862.9893693384206" y="188.97906112949215"/>
      <point x="769.9487057628628" y="159.62267726594456"/>
      <point x="664.0" y="160.0" type="curve" smooth="yes"/>
      <point x="462.2052622469986" y="156.41052449399714"/>
      <point x="336.5159534157455" y="315.9354302103667"/>
      <point x="338.0" y="594.0" type="curve" smooth="yes"/>
      <point x="336.5100030913604" y="872.0451168264143"/>
      <point x="462.1375706725708" y="1030.5557237870084"/>
      <point x="664.0" y="1027.0" type="curve" smooth="yes"/>
      <point x="769.9487057628628" y="1027.3773227340555"/>
      <point x="862.9893693384206" y="998.0209388705078"/>
      <point x="956.6095487678988" y="941.78404193007" type="curve" smooth="yes"/>
      <point x="993.182778952305" y="921.4481617892216"/>
      <point x="1059.1999471503618" y="926.2480613055803"/>
      <point x="1091.8794737845876" y="989.7712228639646" type="curve" smooth="yes"/>
      <point x="1117.5150384673539" y="1048.2779202616714"/>
      <point x="1100.646360460659" y="1108.3218322527957"/>
      <point x="1053.888706672988" y="1137.508839131924" type="curve" smooth="yes"/>
      <point x="929.1881002912547" y="1208.338060098031"/>
      <point x="801.2830662594909" y="1242.7291467934901"/>
      <point x="664.0" y="1243.0" type="curve" smooth="yes"/>
      <point x="340.3706701904979" y="1239.691736824833"/>
      <point x="117.74476786628253" y="974.7517440445724"/>
    </contour>
  </outline>
</glyph>
<glyph name="E" format="2">
  <advance width="1228"/>
  <unicode hex="0045"/>
  <outline>
    <contour>
      <point x="288.0" y="1221.0" type="line" smooth="yes"/>
      <point x="233.65948165148916" y="1219.691814219788"/>
      <point x="192.1320222527086" y="1177.7003470507536"/>
      <point x="191.0" y="1119.0" type="curve" smooth="yes"/>
      <point x="191.0" y="68.0" type="line" smooth="yes"/>
      <point x="192.1320222527086" y="9.299652949246394"/>
      <point x="233.65948165148916" y="-32.691814219787986"/>
      <point x="288.0" y="-34.0" type="curve" smooth="yes"/>
      <point x="408.9090420831276" y="-2.485329958914998" type="line"/>
      <point x="408.9090420831276" y="1189.485329958915" type="line"/>
    </contour>
    <contour>
      <point x="321.62436443416567" y="177.1903600462544" type="line"/>
      <point x="321.62436443416567" y="-33.1903600462544" type="line"/>
      <point x="977.0" y="-34.0" type="line" smooth="yes"/>
      <point x="1032.2876905025125" y="-32.40622508291445"/>
      <point x="1072.9848450049412" y="11.753788748764679"/>
      <point x="1074.0" y="72.0" type="curve" smooth="yes"/>
      <point x="1072.9848450049412" y="132.2462112512353"/>
      <point x="1032.2876905025125" y="176.40622508291446"/>
      <point x="977.0" y="178.0" type="curve" smooth="yes"/>
    </contour>
    <contour>
      <point x="319.64231737871916" y="716.6869052673908" type="line"/>
      <point x="319.64231737871916" y="507.3130947326092" type="line"/>
      <point x="832.0" y="506.0" type="line" smooth="yes"/>
      <point x="887.2876905025125" y="507.59377491708557"/>
      <point x="927.9848450049412" y="551.7537887487647"/>
      <point x="929.0" y="612.0" type="curve" smooth="yes"/>
      <point x="927.9848450049412" y="672.2462112512353"/>
      <point x="887.2876905025125" y="716.4062250829145"/>
      <point x="832.0" y="718.0" type="curve" smooth="yes"/>
    </contour>
    <contour>
      <point x="321.40103261876135" y="1220.1399410792908" type="line"/>
      <point x="321.40103261876135" y="1009.8600589207091" type="line"/>
      <point x="957.0" y="1009.0" type="line" smooth="yes"/>
      <point x="1012.2876905025125" y="1010.5937749170855"/>
      <point x="1052.9848450049412" y="1054.7537887487647"/>
      <point x="1054.0" y="1115.0" type="curve" smooth="yes"/>
      <point x="1052.9848450049412" y="1175.2462112512353"/>
      <point x="1012.2876905025125" y="1219.4062250829145"/>
      <point x="957.0" y="1221.0" type="curve" smooth="yes"/>
    </contour>
  </outline>
</glyph>
<glyph name="F" format="2">
  <advance width="1228"/>
  <unicode hex="0046"/>
  <outline>
    <contour>
      <point x="308.0" y="1221.0" type="line" smooth="yes"/>
      <point x="256.65948165148916" y="1219.691814219788"/>
      <point x="212.5138604998243" y="1179.0324842574073"/>
      <point x="211.0" y="1119.0" type="curve" smooth="yes"/>
      <point x="211.0" y="55.0" type="line" smooth="yes"/>
      <point x="212.23317925618193" y="-0.07388882136500641"/>
      <point x="254.5445315899164" y="-42.931824334009775"/>
      <point x="319.0" y="-44.0" type="curve"/>
      <point x="321.0" y="-44.0" type="line"/>
      <point x="385.4554684100836" y="-42.931824334009775"/>
      <point x="427.7668207438181" y="-0.07388882136500641"/>
      <point x="429.0" y="55.0" type="curve" smooth="yes"/>
      <point x="428.90002858865364" y="1189.605390889764" type="line"/>
    </contour>
    <contour>
      <point x="334.8935855921897" y="676.7577962725398" type="line"/>
      <point x="334.8935855921897" y="467.24220372746015" type="line"/>
      <point x="862.0" y="466.0" type="line" smooth="yes"/>
      <point x="917.2876905025125" y="467.59377491708557"/>
      <point x="957.9848450049412" y="511.7537887487647"/>
      <point x="959.0" y="572.0" type="curve" smooth="yes"/>
      <point x="957.9848450049412" y="632.2462112512353"/>
      <point x="917.2876905025125" y="676.4062250829145"/>
      <point x="862.0" y="678.0" type="curve" smooth="yes"/>
    </contour>
    <contour>
      <point x="336.45809146104" y="1220.1529729525116" type="line"/>
      <point x="336.45809146104" y="1009.8470270474885" type="line"/>
      <point x="977.0" y="1009.0" type="line" smooth="yes"/>
      <point x="1032.2876905025125" y="1010.5937749170855"/>
      <point x="1072.9848450049412" y="1054.7537887487647"/>
      <point x="1074.0" y="1115.0" type="curve" smooth="yes"/>
      <point x="1072.9848450049412" y="1175.2462112512353"/>
      <point x="1032.2876905025125" y="1219.4062250829145"/>
      <point x="977.0" y="1221.0" type="curve" smooth="yes"/>
    </contour>
  </outline>
</glyph>
<glyph name="G" format="2">
  <advance width="1228"/>
  <unicode hex="0047"/>
  <outline>
    <contour>
      <point x="76.0" y="594.0" type="curve" smooth="yes"/>
      <point x="77.80272418928719" y="213.07592427850815"/>
      <point x="304.55119285598704" y="-52.77713391651537"/>
      <point x="634.0" y="-56.0" type="curve" smooth="yes"/>
      <point x="791.6812022163689" y="-55.800129441204824"/>
      <point x="948.8167056943928" y="-20.880487237997237"/>
      <point x="1063.8687239041324" y="44.47973316776839" type="curve" smooth="yes"/>
      <point x="1094.3686816509096" y="63.28993136668258"/>
      <point x="1116.119304808274" y="103.31158995522212"/>
      <point x="1117.0" y="143.0" type="curve" smooth="yes"/>
      <point x="1117.0" y="526.0" type="line" smooth="yes"/>
      <point x="1115.8679777472914" y="584.7003470507536"/>
      <point x="1074.3405183485108" y="626.691814219788"/>
      <point x="1020.0" y="628.0" type="curve" smooth="yes"/>
      <point x="666.0" y="628.0" type="line" smooth="yes"/>
      <point x="610.7123094974875" y="626.4062250829145"/>
      <point x="570.0151549950588" y="582.2462112512353"/>
      <point x="569.0" y="522.0" type="curve" smooth="yes"/>
      <point x="570.0151549950588" y="461.7537887487647"/>
      <point x="610.7123094974875" y="417.59377491708557"/>
      <point x="666.0" y="416.0" type="curve" smooth="yes"/>
      <point x="908.9437974775016" y="425.97295023943764" type="line"/>
      <point x="900.2866843407761" y="191.9409733841931" type="line"/>
      <point x="836.0329302980382" y="175.1426206401247"/>
      <point x="744.3778382223343" y="159.8959498573339"/>
      <point x="634.0" y="160.0" type="curve" smooth="yes"/>
      <point x="426.8738344408764" y="156.57399301735705"/>
      <point x="296.4176203912971" y="316.2517261066495"/>
      <point x="298.0" y="594.0" type="curve" smooth="yes"/>
      <point x="296.1008170892616" y="870.7956462836196"/>
      <point x="441.48879250005996" y="1030.2416695529455"/>
      <point x="644.0" y="1027.0" type="curve" smooth="yes"/>
      <point x="751.0365960736846" y="1027.2317985477926"/>
      <point x="844.2369994975322" y="1004.4864185124253"/>
      <point x="938.1561307726366" y="950.4655443684587" type="curve" smooth="yes"/>
      <point x="975.7946503847784" y="930.2698680347675"/>
      <point x="1041.9147075757553" y="936.8819551573451"/>
      <point x="1073.2666108901556" y="1001.643389522652" type="curve" smooth="yes"/>
      <point x="1096.6416761805594" y="1060.0768278760156"/>
      <point x="1079.2009486998522" y="1119.8235007093"/>
      <point x="1031.163693099638" y="1147.9121217131235" type="curve" smooth="yes"/>
      <point x="905.1426738530641" y="1215.757762384937"/>
      <point x="780.396577973236" y="1242.8299166134316"/>
      <point x="644.0" y="1243.0" type="curve" smooth="yes"/>
      <point x="320.82178492281787" y="1239.902721841695"/>
      <point x="78.06982302790908" y="975.6817720629601"/>
    </contour>
  </outline>
</glyph>
<glyph name="H" format="2">
  <advance width="1228"/>
  <unicode hex="0048"/>
  <outline>
    <contour>
      <point x="977.0" y="1231.0" type="line"/>
      <point x="912.5445315899165" y="1229.93182433401"/>
      <point x="870.2331792561819" y="1187.073888821365"/>
      <point x="869.0" y="1132.0" type="curve" smooth="yes"/>
      <point x="869.0" y="55.0" type="line" smooth="yes"/>
      <point x="870.2331792561819" y="-0.07388882136500641"/>
      <point x="912.5445315899165" y="-42.931824334009775"/>
      <point x="977.0" y="-44.0" type="curve"/>
      <point x="979.0" y="-44.0" type="line"/>
      <point x="1043.4554684100835" y="-42.931824334009775"/>
      <point x="1085.766820743818" y="-0.07388882136500641"/>
      <point x="1087.0" y="55.0" type="curve" smooth="yes"/>
      <point x="1087.0" y="1132.0" type="line" smooth="yes"/>
      <point x="1085.766820743818" y="1187.073888821365"/>
      <point x="1043.4554684100835" y="1229.93182433401"/>
      <point x="979.0" y="1231.0" type="curve"/>
    </contour>
    <contour>
      <point x="249.0" y="1231.0" type="line"/>
      <point x="184.5445315899164" y="1229.93182433401"/>
      <point x="142.23317925618193" y="1187.073888821365"/>
      <point x="141.0" y="1132.0" type="curve" smooth="yes"/>
      <point x="141.0" y="55.0" type="line" smooth="yes"/>
      <point x="142.23317925618193" y="-0.07388882136500641"/>
      <point x="184.5445315899164" y="-42.931824334009775"/>
      <point x="249.0" y="-44.0" type="curve"/>
      <point x="251.0" y="-44.0" type="line"/>
      <point x="315.4554684100836" y="-42.931824334009775"/>
      <point x="357.7668207438181" y="-0.07388882136500641"/>
      <point x="359.0" y="55.0" type="curve" smooth="yes"/>
      <point x="359.0" y="1132.0" type="line" smooth="yes"/>
      <point x="357.7668207438181" y="1187.073888821365"/>
      <point x="315.4554684100836" y="1229.93182433401"/>
      <point x="251.0" y="1231.0" type="curve"/>
    </contour>
    <contour>
      <point x="252.24182239749445" y="717.321570123465" type="line"/>
      <point x="252.24182239749445" y="506.67842987653506" type="line"/>
      <point x="975.7581776025056" y="506.67842987653506" type="line"/>
      <point x="975.7581776025056" y="717.321570123465" type="line"/>
    </contour>
  </outline>
</glyph>
<glyph name="J" format="2">
  <advance width="1228"/>
  <unicode hex="004A"/>
  <outline>
    <contour>
      <point x="443.0" y="1221.0" type="line" smooth="yes"/>
      <point x="387.71230949748747" y="1219.4062250829145"/>
      <point x="347.0151549950587" y="1175.2462112512353"/>
      <point x="346.0" y="1115.0" type="curve" smooth="yes"/>
      <point x="347.0151549950587" y="1054.7537887487647"/>
      <point x="387.71230949748747" y="1010.5937749170855"/>
      <point x="443.0" y="1009.0" type="curve" smooth="yes"/>
      <point x="773.9694924383239" y="1027.0573334856394" type="line"/>
      <point x="770.0" y="363.0" type="line" smooth="yes"/>
      <point x="771.3925483642737" y="219.63089288818918"/>
      <point x="721.9676686878597" y="157.79973275351364"/>
      <point x="582.0" y="160.0" type="curve" smooth="yes"/>
      <point x="483.56303107947707" y="159.5418050380234"/>
      <point x="392.72724422763065" y="190.14388476962546"/>
      <point x="314.43986072547347" y="249.17005876922696" type="curve" smooth="yes"/>
      <point x="280.6272829960395" y="273.5682074900988"/>
      <point x="214.84654796218865" y="274.0917296554566"/>
      <point x="173.3901510255669" y="215.370534604636" type="curve" smooth="yes"/>
      <point x="140.3553757583898" y="160.5041311083169"/>
      <point x="151.07958118322182" y="98.59767505952703"/>
      <point x="193.7286794139194" y="64.70396435933701" type="curve" smooth="yes"/>
      <point x="300.16031344553943" y="-13.590581932440621"/>
      <point x="444.06776835750867" y="-55.640349151351074"/>
      <point x="581.0" y="-56.0" type="curve" smooth="yes"/>
      <point x="827.8811953796404" y="-54.21179267147504"/>
      <point x="985.7199129769133" y="91.75879414693767"/>
      <point x="988.0" y="333.0" type="curve" smooth="yes"/>
      <point x="988.0" y="1119.0" type="line" smooth="yes"/>
      <point x="986.4861395001757" y="1179.0324842574073"/>
      <point x="942.3405183485108" y="1219.691814219788"/>
      <point x="891.0" y="1221.0" type="curve" smooth="yes"/>
    </contour>
  </outline>
</glyph>
<glyph name="K" format="2">
  <advance width="1228"/>
  <unicode hex="004B"/>
  <outline>
    <contour>
      <point x="212.08037698187493" y="470.40347006403186" type="line"/>
      <point x="376.0912952941308" y="328.3324680029108" type="line"/>
      <point x="1077.704243453398" y="1070.639769791476" type="line" smooth="yes"/>
      <point x="1115.6054145481276" y="1112.1909284444544"/>
      <point x="1109.3340923379458" y="1177.5061754093224"/>
      <point x="1054.6328927485697" y="1215.4396784057117" type="curve" smooth="yes"/>
      <point x="1007.9834696583126" y="1244.8181780582784"/>
      <point x="947.2953419286137" y="1247.9217947401446"/>
      <point x="911.2250431335883" y="1214.2852208979739" type="curve" smooth="yes"/>
    </contour>
    <contour>
      <point x="289.0" y="1231.0" type="line"/>
      <point x="224.5445315899164" y="1229.93182433401"/>
      <point x="182.23317925618193" y="1187.073888821365"/>
      <point x="181.0" y="1132.0" type="curve" smooth="yes"/>
      <point x="181.0" y="55.0" type="line" smooth="yes"/>
      <point x="182.23317925618193" y="-0.07388882136500641"/>
      <point x="224.5445315899164" y="-42.931824334009775"/>
      <point x="289.0" y="-44.0" type="curve"/>
      <point x="291.0" y="-44.0" type="line"/>
      <point x="355.4554684100836" y="-42.931824334009775"/>
      <point x="397.7668207438181" y="-0.07388882136500641"/>
      <point x="399.0" y="55.0" type="curve" smooth="yes"/>
      <point x="399.0" y="1132.0" type="line" smooth="yes"/>
      <point x="397.7668207438181" y="1187.073888821365"/>
      <point x="355.4554684100836" y="1229.93182433401"/>
      <point x="291.0" y="1231.0" type="curve"/>
    </contour>
    <contour>
      <point x="456.42270485162436" y="603.1329551891062" type="line"/>
      <point x="925.9466584644964" y="-14.59409409911975" type="line" smooth="yes"/>
      <point x="961.3055558454406" y="-56.61917511292805"/>
      <point x="1019.6539134469987" y="-56.940355373255684"/>
      <point x="1068.834506035872" y="-29.539793610114984" type="curve" smooth="yes"/>
      <point x="1125.2611749925304" y="4.179937280061136"/>
      <point x="1137.9965403535225" y="66.49875668954715"/>
      <point x="1105.0369184814438" y="112.61565034210088" type="curve" smooth="yes"/>
      <point x="640.6043701836016" y="720.3976858907007" type="line"/>
    </contour>
  </outline>
</glyph>
<glyph name="L" format="2">
  <advance width="1228"/>
  <unicode hex="004C"/>
  <outline>
    <contour>
      <point x="319.0" y="1231.0" type="line" smooth="yes"/>
      <point x="254.5445315899164" y="1229.93182433401"/>
      <point x="212.23317925618193" y="1187.073888821365"/>
      <point x="211.0" y="1132.0" type="curve" smooth="yes"/>
      <point x="211.0" y="68.0" type="line" smooth="yes"/>
      <point x="212.0151549950587" y="9.753788748764679"/>
      <point x="252.65948165148916" y="-32.691814219787986"/>
      <point x="308.0" y="-34.0" type="curve" smooth="yes"/>
      <point x="977.0" y="-34.0" type="line" smooth="yes"/>
      <point x="1032.2876905025125" y="-32.40622508291445"/>
      <point x="1072.9848450049412" y="11.753788748764679"/>
      <point x="1074.0" y="72.0" type="curve" smooth="yes"/>
      <point x="1072.9848450049412" y="132.2462112512353"/>
      <point x="1032.2876905025125" y="176.40622508291446"/>
      <point x="977.0" y="178.0" type="curve" smooth="yes"/>
      <point x="424.2950864263408" y="161.25682216612384" type="line"/>
      <point x="429.0" y="1132.0" type="line" smooth="yes"/>
      <point x="427.7668207438181" y="1187.073888821365"/>
      <point x="385.4554684100836" y="1229.93182433401"/>
      <point x="321.0" y="1231.0" type="curve" smooth="yes"/>
    </contour>
  </outline>
</glyph>
<glyph name="M" format="2">
  <advance width="1228"/>
  <unicode hex="004D"/>
  <outline>
    <contour>
      <point x="976.0" y="1231.0" type="line" smooth="yes"/>
      <point x="920.3472278244922" y="1229.88053426693"/>
      <point x="873.0507843704436" y="1197.7301658688896"/>
      <point x="848.1705906747577" y="1146.336928564259" type="curve" smooth="yes"/>
      <point x="614.0" y="596.0" type="line"/>
      <point x="379.82940932524224" y="1146.336928564259" type="line" smooth="yes"/>
      <point x="355.1497952002299" y="1197.466768689404"/>
      <point x="308.7605301190513" y="1229.8519879464425"/>
      <point x="253.0" y="1231.0" type="curve" smooth="yes"/>
      <point x="251.0" y="1231.0" type="line" smooth="yes"/>
      <point x="197.33205140530174" y="1230.3397429734912"/>
      <point x="144.95013752475634" y="1195.853015565878"/>
      <point x="141.01285517865819" y="1132.9348726614567" type="curve" smooth="yes"/>
      <point x="111.0129468667663" y="55.93820004196816" type="line" smooth="yes"/>
      <point x="111.10639322884163" y="0.3970566906201185"/>
      <point x="153.5445315899164" y="-42.931824334009775"/>
      <point x="218.0" y="-44.0" type="curve" smooth="yes"/>
      <point x="220.0" y="-44.0" type="line" smooth="yes"/>
      <point x="284.5639946003567" y="-42.90376872768622"/>
      <point x="325.7668207438181" y="-0.07388882136500641"/>
      <point x="327.98885463312797" y="54.129505469233045" type="curve" smooth="yes"/>
      <point x="343.88046808004833" y="850.0579108385531" type="line"/>
      <point x="491.1642552313596" y="407.6767027342421" type="line" smooth="yes"/>
      <point x="516.5958493971863" y="354.87507690105866"/>
      <point x="560.9760908445749" y="324.96037406589653"/>
      <point x="614.0" y="324.0" type="curve" smooth="yes"/>
      <point x="667.0239091554251" y="324.96037406589653"/>
      <point x="711.4041506028137" y="354.87507690105866"/>
      <point x="736.8357447686403" y="407.6767027342421" type="curve" smooth="yes"/>
      <point x="884.1195319199517" y="850.0579108385531" type="line"/>
      <point x="900.011145366872" y="54.129505469233045" type="line" smooth="yes"/>
      <point x="902.2331792561819" y="-0.07388882136500641"/>
      <point x="943.4360053996434" y="-42.90376872768622"/>
      <point x="1008.0" y="-44.0" type="curve" smooth="yes"/>
      <point x="1010.0" y="-44.0" type="line" smooth="yes"/>
      <point x="1074.4554684100835" y="-42.931824334009775"/>
      <point x="1116.8936067711584" y="0.3970566906201185"/>
      <point x="1116.9870531332338" y="55.93820004196816" type="curve" smooth="yes"/>
      <point x="1086.9871448213419" y="1132.9348726614567" type="line" smooth="yes"/>
      <point x="1083.2260289375743" y="1195.4512124654166"/>
      <point x="1031.7545225450388" y="1230.322311222191"/>
      <point x="978.0" y="1231.0" type="curve" smooth="yes"/>
    </contour>
  </outline>
</glyph>
<glyph name="P" format="2">
  <advance width="1228"/>
  <unicode hex="0050"/>
  <outline>
    <contour>
      <point x="298.0" y="1221.0" type="line" smooth="yes"/>
      <point x="243.65948165148916" y="1219.691814219788"/>
      <point x="202.1320222527086" y="1177.7003470507536"/>
      <point x="201.0" y="1119.0" type="curve" smooth="yes"/>
      <point x="201.0" y="55.0" type="line" smooth="yes"/>
      <point x="202.23317925618193" y="-0.07388882136500641"/>
      <point x="244.5445315899164" y="-42.931824334009775"/>
      <point x="309.0" y="-44.0" type="curve" smooth="yes"/>
      <point x="311.0" y="-44.0" type="line" smooth="yes"/>
      <point x="375.4554684100836" y="-42.931824334009775"/>
      <point x="417.7668207438181" y="-0.07388882136500641"/>
      <point x="419.0" y="55.0" type="curve" smooth="yes"/>
      <point x="412.14207332183497" y="372.5229920205091" type="line"/>
      <point x="640.0" y="359.0" type="line" smooth="yes"/>
      <point x="931.8086880980022" y="361.11654213539407"/>
      <point x="1103.7316797067306" y="540.7893283153848"/>
      <point x="1106.0" y="788.0" type="curve" smooth="yes"/>
      <point x="1103.7725829875849" y="1036.1038411381276"/>
      <point x="932.0027303919136" y="1218.8109173577097"/>
      <point x="640.0" y="1221.0" type="curve" smooth="yes"/>
    </contour>
    <contour>
      <point x="415.8599002732724" y="551.2711791777583" type="line"/>
      <point x="415.8599002732724" y="1028.7288208222417" type="line"/>
      <point x="619.0" y="1009.0" type="line" smooth="yes"/>
      <point x="805.8030750009395" y="1010.5651002689459"/>
      <point x="886.4317925099011" y="936.3727170039605"/>
      <point x="884.0" y="788.0" type="curve" smooth="yes"/>
      <point x="886.5015040314606" y="641.8001856127132"/>
      <point x="806.0010811395242" y="569.4964862965463"/>
      <point x="619.0" y="571.0" type="curve" smooth="yes"/>
    </contour>
  </outline>
</glyph>
<glyph name="Q" format="2">
  <advance width="1228"/>
  <unicode hex="0051"/>
  <outline>
    <contour>
      <point x="568.3542469420615" y="281.68550214328525" type="curve" smooth="yes"/>
      <point x="699.3395207147793" y="76.70855590333471" type="line"/>
      <point x="725.4080126980481" y="35.60167773613529" type="line"/>
      <point x="847.4613625585953" y="-153.48096785853085" type="line" smooth="yes"/>
      <point x="878.7900692774105" y="-198.7433287920924"/>
      <point x="937.6189165480139" y="-211.29920450020893"/>
      <point x="992.1557617071913" y="-177.74662270305302" type="curve" smooth="yes"/>
      <point x="1046.8994146872224" y="-142.1520873407505"/>
      <point x="1059.4964862965462" y="-82.00108113952422"/>
      <point x="1030.602032709703" y="-35.61729821617398" type="curve" smooth="yes"/>
      <point x="751.6196696239629" y="399.35523115123357" type="line" smooth="yes"/>
      <point x="720.4951356609528" y="445.4944870824131"/>
      <point x="661.3810834519861" y="458.29920450020893"/>
      <point x="606.4917309148545" y="424.52093924596187" type="curve" smooth="yes"/>
      <point x="553.1005853127778" y="388.15208734075054"/>
      <point x="539.3656288470346" y="329.46072227836396"/>
    </contour>
    <component base="O"/>
  </outline>
</glyph>
<glyph name="R" format="2">
  <advance width="1228"/>
  <unicode hex="0052"/>
  <outline>
    <contour>
      <point x="321.58096146583307" y="1217.3026937858976" type="line"/>
      <point x="320.623494553683" y="1013.2038581462843" type="line"/>
      <point x="599.0" y="1009.0" type="line" smooth="yes"/>
      <point x="777.2834660741278" y="1010.1363112794818"/>
      <point x="846.741553830245" y="955.6242928017792"/>
      <point x="844.0" y="828.0" type="curve" smooth="yes"/>
      <point x="846.8337246701016" y="702.5890868736998"/>
      <point x="777.5041473532598" y="649.9214290061182"/>
      <point x="599.0" y="651.0" type="curve" smooth="yes"/>
      <point x="320.623494553683" y="646.7961418537157" type="line"/>
      <point x="321.58096146583307" y="442.6973062141024" type="line"/>
      <point x="620.0" y="439.0" type="line" smooth="yes"/>
      <point x="900.939089583662" y="440.8078220823658"/>
      <point x="1063.5682074900988" y="600.3727170039605"/>
      <point x="1066.0" y="828.0" type="curve" smooth="yes"/>
      <point x="1063.6165632491857" y="1056.5057158255831"/>
      <point x="901.1485321371822" y="1219.1202464371963"/>
      <point x="620.0" y="1221.0" type="curve" smooth="yes"/>
    </contour>
    <contour>
      <point x="298.0" y="1221.0" type="line" smooth="yes"/>
      <point x="243.65948165148916" y="1219.691814219788"/>
      <point x="202.1320222527086" y="1177.7003470507536"/>
      <point x="201.0" y="1119.0" type="curve" smooth="yes"/>
      <point x="201.0" y="55.0" type="line" smooth="yes"/>
      <point x="202.23317925618193" y="-0.07388882136500641"/>
      <point x="244.5445315899164" y="-42.931824334009775"/>
      <point x="309.0" y="-44.0" type="curve" smooth="yes"/>
      <point x="311.0" y="-44.0" type="line" smooth="yes"/>
      <point x="375.4554684100836" y="-42.931824334009775"/>
      <point x="417.7668207438181" y="-0.07388882136500641"/>
      <point x="419.0" y="55.0" type="curve" smooth="yes"/>
      <point x="418.90002858865364" y="1189.605390889764" type="line"/>
    </contour>
    <contour>
      <point x="533.7096516148355" y="525.354183865729" type="line"/>
      <point x="876.4601245880315" y="-5.479056022137922" type="line" smooth="yes"/>
      <point x="905.968146646719" y="-47.472256027356835"/>
      <point x="961.6527721755078" y="-54.88053426692998"/>
      <point x="1015.9523990291791" y="-31.00533117595362" type="curve" smooth="yes"/>
      <point x="1074.9419560717192" y="-2.972111268565513"/>
      <point x="1092.766820743818" y="58.073888821365"/>
      <point x="1063.4423072876214" y="106.62887962698014" type="curve" smooth="yes"/>
      <point x="747.48490140621" y="586.5857561596262" type="line"/>
    </contour>
  </outline>
</glyph>
<glyph name="S" format="2">
  <advance width="1228"/>
  <unicode hex="0053"/>
  <outline>
    <contour>
      <point x="138.0" y="863.0" type="curve" smooth="yes"/>
      <point x="139.66932745698298" y="713.4772811062822"/>
      <point x="221.36619949868856" y="623.2418682567666"/>
      <point x="321.9810148927309" y="577.0247186201293" type="curve" smooth="yes"/>
      <point x="466.48864777973193" y="512.6293198711262"/>
      <point x="658.2374595798433" y="510.4918945939037"/>
      <point x="773.6842343844282" y="460.715972348958" type="curve" smooth="yes"/>
      <point x="840.5784465671165" y="432.4229748028347"/>
      <point x="876.0679480545768" y="402.32335413936016"/>
      <point x="874.0" y="327.0" type="curve" smooth="yes"/>
      <point x="877.0264654014412" y="223.0228440222331"/>
      <point x="807.5238500525192" y="158.65275765035565"/>
      <point x="622.0" y="160.0" type="curve" smooth="yes"/>
      <point x="496.86409227619225" y="159.49048255514248"/>
      <point x="379.70383645170386" y="201.65611184742033"/>
      <point x="288.3740014897146" y="260.6076225725936" type="curve" smooth="yes"/>
      <point x="251.9620683687232" y="282.5078020453073"/>
      <point x="186.19169826245667" y="277.08443933314004"/>
      <point x="150.83462875802377" y="214.68599304582764" type="curve" smooth="yes"/>
      <point x="122.70792610072974" y="157.90201532058043"/>
      <point x="137.3139859718635" y="95.9320941883133"/>
      <point x="183.0975235989046" y="65.09495997739802" type="curve" smooth="yes"/>
      <point x="305.4944178034028" y="-10.202551971448695"/>
      <point x="464.22278339844" y="-55.66271233192269"/>
      <point x="622.0" y="-56.0" type="curve" smooth="yes"/>
      <point x="926.5089264594769" y="-54.33515833685224"/>
      <point x="1093.3659706677972" y="107.87841914756906"/>
      <point x="1096.0" y="327.0" type="curve" smooth="yes"/>
      <point x="1094.1675806898982" y="514.0112103130805"/>
      <point x="991.2447540557891" y="615.6902239350578"/>
      <point x="868.7083932089481" y="665.5356424073898" type="curve" smooth="yes"/>
      <point x="710.7930004832783" y="728.5028527949597"/>
      <point x="514.8770695591536" y="727.4882076766863"/>
      <point x="418.3626235175598" y="778.3313336115924" type="curve" smooth="yes"/>
      <point x="375.67931348899657" y="798.9882565873345"/>
      <point x="358.39479793990387" y="817.3236169259035"/>
      <point x="360.0" y="863.0" type="curve" smooth="yes"/>
      <point x="356.8340549452256" y="970.673065378986"/>
      <point x="427.81722104769506" y="1028.4481617892216"/>
      <point x="578.0" y="1027.0" type="curve" smooth="yes"/>
      <point x="704.3819073802465" y="1027.3150891265038"/>
      <point x="812.5715202164957" y="995.7641883296749"/>
      <point x="905.6095487678988" y="939.78404193007" type="curve" smooth="yes"/>
      <point x="943.271431197445" y="919.1395056844991"/>
      <point x="1009.4808334785088" y="926.4929004763073"/>
      <point x="1041.8794737845876" y="989.7712228639646" type="curve" smooth="yes"/>
      <point x="1067.4580078709778" y="1047.95337207151"/>
      <point x="1052.080613585182" y="1108.8128768166976"/>
      <point x="1004.888706672988" y="1138.508839131924" type="curve" smooth="yes"/>
      <point x="879.3291223725814" y="1209.6858444975342"/>
      <point x="734.6262564772015" y="1242.8060684487498"/>
      <point x="578.0" y="1243.0" type="curve" smooth="yes"/>
      <point x="327.704253718762" y="1241.403666590563"/>
      <point x="141.34545153268408" y="1094.7070955074405"/>
    </contour>
  </outline>
</glyph>
<glyph name="U" format="2">
  <advance width="1228"/>
  <unicode hex="0055"/>
  <outline>
    <contour>
      <point x="977.0" y="1231.0" type="line" smooth="yes"/>
      <point x="912.5445315899165" y="1229.93182433401"/>
      <point x="870.2331792561819" y="1187.073888821365"/>
      <point x="869.0" y="1132.0" type="curve" smooth="yes"/>
      <point x="869.0" y="433.0" type="line" smooth="yes"/>
      <point x="870.8941695659652" y="236.18997998840953"/>
      <point x="784.9815097219083" y="158.16508778149998"/>
      <point x="614.0" y="160.0" type="curve" smooth="yes"/>
      <point x="443.0184902780917" y="158.16508778149998"/>
      <point x="357.1058304340348" y="236.18997998840953"/>
      <point x="359.0" y="433.0" type="curve" smooth="yes"/>
      <point x="359.0" y="1132.0" type="line" smooth="yes"/>
      <point x="357.7668207438181" y="1187.073888821365"/>
      <point x="315.4554684100836" y="1229.93182433401"/>
      <point x="251.0" y="1231.0" type="curve" smooth="yes"/>
      <point x="249.0" y="1231.0" type="line" smooth="yes"/>
      <point x="184.5445315899164" y="1229.93182433401"/>
      <point x="142.23317925618193" y="1187.073888821365"/>
      <point x="141.0" y="1132.0" type="curve" smooth="yes"/>
      <point x="141.0" y="413.0" type="line" smooth="yes"/>
      <point x="143.55795162280805" y="115.06177779421296"/>
      <point x="343.0067057240075" y="-54.17370791440474"/>
      <point x="614.0" y="-56.0" type="curve" smooth="yes"/>
      <point x="884.9932942759925" y="-54.17370791440474"/>
      <point x="1084.442048377192" y="115.06177779421296"/>
      <point x="1087.0" y="413.0" type="curve" smooth="yes"/>
      <point x="1087.0" y="1132.0" type="line" smooth="yes"/>
      <point x="1085.766820743818" y="1187.073888821365"/>
      <point x="1043.4554684100835" y="1229.93182433401"/>
      <point x="979.0" y="1231.0" type="curve" smooth="yes"/>
    </contour>
  </outline>
</glyph>
<glyph name="V" format="2">
  <advance width="1228"/>
  <unicode hex="0056"/>
  <outline>
    <contour>
      <point x="941.1351744065065" y="1162.8588738882004" type="curve" smooth="yes"/>
      <point x="612.0" y="216.0" type="line"/>
      <point x="282.8648255934935" y="1162.8588738882004" type="line" smooth="yes"/>
      <point x="262.4333358852174" y="1215.0851209159628"/>
      <point x="207.39231903791895" y="1240.8998525070538"/>
      <point x="146.15794769991965" y="1221.2249887807943" type="curve" smooth="yes"/>
      <point x="85.13324205545486" y="1199.9271319102158"/>
      <point x="55.03304001212289" y="1145.5014576475937"/>
      <point x="74.18379756257696" y="1091.0112860380725" type="curve" smooth="yes"/>
      <point x="473.18256071932905" y="31.014568943053494" type="line" smooth="yes"/>
      <point x="496.0507843704436" y="-24.730165868889543"/>
      <point x="548.2600590415263" y="-55.32526362800884"/>
      <point x="612.0" y="-56.0" type="curve" smooth="yes"/>
      <point x="675.7399409584737" y="-55.32526362800884"/>
      <point x="727.9492156295564" y="-24.730165868889543"/>
      <point x="750.8174392806709" y="31.014568943053494" type="curve" smooth="yes"/>
      <point x="1149.816202437423" y="1091.0112860380725" type="line" smooth="yes"/>
      <point x="1168.966959987877" y="1145.5014576475937"/>
      <point x="1138.866757944545" y="1199.9271319102158"/>
      <point x="1077.8420523000802" y="1221.2249887807943" type="curve" smooth="yes"/>
      <point x="1016.6076809620811" y="1240.8998525070538"/>
      <point x="961.5666641147826" y="1215.0851209159628"/>
    </contour>
  </outline>
</glyph>
<glyph name="W" format="2">
  <advance width="1228"/>
  <unicode hex="0057"/>
  <outline>
    <contour>
      <point x="969.27157464217" y="1143.2887437416207" type="curve" smooth="yes"/>
      <point x="867.9580144800441" y="283.0013380301563" type="line"/>
      <point x="716.0674617353527" y="856.2994644940231" type="line" smooth="yes"/>
      <point x="702.2" y="891.4"/>
      <point x="661.158906582133" y="918.2377805599034"/>
      <point x="610.0" y="919.0" type="curve" smooth="yes"/>
      <point x="558.841093417867" y="918.2377805599034"/>
      <point x="517.8" y="891.4"/>
      <point x="503.9325382646473" y="856.2994644940231" type="curve" smooth="yes"/>
      <point x="352.041985519956" y="283.0013380301563" type="line"/>
      <point x="250.72842535783" y="1143.2887437416207" type="line" smooth="yes"/>
      <point x="242.42871374018918" y="1198.970580273729"/>
      <point x="195.43545342742718" y="1235.7094460484466"/>
      <point x="131.0798900706816" y="1229.7732547756661" type="curve" smooth="yes"/>
      <point x="67.3460865530013" y="1220.9403553732557"/>
      <point x="27.449170882223513" y="1174.508345079038"/>
      <point x="34.321679725679495" y="1117.3340870667905" type="curve" smooth="yes"/>
      <point x="183.32055609575693" y="38.34220456643447" type="line" smooth="yes"/>
      <point x="194.06398260264604" y="-22.119393983190594"/>
      <point x="245.25095278616325" y="-55.32342061831893"/>
      <point x="303.0" y="-56.0" type="curve" smooth="yes"/>
      <point x="361.87509792840535" y="-55.07541129930247"/>
      <point x="414.1497952002299" y="-22.4667686894041"/>
      <point x="435.0569790390584" y="31.670829911711532" type="curve" smooth="yes"/>
      <point x="610.0" y="595.0" type="line"/>
      <point x="784.9430209609416" y="31.670829911711532" type="line" smooth="yes"/>
      <point x="805.85020479977" y="-22.4667686894041"/>
      <point x="858.1249020715946" y="-55.07541129930247"/>
      <point x="917.0" y="-56.0" type="curve" smooth="yes"/>
      <point x="974.7490472138368" y="-55.32342061831893"/>
      <point x="1025.936017397354" y="-22.119393983190594"/>
      <point x="1036.679443904243" y="38.34220456643447" type="curve" smooth="yes"/>
      <point x="1185.6783202743204" y="1117.3340870667905" type="line" smooth="yes"/>
      <point x="1192.5508291177764" y="1174.508345079038"/>
      <point x="1152.6539134469988" y="1220.9403553732557"/>
      <point x="1088.9201099293184" y="1229.7732547756661" type="curve" smooth="yes"/>
      <point x="1024.564546572573" y="1235.7094460484466"/>
      <point x="977.5712862598108" y="1198.970580273729"/>
    </contour>
  </outline>
</glyph>
<glyph name="X" format="2">
  <advance width="1228"/>
  <unicode hex="0058"/>
  <outline>
    <contour>
      <point x="981.7698281092557" y="1242.5660936975191"/>
      <point x="923.9089517765331" y="1239.1341763293199"/>
      <point x="887.6553113563565" y="1190.777077133966" type="curve" smooth="yes"/>
      <point x="547.9721515042744" y="676.2468103513453" type="line"/>
      <point x="511.4778509181157" y="642.9632489819302" type="line"/>
      <point x="136.15067420093018" y="108.50423165718827" type="line" smooth="yes"/>
      <point x="103.9038162766584" y="56.78733734666861"/>
      <point x="125.83586569347852" y="-4.782768479014777"/>
      <point x="179.95475421918036" y="-30.963382744079635" type="curve" smooth="yes"/>
      <point x="234.8586502333778" y="-55.452319253191014"/>
      <point x="293.091048223467" y="-53.134176329319786"/>
      <point x="329.209234462958" y="-3.9799655166667804" type="curve" smooth="yes"/>
      <point x="665.8514484743546" y="496.498799578478" type="line"/>
      <point x="704.6829982287919" y="532.2604050430435" type="line"/>
      <point x="1080.992313717327" y="1078.7015448092147" type="line" smooth="yes"/>
      <point x="1114.0961837233415" y="1130.2126626533313"/>
      <point x="1090.9419560717192" y="1191.9721112685654"/>
      <point x="1037.0452457808196" y="1217.9633827440796" type="curve" smooth="yes"/>
    </contour>
    <contour>
      <point x="149.05804392828085" y="1191.9721112685654"/>
      <point x="125.9038162766584" y="1130.2126626533313"/>
      <point x="158.9925964839703" y="1078.7234508199656" type="curve" smooth="yes"/>
      <point x="524.2464199209035" y="547.3597659689816" type="line"/>
      <point x="556.1603384493851" y="517.4819764128841" type="line"/>
      <point x="910.8575168486408" y="-4.078800855280857" type="line" smooth="yes"/>
      <point x="945.9089517765331" y="-53.134176329319786"/>
      <point x="1005.0270993791507" y="-55.487801988448446"/>
      <point x="1060.0452457808196" y="-30.963382744079635" type="curve" smooth="yes"/>
      <point x="1114.1999471503618" y="-4.751938694419611"/>
      <point x="1137.0961837233415" y="57.78733734666861"/>
      <point x="1103.776907351002" y="108.60722871835428" type="curve" smooth="yes"/>
      <point x="723.5579572977341" y="647.9137889306947" type="line"/>
      <point x="695.0655076664344" y="674.1918545071942" type="line"/>
      <point x="352.30536453568783" y="1190.8363037377778" type="line" smooth="yes"/>
      <point x="316.091048223467" y="1239.1341763293199"/>
      <point x="258.23017189074426" y="1242.5660936975191"/>
      <point x="202.95475421918036" y="1217.9633827440796" type="curve" smooth="yes"/>
    </contour>
  </outline>
</glyph>
<glyph name="Y" format="2">
  <advance width="1228"/>
  <unicode hex="0059"/>
  <outline>
    <contour>
      <point x="506.45017413932294" y="561.8238911048321" type="line"/>
      <point x="505.0" y="55.0" type="line" smooth="yes"/>
      <point x="506.2331792561819" y="-0.07388882136500641"/>
      <point x="548.5445315899165" y="-42.931824334009775"/>
      <point x="613.0" y="-44.0" type="curve" smooth="yes"/>
      <point x="615.0" y="-44.0" type="line" smooth="yes"/>
      <point x="679.4554684100835" y="-42.931824334009775"/>
      <point x="721.7668207438181" y="-0.07388882136500641"/>
      <point x="723.0" y="55.0" type="curve" smooth="yes"/>
      <point x="721.5498258606771" y="561.8238911048321" type="line"/>
    </contour>
    <contour>
      <point x="1012.6452232277578" y="1243.129300653617"/>
      <point x="956.4271689038591" y="1232.0695146001856"/>
      <point x="926.4786264280242" y="1190.5075997786803" type="curve" smooth="yes"/>
      <point x="531.4195715967186" y="579.5966877338932" type="line"/>
      <point x="695.132696359707" y="436.0497814955649" type="line"/>
      <point x="1116.4376833575277" y="1077.3640625334544" type="line" smooth="yes"/>
      <point x="1146.7101737066241" y="1126.7239805906588"/>
      <point x="1129.2344241044857" y="1188.7221769051894"/>
      <point x="1069.2287771360354" y="1217.8794737845876" type="curve" smooth="yes"/>
    </contour>
    <contour>
      <point x="98.76557589551422" y="1188.7221769051894"/>
      <point x="81.28982629337585" y="1126.7239805906588"/>
      <point x="111.55286339259837" y="1077.3784957954565" type="curve" smooth="yes"/>
      <point x="523.8234336498906" y="449.0940668553023" type="line"/>
      <point x="701.6394951635198" y="572.4475839341459" type="line"/>
      <point x="301.5323231510963" y="1190.4907148483073" type="line" smooth="yes"/>
      <point x="272.572831096141" y="1232.0695146001856"/>
      <point x="215.44674656380184" y="1243.150390081092"/>
      <point x="158.77122286396454" y="1217.8794737845876" type="curve" smooth="yes"/>
    </contour>
  </outline>
</glyph>
<glyph name="Z" format="2">
  <advance width="1228"/>
  <unicode hex="005A"/>
  <outline>
    <contour>
      <point x="256.0" y="1221.0" type="line" smooth="yes"/>
      <point x="200.71230949748747" y="1219.4062250829145"/>
      <point x="160.0151549950587" y="1175.2462112512353"/>
      <point x="159.0" y="1115.0" type="curve" smooth="yes"/>
      <point x="160.0151549950587" y="1054.7537887487647"/>
      <point x="200.71230949748747" y="1010.5937749170855"/>
      <point x="256.0" y="1009.0" type="curve" smooth="yes"/>
      <point x="787.6116923316276" y="1045.7272352922887" type="line"/>
      <point x="152.97567644002655" y="130.25194247357695" type="line" smooth="yes"/>
      <point x="143.3347954577095" y="115.61251454368266"/>
      <point x="133.61948507993043" y="92.46074482323927"/>
      <point x="133.0" y="68.0" type="curve" smooth="yes"/>
      <point x="134.1320222527086" y="9.299652949246394"/>
      <point x="175.65948165148916" y="-32.691814219787986"/>
      <point x="230.0" y="-34.0" type="curve" smooth="yes"/>
      <point x="996.0" y="-34.0" type="line" smooth="yes"/>
      <point x="1051.2876905025125" y="-32.40622508291445"/>
      <point x="1091.9848450049412" y="11.753788748764679"/>
      <point x="1093.0" y="72.0" type="curve" smooth="yes"/>
      <point x="1091.9848450049412" y="132.2462112512353"/>
      <point x="1051.2876905025125" y="176.40622508291446"/>
      <point x="996.0" y="178.0" type="curve" smooth="yes"/>
      <point x="421.4762546724097" y="142.72952039152315" type="line"/>
      <point x="1059.0156971194551" y="1060.7355063676473" type="line" smooth="yes"/>
      <point x="1069.18038191261" y="1076.4433122119087"/>
      <point x="1074.8195209901028" y="1099.5014288630928"/>
      <point x="1075.0" y="1119.0" type="curve" smooth="yes"/>
      <point x="1073.8679777472914" y="1177.7003470507536"/>
      <point x="1032.3405183485108" y="1219.691814219788"/>
      <point x="978.0" y="1221.0" type="curve" smooth="yes"/>
    </contour>
  </outline>
</glyph>
<glyph name="bracketleft" format="2">
  <advance width="1228"/>
  <unicode hex="005B"/>
  <outline>
    <contour>
      <point x="393.0" y="1406.0" type="line" smooth="yes"/>
      <point x="338.65948165148916" y="1404.691814219788"/>
      <point x="297.13202225270857" y="1362.7003470507536"/>
      <point x="296.0" y="1304.0" type="curve" smooth="yes"/>
      <point x="296.0" y="-265.0" type="line" smooth="yes"/>
      <point x="297.13202225270857" y="-323.70034705075363"/>
      <point x="338.65948165148916" y="-365.691814219788"/>
      <point x="393.0" y="-367.0" type="curve" smooth="yes"/>
      <point x="807.0" y="-367.0" type="line" smooth="yes"/>
      <point x="862.2876905025125" y="-365.40622508291443"/>
      <point x="902.9848450049412" y="-321.2462112512353"/>
      <point x="904.0" y="-261.0" type="curve" smooth="yes"/>
      <point x="902.9848450049412" y="-200.7537887487647"/>
      <point x="862.2876905025125" y="-156.59377491708554"/>
      <point x="807.0" y="-155.0" type="curve" smooth="yes"/>
      <point x="513.1293006536171" y="-181.35477677224222" type="line"/>
      <point x="513.1293006536171" y="1220.3547767722423" type="line"/>
      <point x="807.0" y="1194.0" type="line" smooth="yes"/>
      <point x="862.2876905025125" y="1195.5937749170855"/>
      <point x="902.9848450049412" y="1239.7537887487647"/>
      <point x="904.0" y="1300.0" type="curve" smooth="yes"/>
      <point x="902.9848450049412" y="1360.2462112512353"/>
      <point x="862.2876905025125" y="1404.4062250829145"/>
      <point x="807.0" y="1406.0" type="curve" smooth="yes"/>
    </contour>
  </outline>
</glyph>
<glyph name="backslash" format="2">
  <advance width="1228"/>
  <unicode hex="005C"/>
  <outline>
    <contour>
      <point x="169.52812789486876" y="1311.134493162014" type="curve" smooth="yes"/>
      <point x="841.5332111580931" y="-331.87793461618907" type="line" smooth="yes"/>
      <point x="856.9367592331748" y="-362.9746373695898"/>
      <point x="897.2029731023812" y="-387.8422337511103"/>
      <point x="938.0" y="-389.0" type="curve" smooth="yes"/>
      <point x="1010.3405183485108" y="-387.691814219788"/>
      <point x="1074.872459248332" y="-336.8383420065233"/>
      <point x="1058.4718721051313" y="-272.1344931620141" type="curve" smooth="yes"/>
      <point x="386.4667888419069" y="1370.8779346161891" type="line" smooth="yes"/>
      <point x="371.06324076682523" y="1401.9746373695898"/>
      <point x="330.7970268976188" y="1426.8422337511104"/>
      <point x="290.0" y="1428.0" type="curve" smooth="yes"/>
      <point x="217.65948165148916" y="1426.691814219788"/>
      <point x="153.127540751668" y="1375.8383420065234"/>
    </contour>
  </outline>
</glyph>
<glyph name="bracketright" format="2">
  <advance width="1228"/>
  <unicode hex="005D"/>
  <outline>
    <contour>
      <point x="714.0441765293484" y="1373.7326431917577" type="line"/>
      <point x="714.0441765293484" y="-334.7326431917576" type="line"/>
      <point x="835.0" y="-367.0" type="line"/>
      <point x="889.3405183485108" y="-365.691814219788"/>
      <point x="930.8679777472914" y="-323.70034705075363"/>
      <point x="932.0" y="-265.0" type="curve" smooth="yes"/>
      <point x="932.0" y="1304.0" type="line" smooth="yes"/>
      <point x="930.8679777472914" y="1362.7003470507536"/>
      <point x="889.3405183485108" y="1404.691814219788"/>
      <point x="835.0" y="1406.0" type="curve"/>
    </contour>
    <contour>
      <point x="421.0" y="-155.0" type="line" smooth="yes"/>
      <point x="365.71230949748747" y="-156.59377491708554"/>
      <point x="325.0151549950587" y="-200.7537887487647"/>
      <point x="324.0" y="-261.0" type="curve" smooth="yes"/>
      <point x="325.0151549950587" y="-321.2462112512353"/>
      <point x="365.71230949748747" y="-365.40622508291443"/>
      <point x="421.0" y="-367.0" type="curve" smooth="yes"/>
      <point x="785.8735167544971" y="-364.468596510993" type="line"/>
      <point x="785.8735167544971" y="-157.531403489007" type="line"/>
    </contour>
    <contour>
      <point x="421.0" y="1406.0" type="line" smooth="yes"/>
      <point x="365.71230949748747" y="1404.4062250829145"/>
      <point x="325.0151549950587" y="1360.2462112512353"/>
      <point x="324.0" y="1300.0" type="curve" smooth="yes"/>
      <point x="325.0151549950587" y="1239.7537887487647"/>
      <point x="365.71230949748747" y="1195.5937749170855"/>
      <point x="421.0" y="1194.0" type="curve" smooth="yes"/>
      <point x="785.8735167544971" y="1196.531403489007" type="line"/>
      <point x="785.8735167544971" y="1403.468596510993" type="line"/>
    </contour>
  </outline>
</glyph>
<glyph name="asciicircum" format="2">
  <advance width="1228"/>
  <unicode hex="005E"/>
  <outline>
    <contour>
      <point x="515.8587372934547" y="1187.7322688273186" type="curve" smooth="yes"/>
      <point x="207.85439536426685" y="596.7239473779985" type="line" smooth="yes"/>
      <point x="186.36412763846752" y="542.0373303073148"/>
      <point x="229.43923221195197" y="490.8860955092888"/>
      <point x="272.65394837745146" y="476.61236013810884" type="curve" smooth="yes"/>
      <point x="315.1989777156926" y="463.2131352506007"/>
      <point x="378.62037924170806" y="469.80060013269775"/>
      <point x="407.47038632928326" y="511.9150552886586" type="curve" smooth="yes"/>
      <point x="614.0" y="973.0" type="line"/>
      <point x="820.5178113213722" y="511.93891858595356" type="line" smooth="yes"/>
      <point x="849.5963051637232" y="468.6895037092617"/>
      <point x="916.4146891492201" y="462.2878283150468"/>
      <point x="960.8383420065234" y="478.127540751668" type="curve" smooth="yes"/>
      <point x="1000.6328927485697" y="493.5603215942884"/>
      <point x="1040.6916909981246" y="543.4316351188984"/>
      <point x="1020.1550788616773" y="596.7057702404569" type="curve" smooth="yes"/>
      <point x="712.1412627065453" y="1187.7322688273186" type="line" smooth="yes"/>
      <point x="695.7599011151444" y="1216.9739765497077"/>
      <point x="660.8208654335849" y="1242.088276834398"/>
      <point x="614.0" y="1243.0" type="curve" smooth="yes"/>
      <point x="567.1791345664151" y="1242.088276834398"/>
      <point x="532.2400988848556" y="1216.9739765497077"/>
    </contour>
  </outline>
</glyph>
<glyph name="underscore" format="2">
  <advance width="1228"/>
  <unicode hex="005F"/>
  <outline>
    <contour>
      <point x="133.0" y="-215.0" type="line" smooth="yes"/>
      <point x="77.71230949748747" y="-216.59377491708554"/>
      <point x="37.015154995058715" y="-260.7537887487647"/>
      <point x="36.0" y="-321.0" type="curve" smooth="yes"/>
      <point x="37.015154995058715" y="-381.2462112512353"/>
      <point x="77.71230949748747" y="-425.40622508291443"/>
      <point x="133.0" y="-427.0" type="curve" smooth="yes"/>
      <point x="1095.0" y="-427.0" type="line" smooth="yes"/>
      <point x="1150.2876905025125" y="-425.40622508291443"/>
      <point x="1190.9848450049412" y="-381.2462112512353"/>
      <point x="1192.0" y="-321.0" type="curve" smooth="yes"/>
      <point x="1190.9848450049412" y="-260.7537887487647"/>
      <point x="1150.2876905025125" y="-216.59377491708554"/>
      <point x="1095.0" y="-215.0" type="curve" smooth="yes"/>
    </contour>
  </outline>
</glyph>
<glyph name="b" format="2">
  <advance width="1228"/>
  <unicode hex="0062"/>
  <outline>
    <contour>
      <point x="266.0" y="1356.0" type="line" smooth="yes"/>
      <point x="201.5445315899164" y="1354.93182433401"/>
      <point x="159.23317925618193" y="1312.073888821365"/>
      <point x="158.0" y="1257.0" type="curve" smooth="yes"/>
      <point x="158.0" y="55.0" type="line" smooth="yes"/>
      <point x="158.98549411621795" y="0.873352397838266"/>
      <point x="198.97363832997772" y="-42.77994501218622"/>
      <point x="261.0" y="-44.0" type="curve" smooth="yes"/>
      <point x="263.0" y="-44.0" type="line" smooth="yes"/>
      <point x="325.0263616700223" y="-42.77994501218622"/>
      <point x="365.014505883782" y="0.873352397838266"/>
      <point x="366.0" y="55.0" type="curve" smooth="yes"/>
      <point x="326.2779202616713" y="114.48496153264615" type="line"/>
      <point x="391.59218583024443" y="15.428729712161303"/>
      <point x="517.5326046464389" y="-54.92875970829289"/>
      <point x="659.0" y="-56.0" type="curve" smooth="yes"/>
      <point x="919.2525103911009" y="-53.31087619875498"/>
      <point x="1120.8026708207472" y="147.97543644587455"/>
      <point x="1123.0" y="462.0" type="curve" smooth="yes"/>
      <point x="1120.8026708207472" y="776.0245635541254"/>
      <point x="919.2525103911009" y="977.310876198755"/>
      <point x="659.0" y="980.0" type="curve" smooth="yes"/>
      <point x="517.2653606843295" y="978.8588812351417"/>
      <point x="399.3008396927786" y="908.3130030092651"/>
      <point x="375.2478817562994" y="788.1118463649839" type="curve"/>
      <point x="376.0" y="1257.0" type="line" smooth="yes"/>
      <point x="374.7668207438181" y="1312.073888821365"/>
      <point x="332.4554684100836" y="1354.93182433401"/>
      <point x="268.0" y="1356.0" type="curve" smooth="yes"/>
    </contour>
    <contour>
      <point x="901.0" y="462.0" type="curve" smooth="yes"/>
      <point x="902.547680746809" y="276.14134976662217"/>
      <point x="815.051536981705" y="156.53757445165982"/>
      <point x="649.0" y="160.0" type="curve" smooth="yes"/>
      <point x="484.7334415472566" y="157.52553673393365"/>
      <point x="373.7093646318575" y="262.2685041730401"/>
      <point x="376.0" y="462.0" type="curve" smooth="yes"/>
      <point x="373.7093646318575" y="661.7314958269599"/>
      <point x="484.7334415472566" y="766.4744632660663"/>
      <point x="649.0" y="764.0" type="curve" smooth="yes"/>
      <point x="815.051536981705" y="767.4624255483402"/>
      <point x="902.547680746809" y="647.8586502333778"/>
    </contour>
  </outline>
</glyph>
<glyph name="c" format="2">
  <advance width="1228"/>
  <unicode hex="0063"/>
  <outline>
    <contour>
      <point x="113.0" y="462.0" type="curve" smooth="yes"/>
      <point x="115.35127107853828" y="172.57591220025262"/>
      <point x="323.5832800985303" y="-53.24086469810825"/>
      <point x="629.0" y="-56.0" type="curve" smooth="yes"/>
      <point x="786.4104313637348" y="-55.56675784847733"/>
      <point x="948.0172568543401" y="-3.503802985378318"/>
      <point x="1060.9978377209516" y="78.5029731336916" type="curve" smooth="yes"/>
      <point x="1103.7895269786081" y="111.41066131016143"/>
      <point x="1117.0539247692814" y="174.96480114922443"/>
      <point x="1085.235061290585" y="231.35831764128483" type="curve" smooth="yes"/>
      <point x="1046.2619799781603" y="291.0174254227785"/>
      <point x="978.8512930074771" y="289.3546089821701"/>
      <point x="944.248503172702" y="263.93279375457814" type="curve" smooth="yes"/>
      <point x="854.3450998528159" y="194.18151920267923"/>
      <point x="745.7044287995993" y="159.5850699814886"/>
      <point x="629.0" y="160.0" type="curve" smooth="yes"/>
      <point x="447.5672423194027" y="157.1757908616062"/>
      <point x="336.7410491094537" y="279.18629564023666"/>
      <point x="339.0" y="462.0" type="curve" smooth="yes"/>
      <point x="336.7410491094537" y="644.8137043597633"/>
      <point x="447.5672423194027" y="766.8242091383938"/>
      <point x="629.0" y="764.0" type="curve" smooth="yes"/>
      <point x="736.5566197239884" y="764.2915979061191"/>
      <point x="834.5730588897609" y="738.2126102080464"/>
      <point x="928.6354196345312" y="673.0533896998348" type="curve" smooth="yes"/>
      <point x="964.3400408873118" y="649.061851126115"/>
      <point x="1032.025272285723" y="651.2803831368935"/>
      <point x="1067.1003997709906" y="713.1896890091766" type="curve" smooth="yes"/>
      <point x="1096.399511258364" y="770.6381883317401"/>
      <point x="1079.8134857096456" y="833.9054295363339"/>
      <point x="1035.5024975733668" y="864.5246837589403" type="curve" smooth="yes"/>
      <point x="918.8789126032634" y="940.0382954582074"/>
      <point x="775.5175580402162" y="979.6985410567472"/>
      <point x="629.0" y="980.0" type="curve" smooth="yes"/>
      <point x="323.5832800985303" y="977.2408646981082"/>
      <point x="115.35127107853828" y="751.4240877997473"/>
    </contour>
  </outline>
</glyph>
<glyph name="d" format="2">
  <advance width="1228"/>
  <unicode hex="0064"/>
  <outline>
    <contour>
      <point x="960.0" y="1356.0" type="line" smooth="yes"/>
      <point x="895.5445315899165" y="1354.93182433401"/>
      <point x="853.2331792561819" y="1312.073888821365"/>
      <point x="852.0" y="1257.0" type="curve" smooth="yes"/>
      <point x="852.7521182437006" y="788.1118463649839" type="line"/>
      <point x="828.6991603072214" y="908.3130030092651"/>
      <point x="710.7346393156705" y="978.8588812351417"/>
      <point x="569.0" y="980.0" type="curve" smooth="yes"/>
      <point x="308.74748960889906" y="977.310876198755"/>
      <point x="107.19732917925292" y="776.0245635541254"/>
      <point x="105.0" y="462.0" type="curve" smooth="yes"/>
      <point x="107.19732917925292" y="147.97543644587455"/>
      <point x="308.74748960889906" y="-53.31087619875498"/>
      <point x="569.0" y="-56.0" type="curve" smooth="yes"/>
      <point x="710.4673953535611" y="-54.92875970829289"/>
      <point x="836.4078141697555" y="15.428729712161303"/>
      <point x="901.7220797383287" y="114.48496153264615" type="curve"/>
      <point x="862.0" y="55.0" type="line" smooth="yes"/>
      <point x="862.985494116218" y="0.873352397838266"/>
      <point x="902.9736383299777" y="-42.77994501218622"/>
      <point x="965.0" y="-44.0" type="curve" smooth="yes"/>
      <point x="967.0" y="-44.0" type="line" smooth="yes"/>
      <point x="1029.0263616700222" y="-42.77994501218622"/>
      <point x="1069.014505883782" y="0.873352397838266"/>
      <point x="1070.0" y="55.0" type="curve" smooth="yes"/>
      <point x="1070.0" y="1257.0" type="line" smooth="yes"/>
      <point x="1068.766820743818" y="1312.073888821365"/>
      <point x="1026.4554684100835" y="1354.93182433401"/>
      <point x="962.0" y="1356.0" type="curve" smooth="yes"/>
    </contour>
    <contour>
      <point x="852.0" y="462.0" type="curve" smooth="yes"/>
      <point x="854.2906353681425" y="262.2685041730401"/>
      <point x="743.2665584527434" y="157.52553673393365"/>
      <point x="579.0" y="160.0" type="curve" smooth="yes"/>
      <point x="412.948463018295" y="156.53757445165982"/>
      <point x="325.45231925319104" y="276.14134976662217"/>
      <point x="327.0" y="462.0" type="curve" smooth="yes"/>
      <point x="325.45231925319104" y="647.8586502333778"/>
      <point x="412.948463018295" y="767.4624255483402"/>
      <point x="579.0" y="764.0" type="curve" smooth="yes"/>
      <point x="743.2665584527434" y="766.4744632660663"/>
      <point x="854.2906353681425" y="661.7314958269599"/>
    </contour>
  </outline>
</glyph>
<glyph name="e" format="2">
  <advance width="1228"/>
  <unicode hex="0065"/>
  <outline>
    <contour>
      <point x="114.0" y="462.0" type="curve" smooth="yes"/>
      <point x="115.77820942311791" y="150.1484465619178"/>
      <point x="298.31297410766945" y="-53.54424470497486"/>
      <point x="603.0" y="-56.0" type="curve" smooth="yes"/>
      <point x="762.0423212865361" y="-55.75884533890958"/>
      <point x="922.8640656656439" y="-17.217574042943973"/>
      <point x="1030.78146823826" y="34.38124436360433" type="curve" smooth="yes"/>
      <point x="1080.3452001207663" y="60.281552813306206"/>
      <point x="1103.9542164411066" y="117.76385539953802"/>
      <point x="1084.9328783550873" y="173.67438563519318" type="curve" smooth="yes"/>
      <point x="1063.7211248896829" y="228.68601622600673"/>
      <point x="1004.0" y="265.0"/>
      <point x="946.2036801412761" y="238.5615229513541" type="curve" smooth="yes"/>
      <point x="859.9078536753663" y="187.7770356903165"/>
      <point x="732.8600322610545" y="156.7470097507985"/>
      <point x="603.0" y="157.0" type="curve" smooth="yes"/>
      <point x="429.246647499636" y="155.08602374896162"/>
      <point x="343.73916483413564" y="237.19120238662163"/>
      <point x="311.17081905731686" y="392.2601759653789" type="curve"/>
      <point x="1026.0" y="391.0" type="line" smooth="yes"/>
      <point x="1079.4807640251304" y="392.07468084361136"/>
      <point x="1124.6517717096233" y="432.5204533746255"/>
      <point x="1122.9431953730575" y="488.96455793155957" type="curve" smooth="yes"/>
      <point x="1105.9060389040656" y="764.7475393786211"/>
      <point x="933.3765246145073" y="977.258096378978"/>
      <point x="623.0" y="980.0" type="curve" smooth="yes"/>
      <point x="331.2014016750401" y="977.4991409552123"/>
      <point x="116.48596544553877" y="765.761881761724"/>
    </contour>
    <contour>
      <point x="918.5822442175204" y="597.9414842954371" type="curve"/>
      <point x="320.3261500457" y="597.9647573237919" type="line"/>
      <point x="373.9690192638717" y="694.2012381641466"/>
      <point x="467.3666009998516" y="768.6189317083288"/>
      <point x="623.0" y="767.0" type="curve" smooth="yes"/>
      <point x="788.885440570685" y="768.5393209012681"/>
      <point x="869.1129169063113" y="698.7900566271519"/>
    </contour>
  </outline>
</glyph>
<glyph name="f" format="2">
  <advance width="1228"/>
  <unicode hex="0066"/>
  <outline>
    <contour>
      <point x="564.1412046037808" y="1348.864854805108"/>
      <point x="416.0683872799735" y="1197.6778469376097"/>
      <point x="414.0" y="967.0" type="curve" smooth="yes"/>
      <point x="414.0" y="55.0" type="line" smooth="yes"/>
      <point x="415.2331792561819" y="-0.07388882136500641"/>
      <point x="457.5445315899164" y="-42.931824334009775"/>
      <point x="522.0" y="-44.0" type="curve" smooth="yes"/>
      <point x="524.0" y="-44.0" type="line" smooth="yes"/>
      <point x="588.4554684100835" y="-42.931824334009775"/>
      <point x="630.7668207438181" y="-0.07388882136500641"/>
      <point x="632.0" y="55.0" type="curve" smooth="yes"/>
      <point x="632.0" y="954.0" type="line" smooth="yes"/>
      <point x="630.7313602003168" y="1081.7990185612014"/>
      <point x="671.5192843365058" y="1139.3888070503228"/>
      <point x="800.0" y="1137.0" type="curve" smooth="yes"/>
      <point x="874.9658079419556" y="1137.240182251102"/>
      <point x="948.9288915924355" y="1119.5258137062208"/>
      <point x="1024.7574298022482" y="1090.2806135785522" type="curve" smooth="yes"/>
      <point x="1075.1543920882145" y="1074.0683246106203"/>
      <point x="1129.3520910000489" y="1108.8403160307407"/>
      <point x="1144.0868282270176" y="1165.1730083764044" type="curve" smooth="yes"/>
      <point x="1155.9742239781" y="1220.3236710640817"/>
      <point x="1129.8576224575056" y="1276.0431246302194"/>
      <point x="1078.2227134052148" y="1297.7270433071533" type="curve" smooth="yes"/>
      <point x="995.6654557390465" y="1329.5972232767845"/>
      <point x="897.6349606079787" y="1350.8051336542017"/>
      <point x="800.0" y="1351.0" type="curve" smooth="yes"/>
    </contour>
    <contour>
      <point x="250.0" y="878.0" type="line" smooth="yes"/>
      <point x="194.71230949748747" y="876.4062250829145"/>
      <point x="154.0151549950587" y="832.2462112512353"/>
      <point x="153.0" y="772.0" type="curve" smooth="yes"/>
      <point x="154.0151549950587" y="711.7537887487647"/>
      <point x="194.71230949748747" y="667.5937749170855"/>
      <point x="250.0" y="666.0" type="curve" smooth="yes"/>
      <point x="944.0" y="666.0" type="line" smooth="yes"/>
      <point x="999.2876905025125" y="667.5937749170855"/>
      <point x="1039.9848450049412" y="711.7537887487647"/>
      <point x="1041.0" y="772.0" type="curve" smooth="yes"/>
      <point x="1039.9848450049412" y="832.2462112512353"/>
      <point x="999.2876905025125" y="876.4062250829145"/>
      <point x="944.0" y="878.0" type="curve" smooth="yes"/>
    </contour>
  </outline>
</glyph>
<glyph name="g" format="2">
  <advance width="1228"/>
  <unicode hex="0067"/>
  <outline>
    <contour>
      <point x="105.0" y="487.0" type="curve" smooth="yes"/>
      <point x="107.41757663610491" y="187.40831486798953"/>
      <point x="309.3727170039605" y="-3.5682074900988177"/>
      <point x="569.0" y="-6.0" type="curve" smooth="yes"/>
      <point x="709.918916053525" y="-5.064947732262098"/>
      <point x="828.9872985555954" y="59.06626324211818"/>
      <point x="859.119509509689" y="163.18079658103363" type="curve"/>
      <point x="852.0" y="-17.0" type="line" smooth="yes"/>
      <point x="854.0432169717486" y="-152.3912094305536"/>
      <point x="785.6961836667525" y="-229.93407203425718"/>
      <point x="608.0" y="-228.0" type="curve" smooth="yes"/>
      <point x="503.55928267361344" y="-228.1868146006722"/>
      <point x="388.90829694323145" y="-205.1877729257642"/>
      <point x="290.3903287002634" y="-169.96470053050922" type="curve" smooth="yes"/>
      <point x="244.45168421957916" y="-156.00442161390777"/>
      <point x="189.33306197897102" y="-183.23790141355073"/>
      <point x="167.77681401708554" y="-242.1525908572367" type="curve" smooth="yes"/>
      <point x="149.0662123315818" y="-301.87913827072384"/>
      <point x="172.61084333247038" y="-358.58760762003385"/>
      <point x="219.3637502711622" y="-377.946794710082" type="curve" smooth="yes"/>
      <point x="337.59945737741094" y="-420.94587809796644"/>
      <point x="479.15505023760323" y="-443.88076535217937"/>
      <point x="608.0" y="-444.0" type="curve" smooth="yes"/>
      <point x="889.6385023038167" y="-442.29275876619533"/>
      <point x="1067.4236197345092" y="-281.98291657452086"/>
      <point x="1070.0" y="-30.0" type="curve" smooth="yes"/>
      <point x="1070.0" y="869.0" type="line" smooth="yes"/>
      <point x="1069.014505883782" y="923.1266476021617"/>
      <point x="1029.0263616700222" y="966.7799450121862"/>
      <point x="967.0" y="968.0" type="curve" smooth="yes"/>
      <point x="965.0" y="968.0" type="line" smooth="yes"/>
      <point x="902.9736383299777" y="966.7799450121862"/>
      <point x="862.985494116218" y="923.1266476021617"/>
      <point x="862.0" y="869.0" type="curve" smooth="yes"/>
      <point x="901.7220797383287" y="809.5150384673539" type="line"/>
      <point x="836.4078141697555" y="908.5712702878387"/>
      <point x="710.4673953535611" y="978.9287597082929"/>
      <point x="569.0" y="980.0" type="curve" smooth="yes"/>
      <point x="309.3727170039605" y="977.5682074900989"/>
      <point x="107.41757663610491" y="786.5916851320104"/>
    </contour>
    <contour>
      <point x="852.0" y="487.0" type="curve" smooth="yes"/>
      <point x="854.6303262173517" y="303.11272537538355"/>
      <point x="744.1642647607334" y="207.873427354867"/>
      <point x="579.0" y="210.0" type="curve" smooth="yes"/>
      <point x="412.06930010624023" y="206.95246023372857"/>
      <point x="325.21356040989735" y="316.87596091009397"/>
      <point x="327.0" y="487.0" type="curve" smooth="yes"/>
      <point x="325.21356040989735" y="657.124039089906"/>
      <point x="412.06930010624023" y="767.0475397662715"/>
      <point x="579.0" y="764.0" type="curve" smooth="yes"/>
      <point x="744.1642647607334" y="766.126572645133"/>
      <point x="854.6303262173517" y="670.8872746246165"/>
    </contour>
  </outline>
</glyph>
<glyph name="k" format="2">
  <advance width="1228"/>
  <unicode hex="006B"/>
  <outline>
    <contour>
      <point x="981.2296456107414" y="981.7232889835377"/>
      <point x="923.106403805548" y="977.4603747144629"/>
      <point x="888.3873570355406" y="949.3903205604397" type="curve" smooth="yes"/>
      <point x="260.45429201315596" y="389.24442014923466" type="line"/>
      <point x="387.95051265188124" y="219.12476674493084" type="line"/>
      <point x="1057.4407769636105" y="807.4576522365409" type="line" smooth="yes"/>
      <point x="1101.428713740189" y="850.0294197262712"/>
      <point x="1086.046190375506" y="918.9932239512842"/>
      <point x="1031.3962213763032" y="953.212522688509" type="curve" smooth="yes"/>
    </contour>
    <contour>
      <point x="306.0" y="1356.0" type="line" smooth="yes"/>
      <point x="241.5445315899164" y="1354.93182433401"/>
      <point x="199.23317925618193" y="1312.073888821365"/>
      <point x="198.0" y="1257.0" type="curve" smooth="yes"/>
      <point x="198.0" y="55.0" type="line" smooth="yes"/>
      <point x="199.23317925618193" y="-0.07388882136500641"/>
      <point x="241.5445315899164" y="-42.931824334009775"/>
      <point x="306.0" y="-44.0" type="curve" smooth="yes"/>
      <point x="308.0" y="-44.0" type="line" smooth="yes"/>
      <point x="372.4554684100836" y="-42.931824334009775"/>
      <point x="414.7668207438181" y="-0.07388882136500641"/>
      <point x="416.0" y="55.0" type="curve" smooth="yes"/>
      <point x="416.0" y="1257.0" type="line" smooth="yes"/>
      <point x="414.7668207438181" y="1312.073888821365"/>
      <point x="372.4554684100836" y="1354.93182433401"/>
      <point x="308.0" y="1356.0" type="curve" smooth="yes"/>
    </contour>
    <contour>
      <point x="461.32696061476526" y="479.4014839927689" type="line"/>
      <point x="912.800416169437" y="-19.825007661913837" type="line" smooth="yes"/>
      <point x="947.4949650257588" y="-54.75067414539134"/>
      <point x="1003.1212203873374" y="-53.765956877160114"/>
      <point x="1054.9018077524818" y="-24.50133716796826" type="curve" smooth="yes"/>
      <point x="1111.693975593532" y="9.62891595612136"/>
      <point x="1122.1723831639315" y="74.57507008751855"/>
      <point x="1085.0970758990284" y="117.93767166297425" type="curve" smooth="yes"/>
      <point x="632.5861291127684" y="611.7917891899382" type="line"/>
    </contour>
  </outline>
</glyph>
<glyph name="l" format="2">
  <advance width="1228"/>
  <unicode hex="006C"/>
  <outline>
    <contour>
      <point x="519.0881255344079" y="1314.4463790037366" type="line"/>
      <point x="519.2599760433643" y="101.80347960738361" type="line"/>
      <point x="736.7084369825616" y="101.55688440475902" type="line"/>
      <point x="737.0" y="1244.0" type="line" smooth="yes"/>
      <point x="735.8679777472914" y="1302.7003470507536"/>
      <point x="694.3405183485108" y="1344.691814219788"/>
      <point x="640.0" y="1346.0" type="curve" smooth="yes"/>
    </contour>
    <contour>
      <point x="240.0" y="178.0" type="line" smooth="yes"/>
      <point x="184.71230949748747" y="176.40622508291446"/>
      <point x="144.0151549950587" y="132.2462112512353"/>
      <point x="143.0" y="72.0" type="curve" smooth="yes"/>
      <point x="144.0151549950587" y="11.753788748764679"/>
      <point x="184.71230949748747" y="-32.40622508291445"/>
      <point x="240.0" y="-34.0" type="curve" smooth="yes"/>
      <point x="1024.0" y="-34.0" type="line" smooth="yes"/>
      <point x="1079.2876905025125" y="-32.40622508291445"/>
      <point x="1119.9848450049412" y="11.753788748764679"/>
      <point x="1121.0" y="72.0" type="curve" smooth="yes"/>
      <point x="1119.9848450049412" y="132.2462112512353"/>
      <point x="1079.2876905025125" y="176.40622508291446"/>
      <point x="1024.0" y="178.0" type="curve" smooth="yes"/>
    </contour>
    <contour>
      <point x="280.0" y="1346.0" type="line" smooth="yes"/>
      <point x="224.71230949748747" y="1344.4062250829145"/>
      <point x="184.0151549950587" y="1300.2462112512353"/>
      <point x="183.0" y="1240.0" type="curve" smooth="yes"/>
      <point x="184.0151549950587" y="1179.7537887487647"/>
      <point x="224.71230949748747" y="1135.5937749170855"/>
      <point x="280.0" y="1134.0" type="curve" smooth="yes"/>
      <point x="627.4609161208502" y="1136.778152886361" type="line"/>
      <point x="627.4609161208502" y="1343.221847113639" type="line"/>
    </contour>
  </outline>
</glyph>
<glyph name="n" format="2">
  <advance width="1228"/>
  <unicode hex="006E"/>
  <outline>
    <contour>
      <point x="351.9729600193357" y="738.5044622852422" type="curve"/>
      <point x="376.0" y="869.0" type="line" smooth="yes"/>
      <point x="375.014505883782" y="923.1266476021617"/>
      <point x="335.0263616700223" y="966.7799450121862"/>
      <point x="273.0" y="968.0" type="curve" smooth="yes"/>
      <point x="271.0" y="968.0" type="line" smooth="yes"/>
      <point x="208.97363832997772" y="966.7799450121862"/>
      <point x="168.98549411621795" y="923.1266476021617"/>
      <point x="168.0" y="869.0" type="curve" smooth="yes"/>
      <point x="168.0" y="55.0" type="line" smooth="yes"/>
      <point x="169.23317925618193" y="-0.07388882136500641"/>
      <point x="211.5445315899164" y="-42.931824334009775"/>
      <point x="276.0" y="-44.0" type="curve" smooth="yes"/>
      <point x="278.0" y="-44.0" type="line" smooth="yes"/>
      <point x="342.4554684100836" y="-42.931824334009775"/>
      <point x="384.7668207438181" y="-0.07388882136500641"/>
      <point x="386.0" y="55.0" type="curve" smooth="yes"/>
      <point x="386.0" y="392.0" type="line" smooth="yes"/>
      <point x="382.8237900767148" y="605.6509942746328"/>
      <point x="556.0696538415154" y="767.5220484104182"/>
      <point x="712.0" y="764.0" type="curve" smooth="yes"/>
      <point x="827.6067438483083" y="766.749068979386"/>
      <point x="861.213761412584" y="710.996525154751"/>
      <point x="860.0" y="605.0" type="curve" smooth="yes"/>
      <point x="860.0" y="55.0" type="line" smooth="yes"/>
      <point x="861.2331792561819" y="-0.07388882136500641"/>
      <point x="903.5445315899165" y="-42.931824334009775"/>
      <point x="968.0" y="-44.0" type="curve" smooth="yes"/>
      <point x="970.0" y="-44.0" type="line" smooth="yes"/>
      <point x="1034.4554684100835" y="-42.931824334009775"/>
      <point x="1076.766820743818" y="-0.07388882136500641"/>
      <point x="1078.0" y="55.0" type="curve" smooth="yes"/>
      <point x="1078.0" y="620.0" type="line" smooth="yes"/>
      <point x="1076.1248373461071" y="831.1352963807059"/>
      <point x="943.5585146120962" y="977.5956280320199"/>
      <point x="727.0" y="980.0" type="curve" smooth="yes"/>
      <point x="569.7632729705326" y="978.089499305306"/>
      <point x="405.908230645079" y="865.9913869826088"/>
    </contour>
  </outline>
</glyph>
<glyph name="o" format="2">
  <advance width="1228"/>
  <unicode hex="006F"/>
  <outline>
    <contour>
      <point x="100.0" y="462.0" type="curve" smooth="yes"/>
      <point x="102.66927339047936" y="166.79448713152436"/>
      <point x="324.8118997087453" y="-53.338060098031065"/>
      <point x="614.0" y="-56.0" type="curve" smooth="yes"/>
      <point x="903.1881002912547" y="-53.338060098031065"/>
      <point x="1125.3307266095208" y="166.79448713152436"/>
      <point x="1128.0" y="462.0" type="curve" smooth="yes"/>
      <point x="1125.3307266095208" y="757.2055128684757"/>
      <point x="903.1881002912547" y="977.3380600980311"/>
      <point x="614.0" y="980.0" type="curve" smooth="yes"/>
      <point x="324.8118997087453" y="977.3380600980311"/>
      <point x="102.66927339047936" y="757.2055128684757"/>
    </contour>
    <contour>
      <point x="906.0" y="462.0" type="curve" smooth="yes"/>
      <point x="908.2906353681425" y="277.2685041730401"/>
      <point x="796.6646602675778" y="157.27568886884637"/>
      <point x="614.0" y="160.0" type="curve" smooth="yes"/>
      <point x="431.33533973242226" y="157.27568886884637"/>
      <point x="319.7093646318575" y="277.2685041730401"/>
      <point x="322.0" y="462.0" type="curve" smooth="yes"/>
      <point x="319.7093646318575" y="646.7314958269599"/>
      <point x="431.33533973242226" y="766.7243111311536"/>
      <point x="614.0" y="764.0" type="curve" smooth="yes"/>
      <point x="796.6646602675778" y="766.7243111311536"/>
      <point x="908.2906353681425" y="646.7314958269599"/>
    </contour>
  </outline>
</glyph>
<glyph name="q" format="2">
  <advance width="1228"/>
  <unicode hex="0071"/>
  <outline>
    <contour>
      <point x="105.0" y="462.0" type="curve" smooth="yes"/>
      <point x="107.19732917925292" y="147.97543644587455"/>
      <point x="308.74748960889906" y="-53.31087619875498"/>
      <point x="569.0" y="-56.0" type="curve" smooth="yes"/>
      <point x="710.7346393156705" y="-54.858881235141624"/>
      <point x="828.6991603072214" y="15.686996990734905"/>
      <point x="852.7521182437006" y="135.88815363501618" type="curve"/>
      <point x="852.0" y="-333.0" type="line" smooth="yes"/>
      <point x="853.2331792561819" y="-388.073888821365"/>
      <point x="895.5445315899165" y="-430.9318243340098"/>
      <point x="960.0" y="-432.0" type="curve" smooth="yes"/>
      <point x="962.0" y="-432.0" type="line" smooth="yes"/>
      <point x="1026.4554684100835" y="-430.9318243340098"/>
      <point x="1068.766820743818" y="-388.073888821365"/>
      <point x="1070.0" y="-333.0" type="curve" smooth="yes"/>
      <point x="1070.0" y="869.0" type="line" smooth="yes"/>
      <point x="1069.014505883782" y="923.1266476021617"/>
      <point x="1029.0263616700222" y="966.7799450121862"/>
      <point x="967.0" y="968.0" type="curve" smooth="yes"/>
      <point x="965.0" y="968.0" type="line" smooth="yes"/>
      <point x="902.9736383299777" y="966.7799450121862"/>
      <point x="862.985494116218" y="923.1266476021617"/>
      <point x="862.0" y="869.0" type="curve" smooth="yes"/>
      <point x="901.7220797383287" y="809.5150384673539" type="line"/>
      <point x="836.4078141697555" y="908.5712702878387"/>
      <point x="710.4673953535611" y="978.9287597082929"/>
      <point x="569.0" y="980.0" type="curve" smooth="yes"/>
      <point x="308.74748960889906" y="977.310876198755"/>
      <point x="107.19732917925292" y="776.0245635541254"/>
    </contour>
    <contour>
      <point x="852.0" y="462.0" type="curve" smooth="yes"/>
      <point x="854.2906353681425" y="262.2685041730401"/>
      <point x="743.2665584527434" y="157.52553673393365"/>
      <point x="579.0" y="160.0" type="curve" smooth="yes"/>
      <point x="412.948463018295" y="156.53757445165982"/>
      <point x="325.45231925319104" y="276.14134976662217"/>
      <point x="327.0" y="462.0" type="curve" smooth="yes"/>
      <point x="325.45231925319104" y="647.8586502333778"/>
      <point x="412.948463018295" y="767.4624255483402"/>
      <point x="579.0" y="764.0" type="curve" smooth="yes"/>
      <point x="743.2665584527434" y="766.4744632660663"/>
      <point x="854.2906353681425" y="661.7314958269599"/>
    </contour>
  </outline>
</glyph>
<glyph name="s" format="2">
  <advance width="1228"/>
  <unicode hex="0073"/>
  <outline>
    <contour>
      <point x="1082.0" y="277.0" type="curve" smooth="yes"/>
      <point x="1079.9578844757739" y="414.6057580464652"/>
      <point x="996.5710951570427" y="496.107672785404"/>
      <point x="895.7785105642346" y="533.8946184941632" type="curve" smooth="yes"/>
      <point x="741.8389293935057" y="589.7825786628505"/>
      <point x="534.3539593996412" y="575.9184149857396"/>
      <point x="431.4440777140066" y="610.3561623296674" type="curve" smooth="yes"/>
      <point x="389.3626235175598" y="623.3313336115924"/>
      <point x="375.03127556339706" y="630.894600998536"/>
      <point x="378.0" y="660.0" type="curve" smooth="yes"/>
      <point x="372.9352244351889" y="735.1463508804153"/>
      <point x="438.06367761164637" y="767.7418512451651"/>
      <point x="570.0" y="767.0" type="curve" smooth="yes"/>
      <point x="684.8532243951122" y="767.2538261119471"/>
      <point x="794.1401349491217" y="740.1355432970378"/>
      <point x="896.5339006253618" y="687.7212984073984" type="curve" smooth="yes"/>
      <point x="938.966172056976" y="667.5396814068667"/>
      <point x="998.5329906736557" y="684.5485771662683"/>
      <point x="1027.1072052534796" y="745.276232976406" type="curve" smooth="yes"/>
      <point x="1051.835375035214" y="805.6582345644233"/>
      <point x="1027.5656963525607" y="864.5083242066631"/>
      <point x="981.2816223638484" y="889.3722244481488" type="curve" smooth="yes"/>
      <point x="855.7889401346997" y="952.2428095979533"/>
      <point x="709.1325269736716" y="979.855387676989"/>
      <point x="564.0" y="980.0" type="curve" smooth="yes"/>
      <point x="343.46423273677874" y="978.9111026437602"/>
      <point x="160.41628824030133" y="865.7572073603887"/>
      <point x="156.0" y="660.0" type="curve" smooth="yes"/>
      <point x="157.91164324936508" y="532.7600106297211"/>
      <point x="233.6721743216055" y="454.36277237750863"/>
      <point x="327.5132476619035" y="416.3759424480817" type="curve" smooth="yes"/>
      <point x="481.0383433728643" y="357.2315935115577"/>
      <point x="695.5188282974063" y="372.09065339788674"/>
      <point x="802.0727995943496" y="334.8037845190657" type="curve" smooth="yes"/>
      <point x="847.0577588304615" y="319.9692666341251"/>
      <point x="862.7048920151442" y="310.7102966091708"/>
      <point x="860.0" y="277.0" type="curve" smooth="yes"/>
      <point x="863.9085429252312" y="201.8273248250407"/>
      <point x="804.6917435386905" y="155.969271671863"/>
      <point x="644.0" y="157.0" type="curve" smooth="yes"/>
      <point x="516.2810397469098" y="156.72940406656156"/>
      <point x="396.53526124187164" y="187.60486079067636"/>
      <point x="291.6189199442938" y="246.66161660943575" type="curve" smooth="yes"/>
      <point x="250.19961379819742" y="268.2289867609111"/>
      <point x="190.30602440646786" y="253.37108404387862"/>
      <point x="159.46832974636442" y="193.96051842428145" type="curve" smooth="yes"/>
      <point x="132.31691944525994" y="134.63142357627675"/>
      <point x="154.72609954772773" y="75.19290532565606"/>
      <point x="200.6561455507855" y="48.18593583989443" type="curve" smooth="yes"/>
      <point x="333.3807358550521" y="-23.952976398606857"/>
      <point x="488.714477408647" y="-55.840882690936255"/>
      <point x="654.0" y="-56.0" type="curve" smooth="yes"/>
      <point x="922.906064500644" y="-54.52491177711449"/>
      <point x="1078.9878543143823" y="84.00882831959325"/>
    </contour>
  </outline>
</glyph>
<glyph name="u" format="2">
  <advance width="1228"/>
  <unicode hex="0075"/>
  <outline>
    <contour>
      <point x="950.0" y="968.0" type="line" smooth="yes"/>
      <point x="885.5445315899165" y="966.9318243340098"/>
      <point x="843.2331792561819" y="924.073888821365"/>
      <point x="842.0" y="869.0" type="curve" smooth="yes"/>
      <point x="842.0" y="532.0" type="line" smooth="yes"/>
      <point x="845.1762099232852" y="318.3490057253672"/>
      <point x="671.9303461584846" y="156.4779515895819"/>
      <point x="516.0" y="160.0" type="curve" smooth="yes"/>
      <point x="400.3932561516917" y="157.25093102061396"/>
      <point x="366.78623858741605" y="213.00347484524897"/>
      <point x="368.0" y="319.0" type="curve" smooth="yes"/>
      <point x="368.0" y="869.0" type="line" smooth="yes"/>
      <point x="366.7668207438181" y="924.073888821365"/>
      <point x="324.4554684100836" y="966.9318243340098"/>
      <point x="260.0" y="968.0" type="curve" smooth="yes"/>
      <point x="258.0" y="968.0" type="line" smooth="yes"/>
      <point x="193.5445315899164" y="966.9318243340098"/>
      <point x="151.23317925618193" y="924.073888821365"/>
      <point x="150.0" y="869.0" type="curve" smooth="yes"/>
      <point x="150.0" y="304.0" type="line" smooth="yes"/>
      <point x="151.87516265389286" y="92.86470361929415"/>
      <point x="284.44148538790375" y="-53.595628032019945"/>
      <point x="501.0" y="-56.0" type="curve" smooth="yes"/>
      <point x="658.2367270294674" y="-54.08949930530603"/>
      <point x="822.091769354921" y="58.008613017391205"/>
      <point x="876.0270399806643" y="185.4955377147578" type="curve"/>
      <point x="852.0" y="55.0" type="line" smooth="yes"/>
      <point x="852.985494116218" y="0.873352397838266"/>
      <point x="892.9736383299777" y="-42.77994501218622"/>
      <point x="955.0" y="-44.0" type="curve" smooth="yes"/>
      <point x="957.0" y="-44.0" type="line" smooth="yes"/>
      <point x="1019.0263616700223" y="-42.77994501218622"/>
      <point x="1059.014505883782" y="0.873352397838266"/>
      <point x="1060.0" y="55.0" type="curve" smooth="yes"/>
      <point x="1060.0" y="869.0" type="line" smooth="yes"/>
      <point x="1058.766820743818" y="924.073888821365"/>
      <point x="1016.4554684100835" y="966.9318243340098"/>
      <point x="952.0" y="968.0" type="curve" smooth="yes"/>
    </contour>
  </outline>
</glyph>
<glyph name="v" format="2">
  <advance width="1228"/>
  <unicode hex="0076"/>
  <outline>
    <contour>
      <point x="923.0275578724543" y="908.0252568124735" type="curve" smooth="yes"/>
      <point x="614.0" y="177.0" type="line"/>
      <point x="304.97244212754566" y="908.0252568124735" type="line" smooth="yes"/>
      <point x="279.7097352037344" y="960.248809310924"/>
      <point x="222.91789510120057" y="979.4515769433968"/>
      <point x="163.75224031155227" y="955.312886536331" type="curve" smooth="yes"/>
      <point x="104.87507690105866" y="929.4041506028137"/>
      <point x="79.22624497487126" y="873.0842023159271"/>
      <point x="102.0830576662072" y="818.8528208914664" type="curve" smooth="yes"/>
      <point x="465.0894623372562" y="25.83883262580038" type="line" smooth="yes"/>
      <point x="489.9494875337231" y="-24.848816907200018"/>
      <point x="541.5286652375552" y="-55.37846351155747"/>
      <point x="614.0" y="-56.0" type="curve" smooth="yes"/>
      <point x="686.4713347624448" y="-55.37846351155747"/>
      <point x="738.0505124662769" y="-24.848816907200018"/>
      <point x="762.9105376627439" y="25.83883262580038" type="curve" smooth="yes"/>
      <point x="1125.9169423337928" y="818.8528208914664" type="line" smooth="yes"/>
      <point x="1148.7737550251288" y="873.0842023159271"/>
      <point x="1123.1249230989413" y="929.4041506028137"/>
      <point x="1064.2477596884478" y="955.312886536331" type="curve" smooth="yes"/>
      <point x="1005.0821048987995" y="979.4515769433968"/>
      <point x="948.2902647962655" y="960.248809310924"/>
    </contour>
  </outline>
</glyph>
<glyph name="w" format="2">
  <advance width="1228"/>
  <unicode hex="0077"/>
  <outline>
    <contour>
      <point x="989.9098535391422" y="890.8129512477026" type="curve" smooth="yes"/>
      <point x="850.8564442623849" y="241.3567686883104" type="line"/>
      <point x="721.2954454821345" y="753.6303434145129" type="line" smooth="yes"/>
      <point x="708.3822710913493" y="787.7202213581239"/>
      <point x="668.3089243474162" y="822.3994765204509"/>
      <point x="614.0" y="824.0" type="curve" smooth="yes"/>
      <point x="559.6910756525838" y="822.3994765204509"/>
      <point x="519.6177289086507" y="787.7202213581239"/>
      <point x="506.7045545178655" y="753.6303434145129" type="curve" smooth="yes"/>
      <point x="377.14355573761515" y="241.3567686883104" type="line"/>
      <point x="238.09014646085785" y="890.8129512477026" type="line" smooth="yes"/>
      <point x="223.769641256911" y="946.4246296589854"/>
      <point x="173.0" y="975.0"/>
      <point x="111.3898425162352" y="963.3512491226315" type="curve" smooth="yes"/>
      <point x="46.79473775300143" y="949.4105244939972"/>
      <point x="16.0" y="896.0"/>
      <point x="28.994772176894706" y="840.8357525548943" type="curve" smooth="yes"/>
      <point x="227.9947721768947" y="34.835752554894235" type="line" smooth="yes"/>
      <point x="242.31147483908268" y="-18.636065845975956"/>
      <point x="283.532604646439" y="-54.92875970829289"/>
      <point x="343.0" y="-56.0" type="curve" smooth="yes"/>
      <point x="407.25430689136795" y="-55.21708944994807"/>
      <point x="457.9545345158885" y="-22.35313928023048"/>
      <point x="477.2897841503683" y="32.352472609914386" type="curve" smooth="yes"/>
      <point x="614.0" y="521.0" type="line"/>
      <point x="750.7102158496317" y="32.352472609914386" type="line" smooth="yes"/>
      <point x="770.0454654841116" y="-22.35313928023048"/>
      <point x="820.745693108632" y="-55.21708944994807"/>
      <point x="885.0" y="-56.0" type="curve" smooth="yes"/>
      <point x="944.4673953535611" y="-54.92875970829289"/>
      <point x="985.6885251609174" y="-18.636065845975956"/>
      <point x="1000.0052278231053" y="34.835752554894235" type="curve" smooth="yes"/>
      <point x="1199.0052278231053" y="840.8357525548943" type="line" smooth="yes"/>
      <point x="1212.0" y="896.0"/>
      <point x="1181.2052622469985" y="949.4105244939972"/>
      <point x="1116.6101574837649" y="963.3512491226315" type="curve" smooth="yes"/>
      <point x="1055.0" y="975.0"/>
      <point x="1004.230358743089" y="946.4246296589854"/>
    </contour>
  </outline>
</glyph>
<glyph name="x" format="2">
  <advance width="1228"/>
  <unicode hex="0078"/>
  <outline>
    <contour>
      <point x="973.7346393156705" y="979.8588812351417"/>
      <point x="918.5897622831242" y="973.5843164551493"/>
      <point x="880.2313810784732" y="931.1805833754914" type="curve" smooth="yes"/>
      <point x="571.79542067639" y="572.8194912546238" type="line"/>
      <point x="526.6761673612172" y="540.6870778304063" type="line"/>
      <point x="158.17354281587234" y="111.11321119413506" type="line" smooth="yes"/>
      <point x="120.25422688390282" y="61.149554253027155"/>
      <point x="142.30346946443112" y="-4.315360981980671"/>
      <point x="196.95475421918036" y="-30.963382744079635" type="curve" smooth="yes"/>
      <point x="253.26536068432944" y="-55.858881235141624"/>
      <point x="308.4102377168758" y="-49.58431645514935"/>
      <point x="346.9013822626742" y="-7.0254034442692515" type="curve" smooth="yes"/>
      <point x="673.3318939027159" y="377.3219235537591" type="line"/>
      <point x="722.1710498857987" y="412.14352941404485" type="line"/>
      <point x="1068.71477403882" y="812.7570146758032" type="line" smooth="yes"/>
      <point x="1107.745773116097" y="862.8504457469728"/>
      <point x="1084.4808334785087" y="928.5070995236927"/>
      <point x="1030.0452457808196" y="954.9633827440796" type="curve" smooth="yes"/>
    </contour>
    <contour>
      <point x="155.51916652149126" y="928.5070995236927"/>
      <point x="132.25422688390282" y="862.8504457469728"/>
      <point x="171.28522596118" y="812.7570146758032" type="curve" smooth="yes"/>
      <point x="517.8289501142013" y="412.14352941404485" type="line"/>
      <point x="566.6681060972841" y="377.3219235537591" type="line"/>
      <point x="893.0986177373259" y="-7.0254034442692515" type="line" smooth="yes"/>
      <point x="931.5897622831242" y="-49.58431645514935"/>
      <point x="986.7346393156705" y="-55.858881235141624"/>
      <point x="1043.0452457808196" y="-30.963382744079635" type="curve" smooth="yes"/>
      <point x="1097.6965305355689" y="-4.315360981980671"/>
      <point x="1119.745773116097" y="61.149554253027155"/>
      <point x="1081.8264571841278" y="111.11321119413506" type="curve" smooth="yes"/>
      <point x="713.3238326387828" y="540.6870778304063" type="line"/>
      <point x="668.20457932361" y="572.8194912546238" type="line"/>
      <point x="359.76861892152687" y="931.1805833754914" type="line" smooth="yes"/>
      <point x="321.4102377168758" y="973.5843164551493"/>
      <point x="266.26536068432944" y="979.8588812351417"/>
      <point x="209.95475421918036" y="954.9633827440796" type="curve" smooth="yes"/>
    </contour>
  </outline>
</glyph>
<glyph name="z" format="2">
  <advance width="1228"/>
  <unicode hex="007A"/>
  <outline>
    <contour>
      <point x="782.0621278865061" y="950.7881599099112" type="line"/>
      <point x="775.8442630688561" y="808.458884420381" type="line"/>
      <point x="166.79387780237784" y="135.81778700396993" type="line" smooth="yes"/>
      <point x="152.06398260264604" y="118.11939398319059"/>
      <point x="144.2328794530222" y="90.97260241729151"/>
      <point x="144.0" y="68.0" type="curve" smooth="yes"/>
      <point x="145.1320222527086" y="9.299652949246394"/>
      <point x="186.65948165148916" y="-32.691814219787986"/>
      <point x="241.0" y="-34.0" type="curve" smooth="yes"/>
      <point x="435.9378721134939" y="-26.788159909911254" type="line"/>
      <point x="442.1597104838298" y="115.54639087020226" type="line"/>
      <point x="1050.209596872931" y="787.186051952713" type="line" smooth="yes"/>
      <point x="1063.1547594742265" y="802.5071443154641"/>
      <point x="1073.537393410293" y="829.4104344316179"/>
      <point x="1074.0" y="856.0" type="curve" smooth="yes"/>
      <point x="1072.8679777472914" y="914.7003470507536"/>
      <point x="1031.3405183485108" y="956.691814219788"/>
      <point x="977.0" y="958.0" type="curve" smooth="yes"/>
    </contour>
    <contour>
      <point x="323.7101519753513" y="177.20930766784406" type="line"/>
      <point x="323.7101519753513" y="-33.20930766784405" type="line"/>
      <point x="987.0" y="-34.0" type="line" smooth="yes"/>
      <point x="1042.2876905025125" y="-32.40622508291445"/>
      <point x="1082.9848450049412" y="11.753788748764679"/>
      <point x="1084.0" y="72.0" type="curve" smooth="yes"/>
      <point x="1082.9848450049412" y="132.2462112512353"/>
      <point x="1042.2876905025125" y="176.40622508291446"/>
      <point x="987.0" y="178.0" type="curve" smooth="yes"/>
    </contour>
    <contour>
      <point x="261.0" y="958.0" type="line" smooth="yes"/>
      <point x="205.71230949748747" y="956.4062250829145"/>
      <point x="165.0151549950587" y="912.2462112512353"/>
      <point x="164.0" y="852.0" type="curve" smooth="yes"/>
      <point x="165.0151549950587" y="791.7537887487647"/>
      <point x="205.71230949748747" y="747.5937749170855"/>
      <point x="261.0" y="746.0" type="curve" smooth="yes"/>
      <point x="896.5989673812387" y="746.8600589207091" type="line"/>
      <point x="896.5989673812387" y="957.1399410792909" type="line"/>
    </contour>
  </outline>
</glyph>
<glyph name="braceleft" format="2">
  <advance width="1228"/>
  <unicode hex="007B"/>
  <outline>
    <contour>
      <point x="471.0774335363941" y="956.7066433940097" type="curve" smooth="yes"/>
      <point x="476.07406911922436" y="882.756963247552" type="line" smooth="yes"/>
      <point x="487.9867946636332" y="725.1319292556492"/>
      <point x="431.19870377073863" y="644.8861946194465"/>
      <point x="240.0" y="647.0" type="curve" smooth="yes"/>
      <point x="184.71230949748747" y="645.4062250829145"/>
      <point x="144.0151549950587" y="601.2462112512353"/>
      <point x="143.0" y="541.0" type="curve" smooth="yes"/>
      <point x="144.0151549950587" y="480.7537887487647"/>
      <point x="184.71230949748747" y="436.59377491708557"/>
      <point x="240.0" y="435.0" type="curve" smooth="yes"/>
      <point x="442.64974063839657" y="436.6137045782087"/>
      <point x="497.91527022533967" y="368.16414294810676"/>
      <point x="482.1304091139369" y="205.97503163188392" type="curve" smooth="yes"/>
      <point x="471.1341881621382" y="83.01774560931442" type="line" smooth="yes"/>
      <point x="447.87139850054314" y="-212.12443102765698"/>
      <point x="638.370805739292" y="-365.60795329194315"/>
      <point x="927.0" y="-367.0" type="curve" smooth="yes"/>
      <point x="982.2876905025125" y="-365.40622508291443"/>
      <point x="1022.9848450049412" y="-321.2462112512353"/>
      <point x="1024.0" y="-261.0" type="curve" smooth="yes"/>
      <point x="1022.9848450049412" y="-200.7537887487647"/>
      <point x="982.2876905025125" y="-156.59377491708554"/>
      <point x="927.0" y="-155.0" type="curve" smooth="yes"/>
      <point x="734.612239453618" y="-156.38704471093874"/>
      <point x="674.9917398086408" y="-96.78141712952008"/>
      <point x="688.9261049003339" y="89.75959684620436" type="curve" smooth="yes"/>
      <point x="696.9230900797422" y="210.71440173221595" type="line" smooth="yes"/>
      <point x="707.3301420290194" y="380.7157748864442"/>
      <point x="627.5416713029539" y="509.49923552120686"/>
      <point x="436.3249971530126" y="568.0584534792971" type="curve"/>
      <point x="439.328441350141" y="515.1666451958992" type="line"/>
      <point x="614.5753824723012" y="587.2006402760221"/>
      <point x="698.0437852074715" y="706.9932366612666"/>
      <point x="691.968459519362" y="876.4641577379035" type="curve" smooth="yes"/>
      <point x="688.9713966833771" y="948.3943483713326" type="line" smooth="yes"/>
      <point x="680.250468174118" y="1135.9002559058822"/>
      <point x="724.8763745232058" y="1195.4660603941456"/>
      <point x="927.0" y="1194.0" type="curve" smooth="yes"/>
      <point x="982.2876905025125" y="1195.5937749170855"/>
      <point x="1022.9848450049412" y="1239.7537887487647"/>
      <point x="1024.0" y="1300.0" type="curve" smooth="yes"/>
      <point x="1022.9848450049412" y="1360.2462112512353"/>
      <point x="982.2876905025125" y="1404.4062250829145"/>
      <point x="927.0" y="1406.0" type="curve" smooth="yes"/>
      <point x="638.2505021882547" y="1404.5721858710583"/>
      <point x="453.87139850054314" y="1251.124431027657"/>
    </contour>
  </outline>
</glyph>
<glyph name="bar" format="2">
  <advance width="1228"/>
  <unicode hex="007C"/>
  <outline>
    <contour>
      <point x="505.0" y="1329.0" type="curve" smooth="yes"/>
      <point x="505.0" y="-290.0" type="line" smooth="yes"/>
      <point x="506.3656288470346" y="-345.53927772163604"/>
      <point x="549.650429006021" y="-387.95883287096956"/>
      <point x="614.0" y="-389.0" type="curve" smooth="yes"/>
      <point x="678.349570993979" y="-387.95883287096956"/>
      <point x="721.6343711529654" y="-345.53927772163604"/>
      <point x="723.0" y="-290.0" type="curve" smooth="yes"/>
      <point x="723.0" y="1329.0" type="line" smooth="yes"/>
      <point x="721.6343711529654" y="1384.539277721636"/>
      <point x="678.349570993979" y="1426.9588328709697"/>
      <point x="614.0" y="1428.0" type="curve" smooth="yes"/>
      <point x="549.650429006021" y="1426.9588328709697"/>
      <point x="506.3656288470346" y="1384.539277721636"/>
    </contour>
  </outline>
</glyph>
<glyph name="asciitilde" format="2">
  <advance width="1228"/>
  <unicode hex="007E"/>
  <outline>
    <contour>
      <point x="127.97093002300278" y="585.7006524249983" type="curve" smooth="yes"/>
      <point x="108.20795302109696" y="546.7546718865448"/>
      <point x="124.05078437044361" y="493.2698341311105"/>
      <point x="161.66927701276822" y="463.74817982562547" type="curve" smooth="yes"/>
      <point x="202.46497346779418" y="435.0165173425203"/>
      <point x="258.9363374345779" y="438.9661332963724"/>
      <point x="289.0924308493227" y="471.2012603030975" type="curve" smooth="yes"/>
      <point x="331.3891566675296" y="522.4123923799661"/>
      <point x="367.7417668499665" y="544.1430142535742"/>
      <point x="418.0" y="543.0" type="curve" smooth="yes"/>
      <point x="522.5449702536044" y="548.4445823518608"/>
      <point x="630.6105116271026" y="399.210997484396"/>
      <point x="810.0" y="395.0" type="curve" smooth="yes"/>
      <point x="928.0392971743868" y="396.8420473615689"/>
      <point x="1035.9947902720182" y="474.9509119647257"/>
      <point x="1100.0290699769973" y="578.2993475750017" type="curve" smooth="yes"/>
      <point x="1119.792046978903" y="617.2453281134552"/>
      <point x="1103.9492156295564" y="670.7301658688896"/>
      <point x="1066.3307229872319" y="700.2518201743745" type="curve" smooth="yes"/>
      <point x="1025.5350265322058" y="728.9834826574797"/>
      <point x="969.0636625654221" y="725.0338667036276"/>
      <point x="938.9075691506773" y="692.7987396969025" type="curve" smooth="yes"/>
      <point x="896.6108433324704" y="641.5876076200339"/>
      <point x="860.2582331500336" y="619.8569857464258"/>
      <point x="810.0" y="621.0" type="curve" smooth="yes"/>
      <point x="704.4550297463956" y="615.5554176481392"/>
      <point x="597.4363718283618" y="764.7631597973037"/>
      <point x="418.0" y="769.0" type="curve" smooth="yes"/>
      <point x="299.9607028256132" y="767.1579526384311"/>
      <point x="192.0052097279818" y="689.0490880352743"/>
    </contour>
  </outline>
</glyph>
<glyph name="cent" format="2">
  <advance width="1228"/>
  <unicode hex="00A2"/>
  <outline>
    <contour>
      <point x="540.0" y="1247.0" type="curve" smooth="yes"/>
      <point x="540.0" y="-60.0" type="line" smooth="yes"/>
      <point x="541.6466015421834" y="-116.45263642483307"/>
      <point x="586.0936785230645" y="-157.8127633360782"/>
      <point x="644.0" y="-159.0" type="curve" smooth="yes"/>
      <point x="701.9063214769355" y="-157.8127633360782"/>
      <point x="746.3533984578166" y="-116.45263642483307"/>
      <point x="748.0" y="-60.0" type="curve" smooth="yes"/>
      <point x="748.0" y="1247.0" type="line" smooth="yes"/>
      <point x="746.3533984578166" y="1303.4526364248331"/>
      <point x="701.9063214769355" y="1344.8127633360782"/>
      <point x="644.0" y="1346.0" type="curve" smooth="yes"/>
      <point x="586.0936785230645" y="1344.8127633360782"/>
      <point x="541.6466015421834" y="1303.4526364248331"/>
    </contour>
    <component base="c" yOffset="140"/>
  </outline>
</glyph>
<glyph name="sterling" format="2">
  <advance width="1228"/>
  <unicode hex="00A3"/>
  <outline>
    <contour>
      <point x="256.0" y="884.0" type="curve" smooth="yes"/>
      <point x="256.90179343414275" y="785.6727417985798"/>
      <point x="298.30462839528553" y="704.5023688662463"/>
      <point x="336.2611404379424" y="666.1543788553015" type="curve"/>
      <point x="283.0" y="682.0" type="line" smooth="yes"/>
      <point x="227.71230949748747" y="680.4062250829145"/>
      <point x="187.0151549950587" y="636.2462112512353"/>
      <point x="186.0" y="576.0" type="curve" smooth="yes"/>
      <point x="187.0151549950587" y="515.7537887487647"/>
      <point x="227.71230949748747" y="471.59377491708557"/>
      <point x="283.0" y="470.0" type="curve" smooth="yes"/>
      <point x="418.1162932128869" y="470.2945526096466" type="line"/>
      <point x="393.11797581709146" y="479.39267110119755"/>
      <point x="395.05822513323454" y="463.3901401620981"/>
      <point x="395.0" y="445.0" type="curve" smooth="yes"/>
      <point x="395.68735954469355" y="347.8020574751673"/>
      <point x="363.04091357000993" y="274.7173275028495"/>
      <point x="249.05065875136637" y="162.1335669505462" type="curve" smooth="yes"/>
      <point x="231.54870184323147" y="144.06056403763853"/>
      <point x="220.49435606469217" y="117.77683516125997"/>
      <point x="220.0" y="95.0" type="curve" smooth="yes"/>
      <point x="220.95468440819064" y="44.99955517250932"/>
      <point x="253.18409763959858" y="-24.265259008710895"/>
      <point x="308.0" y="-34.0" type="curve" smooth="yes"/>
      <point x="915.0" y="-34.0" type="line" smooth="yes"/>
      <point x="970.2876905025125" y="-32.40622508291445"/>
      <point x="1010.9848450049412" y="11.753788748764679"/>
      <point x="1012.0" y="72.0" type="curve" smooth="yes"/>
      <point x="1010.9848450049412" y="132.2462112512353"/>
      <point x="970.2876905025125" y="176.40622508291446"/>
      <point x="915.0" y="178.0" type="curve" smooth="yes"/>
      <point x="464.04041381734817" y="177.03561329301752" type="line"/>
      <point x="565.4935129402755" y="217.4495358461748"/>
      <point x="614.2774026085606" y="329.02759183439684"/>
      <point x="615.0" y="446.0" type="curve" smooth="yes"/>
      <point x="614.9790999543552" y="467.54071389718314"/>
      <point x="613.4296545946833" y="489.1267949608113"/>
      <point x="579.7543625341375" y="470.10304264294393" type="curve"/>
      <point x="815.0" y="470.0" type="line" smooth="yes"/>
      <point x="870.2876905025125" y="471.59377491708557"/>
      <point x="910.9848450049412" y="515.7537887487647"/>
      <point x="912.0" y="576.0" type="curve" smooth="yes"/>
      <point x="910.9848450049412" y="636.2462112512353"/>
      <point x="870.2876905025125" y="680.4062250829145"/>
      <point x="815.0" y="682.0" type="curve" smooth="yes"/>
      <point x="541.1461844634526" y="680.8824276517993" type="line"/>
      <point x="522.5119823243546" y="749.6787179525492"/>
      <point x="476.34155107162087" y="811.2831203926069"/>
      <point x="478.0" y="884.0" type="curve" smooth="yes"/>
      <point x="475.6780720590215" y="969.6509210617373"/>
      <point x="526.4755570125465" y="1029.7844691987848"/>
      <point x="627.0" y="1027.0" type="curve" smooth="yes"/>
      <point x="705.5795425654411" y="1027.4348597321546"/>
      <point x="773.0479730795146" y="1004.4641703736564"/>
      <point x="837.2754410535822" y="961.6205903468356" type="curve" smooth="yes"/>
      <point x="874.7356820403903" y="938.5863643380748"/>
      <point x="938.1999471503617" y="945.2480613055803"/>
      <point x="972.8597406738662" y="1004.7397451775976" type="curve" smooth="yes"/>
      <point x="1004.2391123695853" y="1064.8472796166716"/>
      <point x="985.0216543999022" y="1123.01992204791"/>
      <point x="943.0840852192791" y="1150.7917672570102" type="curve" smooth="yes"/>
      <point x="853.405293702648" y="1206.7975244677302"/>
      <point x="744.253670374204" y="1242.5916499683956"/>
      <point x="628.0" y="1243.0" type="curve" smooth="yes"/>
      <point x="409.98909520268325" y="1240.4120415820933"/>
      <point x="258.53294600747904" y="1081.8772867107855"/>
    </contour>
  </outline>
</glyph>
<glyph name="currency" format="2">
  <advance width="1228"/>
  <unicode hex="00A4"/>
  <outline>
    <contour>
      <point x="366.9774892281853" y="1037.4072318614355"/>
      <point x="172.82943927393046" y="849.5792541776937"/>
      <point x="170.0" y="602.0" type="curve" smooth="yes"/>
      <point x="172.82943927393046" y="354.42074582230634"/>
      <point x="366.9774892281853" y="166.5927681385645"/>
      <point x="614.0" y="164.0" type="curve" smooth="yes"/>
      <point x="861.0225107718147" y="166.5927681385645"/>
      <point x="1055.1705607260697" y="354.42074582230634"/>
      <point x="1058.0" y="602.0" type="curve" smooth="yes"/>
      <point x="1055.1705607260697" y="849.5792541776937"/>
      <point x="861.0225107718147" y="1037.4072318614355"/>
      <point x="614.0" y="1040.0" type="curve" smooth="yes"/>
    </contour>
    <contour>
      <point x="109.95836943965739" y="248.0416305603426" type="line" smooth="yes"/>
      <point x="71.90172183510043" y="207.81434954426928"/>
      <point x="73.76493870941502" y="147.64168235871517"/>
      <point x="115.95836943965739" y="103.95836943965739" type="curve" smooth="yes"/>
      <point x="159.64168235871517" y="61.76493870941503"/>
      <point x="219.81434954426928" y="59.901721835100425"/>
      <point x="260.04163056034264" y="97.95836943965739" type="curve" smooth="yes"/>
      <point x="469.318658076659" y="312.44043845020053" type="line"/>
      <point x="324.44043845020053" y="457.318658076659" type="line"/>
    </contour>
    <contour>
      <point x="758.681341923341" y="312.44043845020053" type="line"/>
      <point x="967.9583694396574" y="97.95836943965739" type="line" smooth="yes"/>
      <point x="1008.1856504557308" y="59.901721835100425"/>
      <point x="1068.3583176412849" y="61.76493870941503"/>
      <point x="1112.0416305603426" y="103.95836943965739" type="curve" smooth="yes"/>
      <point x="1154.235061290585" y="147.64168235871517"/>
      <point x="1156.0982781648995" y="207.81434954426928"/>
      <point x="1118.0416305603426" y="248.0416305603426" type="curve" smooth="yes"/>
      <point x="903.5595615497995" y="457.318658076659" type="line"/>
    </contour>
    <contour>
      <point x="758.681341923341" y="891.5595615497995" type="line"/>
      <point x="903.5595615497995" y="746.681341923341" type="line"/>
      <point x="1118.0416305603426" y="955.9583694396574" type="line" smooth="yes"/>
      <point x="1156.0982781648995" y="996.1856504557308"/>
      <point x="1154.235061290585" y="1056.3583176412849"/>
      <point x="1112.0416305603426" y="1100.0416305603426" type="curve" smooth="yes"/>
      <point x="1068.3583176412849" y="1142.235061290585"/>
      <point x="1008.1856504557308" y="1144.0982781648995"/>
      <point x="967.9583694396574" y="1106.0416305603426" type="curve" smooth="yes"/>
    </contour>
    <contour>
      <point x="219.81434954426928" y="1144.0982781648995"/>
      <point x="159.64168235871517" y="1142.235061290585"/>
      <point x="115.95836943965739" y="1100.0416305603426" type="curve" smooth="yes"/>
      <point x="73.76493870941502" y="1056.3583176412849"/>
      <point x="71.90172183510043" y="996.1856504557308"/>
      <point x="109.95836943965739" y="955.9583694396574" type="curve" smooth="yes"/>
      <point x="324.44043845020053" y="746.681341923341" type="line"/>
      <point x="469.318658076659" y="891.5595615497995" type="line"/>
      <point x="260.04163056034264" y="1106.0416305603426" type="line" smooth="yes"/>
    </contour>
    <contour>
      <point x="757.8381640907459" y="832.6508999252312"/>
      <point x="844.4401067628872" y="741.3519511835998"/>
      <point x="842.0" y="602.0" type="curve" smooth="yes"/>
      <point x="844.4401067628872" y="462.64804881640015"/>
      <point x="757.8381640907459" y="371.3491000747688"/>
      <point x="614.0" y="374.0" type="curve" smooth="yes"/>
      <point x="470.1618359092541" y="371.3491000747688"/>
      <point x="383.5598932371128" y="462.64804881640015"/>
      <point x="386.0" y="602.0" type="curve" smooth="yes"/>
      <point x="383.5598932371128" y="741.3519511835998"/>
      <point x="470.1618359092541" y="832.6508999252312"/>
      <point x="614.0" y="830.0" type="curve" smooth="yes"/>
    </contour>
  </outline>
</glyph>
<glyph name="yen" format="2">
  <advance width="1228"/>
  <unicode hex="00A5"/>
  <outline>
    <contour>
      <point x="233.0" y="468.0" type="line" smooth="yes"/>
      <point x="177.71230949748747" y="466.40622508291443"/>
      <point x="137.0151549950587" y="422.2462112512353"/>
      <point x="136.0" y="362.0" type="curve" smooth="yes"/>
      <point x="137.0151549950587" y="301.7537887487647"/>
      <point x="177.71230949748747" y="257.59377491708557"/>
      <point x="233.0" y="256.0" type="curve" smooth="yes"/>
      <point x="995.0" y="256.0" type="line" smooth="yes"/>
      <point x="1050.2876905025125" y="257.59377491708557"/>
      <point x="1090.9848450049412" y="301.7537887487647"/>
      <point x="1092.0" y="362.0" type="curve" smooth="yes"/>
      <point x="1090.9848450049412" y="422.2462112512353"/>
      <point x="1050.2876905025125" y="466.40622508291443"/>
      <point x="995.0" y="468.0" type="curve" smooth="yes"/>
    </contour>
    <contour>
      <point x="213.0" y="778.0" type="line" smooth="yes"/>
      <point x="157.71230949748747" y="776.4062250829145"/>
      <point x="117.01515499505871" y="732.2462112512353"/>
      <point x="116.0" y="672.0" type="curve" smooth="yes"/>
      <point x="117.01515499505871" y="611.7537887487647"/>
      <point x="157.71230949748747" y="567.5937749170855"/>
      <point x="213.0" y="566.0" type="curve" smooth="yes"/>
      <point x="570.5216002827601" y="570.2840661580912" type="line"/>
      <point x="485.22678158166224" y="775.3217536065752" type="line"/>
    </contour>
    <contour>
      <point x="754.7732184183378" y="775.3217536065752" type="line"/>
      <point x="656.8757795526865" y="570.6272052049552" type="line"/>
      <point x="1015.0" y="566.0" type="line" smooth="yes"/>
      <point x="1070.2876905025125" y="567.5937749170855"/>
      <point x="1110.9848450049412" y="611.7537887487647"/>
      <point x="1112.0" y="672.0" type="curve" smooth="yes"/>
      <point x="1110.9848450049412" y="732.2462112512353"/>
      <point x="1070.2876905025125" y="776.4062250829145"/>
      <point x="1015.0" y="778.0" type="curve" smooth="yes"/>
    </contour>
    <contour>
      <point x="506.45017413932294" y="561.8238911048321" type="line"/>
      <point x="505.0" y="55.0" type="line" smooth="yes"/>
      <point x="506.2331792561819" y="-0.07388882136500641"/>
      <point x="548.5445315899165" y="-42.931824334009775"/>
      <point x="613.0" y="-44.0" type="curve" smooth="yes"/>
      <point x="615.0" y="-44.0" type="line" smooth="yes"/>
      <point x="679.4554684100835" y="-42.931824334009775"/>
      <point x="721.7668207438181" y="-0.07388882136500641"/>
      <point x="723.0" y="55.0" type="curve" smooth="yes"/>
      <point x="721.5498258606771" y="561.8238911048321" type="line"/>
    </contour>
    <contour>
      <point x="1012.6452232277578" y="1243.129300653617"/>
      <point x="956.4271689038591" y="1232.0695146001856"/>
      <point x="926.4786264280242" y="1190.5075997786803" type="curve" smooth="yes"/>
      <point x="531.4195715967186" y="579.5966877338932" type="line"/>
      <point x="695.132696359707" y="436.0497814955649" type="line"/>
      <point x="1116.4376833575277" y="1077.3640625334544" type="line" smooth="yes"/>
      <point x="1146.7101737066241" y="1126.7239805906588"/>
      <point x="1129.2344241044857" y="1188.7221769051894"/>
      <point x="1069.2287771360354" y="1217.8794737845876" type="curve" smooth="yes"/>
    </contour>
    <contour>
      <point x="98.76557589551422" y="1188.7221769051894"/>
      <point x="81.28982629337585" y="1126.7239805906588"/>
      <point x="111.55286339259837" y="1077.3784957954565" type="curve" smooth="yes"/>
      <point x="523.8234336498906" y="449.0940668553023" type="line"/>
      <point x="701.6394951635198" y="572.4475839341459" type="line"/>
      <point x="301.5323231510963" y="1190.4907148483073" type="line" smooth="yes"/>
      <point x="272.572831096141" y="1232.0695146001856"/>
      <point x="215.44674656380184" y="1243.150390081092"/>
      <point x="158.77122286396454" y="1217.8794737845876" type="curve" smooth="yes"/>
    </contour>
  </outline>
</glyph>
<glyph name="brokenbar" format="2">
  <advance width="1228"/>
  <unicode hex="00A6"/>
  <outline>
    <contour>
      <point x="505.0" y="1329.0" type="curve" smooth="yes"/>
      <point x="505.0" y="730.0" type="line" smooth="yes"/>
      <point x="506.3656288470346" y="674.460722278364"/>
      <point x="549.650429006021" y="632.0411671290304"/>
      <point x="614.0" y="631.0" type="curve" smooth="yes"/>
      <point x="678.349570993979" y="632.0411671290304"/>
      <point x="721.6343711529654" y="674.460722278364"/>
      <point x="723.0" y="730.0" type="curve" smooth="yes"/>
      <point x="723.0" y="1329.0" type="line" smooth="yes"/>
      <point x="721.6343711529654" y="1384.539277721636"/>
      <point x="678.349570993979" y="1426.9588328709697"/>
      <point x="614.0" y="1428.0" type="curve" smooth="yes"/>
      <point x="549.650429006021" y="1426.9588328709697"/>
      <point x="506.3656288470346" y="1384.539277721636"/>
    </contour>
    <contour>
      <point x="505.0" y="309.0" type="curve" smooth="yes"/>
      <point x="505.0" y="-290.0" type="line" smooth="yes"/>
      <point x="506.3656288470346" y="-345.53927772163604"/>
      <point x="549.650429006021" y="-387.95883287096956"/>
      <point x="614.0" y="-389.0" type="curve" smooth="yes"/>
      <point x="678.349570993979" y="-387.95883287096956"/>
      <point x="721.6343711529654" y="-345.53927772163604"/>
      <point x="723.0" y="-290.0" type="curve" smooth="yes"/>
      <point x="723.0" y="309.0" type="line" smooth="yes"/>
      <point x="721.6343711529654" y="364.53927772163604"/>
      <point x="678.349570993979" y="406.95883287096956"/>
      <point x="614.0" y="408.0" type="curve" smooth="yes"/>
      <point x="549.650429006021" y="406.95883287096956"/>
      <point x="506.3656288470346" y="364.53927772163604"/>
    </contour>
  </outline>
</glyph>
<glyph name="section" format="2">
  <advance width="1228"/>
  <unicode hex="00A7"/>
  <outline>
    <contour>
      <point x="569.0" y="1221.0" type="line" smooth="yes"/>
      <point x="377.3807358550521" y="1218.9529763986068"/>
      <point x="262.3865751555768" y="1099.513647334251"/>
      <point x="260.0" y="947.0" type="curve" smooth="yes"/>
      <point x="261.52781934841795" y="810.9224266943367"/>
      <point x="334.77692440823284" y="718.2680177358486"/>
      <point x="430.1274331715718" y="659.0764567356734" type="curve" smooth="yes"/>
      <point x="763.0840512587031" y="453.1033084817791" type="line" smooth="yes"/>
      <point x="825.3958696127671" y="414.60210068850233"/>
      <point x="848.5100859853177" y="382.9797461450045"/>
      <point x="847.0" y="333.0" type="curve" smooth="yes"/>
      <point x="849.0671216449128" y="284.6743856351932"/>
      <point x="827.3560627037781" y="267.7509590375198"/>
      <point x="758.4086807672227" y="204.74421535813687" type="curve"/>
      <point x="860.396535365363" y="60.38445973142135" type="line"/>
      <point x="993.2396316168504" y="130.45046047893698"/>
      <point x="1067.0109868104294" y="213.54152176672133"/>
      <point x="1069.0" y="333.0" type="curve" smooth="yes"/>
      <point x="1067.9265119599715" y="460.4761317916758"/>
      <point x="1006.1879475842978" y="559.8660227384247"/>
      <point x="889.902779960705" y="632.9048520092836" type="curve" smooth="yes"/>
      <point x="556.8885154619304" y="838.9136821343855" type="line" smooth="yes"/>
      <point x="497.6241511273955" y="875.2373033679065"/>
      <point x="480.58511324193313" y="894.7062039444056"/>
      <point x="482.0" y="943.0" type="curve" smooth="yes"/>
      <point x="478.88867539107156" y="992.7912093201071"/>
      <point x="502.4110303390379" y="1010.0567978387683"/>
      <point x="589.0" y="1009.0" type="curve" smooth="yes"/>
      <point x="895.0" y="1009.0" type="line" smooth="yes"/>
      <point x="950.2876905025125" y="1010.5937749170855"/>
      <point x="990.9848450049412" y="1054.7537887487647"/>
      <point x="992.0" y="1115.0" type="curve" smooth="yes"/>
      <point x="990.9848450049412" y="1175.2462112512353"/>
      <point x="950.2876905025125" y="1219.4062250829145"/>
      <point x="895.0" y="1221.0" type="curve" smooth="yes"/>
    </contour>
    <contour>
      <point x="234.76036838314957" y="826.549539521063"/>
      <point x="160.9890131895707" y="743.4584782332787"/>
      <point x="159.0" y="624.0" type="curve" smooth="yes"/>
      <point x="160.07348804002856" y="496.5238682083242"/>
      <point x="221.8120524157021" y="397.1339772615753"/>
      <point x="338.0972200392951" y="324.09514799071644" type="curve" smooth="yes"/>
      <point x="671.1114845380696" y="118.08631786561459" type="line" smooth="yes"/>
      <point x="730.3758488726045" y="81.76269663209345"/>
      <point x="747.4148867580669" y="62.29379605559439"/>
      <point x="746.0" y="14.0" type="curve" smooth="yes"/>
      <point x="749.1113246089285" y="-35.79120932010709"/>
      <point x="725.5889696609621" y="-53.056797838768254"/>
      <point x="639.0" y="-52.0" type="curve" smooth="yes"/>
      <point x="333.0" y="-52.0" type="line" smooth="yes"/>
      <point x="277.71230949748747" y="-53.59377491708555"/>
      <point x="237.0151549950587" y="-97.75378874876468"/>
      <point x="236.0" y="-158.0" type="curve" smooth="yes"/>
      <point x="237.0151549950587" y="-218.2462112512353"/>
      <point x="277.71230949748747" y="-262.40622508291443"/>
      <point x="333.0" y="-264.0" type="curve" smooth="yes"/>
      <point x="659.0" y="-264.0" type="line" smooth="yes"/>
      <point x="850.6192641449479" y="-261.95297639860684"/>
      <point x="965.6134248444232" y="-142.51364733425086"/>
      <point x="968.0" y="10.0" type="curve" smooth="yes"/>
      <point x="966.4721806515821" y="146.0775733056634"/>
      <point x="893.2230755917672" y="238.73198226415144"/>
      <point x="797.8725668284281" y="297.92354326432655" type="curve" smooth="yes"/>
      <point x="464.915948741297" y="503.8966915182209" type="line" smooth="yes"/>
      <point x="402.60413038723294" y="542.3978993114977"/>
      <point x="379.4899140146823" y="574.0202538549954"/>
      <point x="381.0" y="624.0" type="curve" smooth="yes"/>
      <point x="378.93287835508715" y="672.3256143648068"/>
      <point x="400.6439372962219" y="689.2490409624802"/>
      <point x="469.5913192327773" y="752.2557846418631" type="curve"/>
      <point x="367.603464634637" y="896.6155402685787" type="line"/>
    </contour>
  </outline>
</glyph>
<glyph name="dieresis" format="2">
  <advance width="1228"/>
  <unicode hex="00A8"/>
  <outline>
    <contour>
      <point x="533.0" y="1298.0" type="line" smooth="yes"/>
      <point x="531.6343711529654" y="1353.539277721636"/>
      <point x="486.66794859469826" y="1396.3397429734912"/>
      <point x="404.0" y="1397.0" type="curve" smooth="yes"/>
      <point x="321.33205140530174" y="1396.3397429734912"/>
      <point x="276.3656288470346" y="1353.539277721636"/>
      <point x="275.0" y="1298.0" type="curve" smooth="yes"/>
      <point x="275.0" y="1168.0" type="line" smooth="yes"/>
      <point x="276.3656288470346" y="1112.460722278364"/>
      <point x="321.33205140530174" y="1069.6602570265088"/>
      <point x="404.0" y="1069.0" type="curve" smooth="yes"/>
      <point x="486.66794859469826" y="1069.6602570265088"/>
      <point x="531.6343711529654" y="1112.460722278364"/>
      <point x="533.0" y="1168.0" type="curve" smooth="yes"/>
    </contour>
    <contour>
      <point x="953.0" y="1298.0" type="line" smooth="yes"/>
      <point x="951.6343711529654" y="1353.539277721636"/>
      <point x="906.6679485946983" y="1396.3397429734912"/>
      <point x="824.0" y="1397.0" type="curve" smooth="yes"/>
      <point x="741.3320514053017" y="1396.3397429734912"/>
      <point x="696.3656288470346" y="1353.539277721636"/>
      <point x="695.0" y="1298.0" type="curve" smooth="yes"/>
      <point x="695.0" y="1168.0" type="line" smooth="yes"/>
      <point x="696.3656288470346" y="1112.460722278364"/>
      <point x="741.3320514053017" y="1069.6602570265088"/>
      <point x="824.0" y="1069.0" type="curve" smooth="yes"/>
      <point x="906.6679485946983" y="1069.6602570265088"/>
      <point x="951.6343711529654" y="1112.460722278364"/>
      <point x="953.0" y="1168.0" type="curve" smooth="yes"/>
    </contour>
  </outline>
</glyph>
<glyph name="copyright" format="2">
  <advance width="1228"/>
  <unicode hex="00A9"/>
  <outline>
    <contour>
      <point x="2.0" y="594.0" type="curve" smooth="yes"/>
      <point x="4.284863430209704" y="238.74642450712648"/>
      <point x="259.4793694989259" y="-52.74331292901397"/>
      <point x="614.0" y="-56.0" type="curve" smooth="yes"/>
      <point x="968.520630501074" y="-52.74331292901397"/>
      <point x="1223.7151365697903" y="238.74642450712648"/>
      <point x="1226.0" y="594.0" type="curve" smooth="yes"/>
      <point x="1223.7084350304756" y="949.2709065646393"/>
      <point x="968.4770992352159" y="1239.7638358748338"/>
      <point x="614.0" y="1243.0" type="curve" smooth="yes"/>
      <point x="259.5229007647841" y="1239.7638358748338"/>
      <point x="4.2915649695244085" y="949.2709065646393"/>
    </contour>
    <contour>
      <point x="1036.0" y="594.0" type="curve" smooth="yes"/>
      <point x="1038.1437422551908" y="319.8818703282051"/>
      <point x="870.7777953844004" y="128.8825014510162"/>
      <point x="614.0" y="132.0" type="curve" smooth="yes"/>
      <point x="357.2222046155996" y="128.8825014510162"/>
      <point x="189.85625774480926" y="319.8818703282051"/>
      <point x="192.0" y="594.0" type="curve" smooth="yes"/>
      <point x="189.8483931029624" y="868.0970652039433"/>
      <point x="357.1662601567693" y="1058.0917960215943"/>
      <point x="614.0" y="1055.0" type="curve" smooth="yes"/>
      <point x="870.8337398432308" y="1058.0917960215943"/>
      <point x="1038.1516068970377" y="868.0970652039433"/>
    </contour>
    <contour>
      <point x="281.0" y="593.0" type="curve" smooth="yes"/>
      <point x="283.2567459456169" y="364.8194490256437"/>
      <point x="434.16553604740636" y="217.51545561629368"/>
      <point x="629.0" y="215.0" type="curve" smooth="yes"/>
      <point x="691.8144748446689" y="215.21465137579028"/>
      <point x="763.6716733934486" y="230.71818798481783"/>
      <point x="823.2891535995698" y="258.14841836456515" type="curve" smooth="yes"/>
      <point x="870.4613484263289" y="281.47574042462634"/>
      <point x="892.9084592598714" y="335.49326906322585"/>
      <point x="874.7725829875849" y="387.10384113812756" type="curve" smooth="yes"/>
      <point x="852.6213479434049" y="439.3505375676511"/>
      <point x="796.22316483874" y="455.50564393530783"/>
      <point x="754.8731918431255" y="437.92625569477923" type="curve" smooth="yes"/>
      <point x="709.4962688629877" y="416.99475222481544"/>
      <point x="676.3259878538737" y="408.80091174436154"/>
      <point x="629.0" y="409.0" type="curve" smooth="yes"/>
      <point x="540.7173402477546" y="406.5320354088162"/>
      <point x="479.9186386862971" y="459.7132619032283"/>
      <point x="482.0" y="593.0" type="curve" smooth="yes"/>
      <point x="479.9186386862971" y="726.2867380967717"/>
      <point x="540.7173402477546" y="779.4679645911838"/>
      <point x="629.0" y="777.0" type="curve" smooth="yes"/>
      <point x="676.3259878538737" y="777.1990882556385"/>
      <point x="709.4962688629877" y="769.0052477751846"/>
      <point x="754.8731918431255" y="748.0737443052208" type="curve" smooth="yes"/>
      <point x="796.22316483874" y="730.4943560646922"/>
      <point x="852.6213479434049" y="746.649462432349"/>
      <point x="874.7725829875849" y="798.8961588618724" type="curve" smooth="yes"/>
      <point x="892.9084592598714" y="850.5067309367741"/>
      <point x="870.4613484263289" y="904.5242595753737"/>
      <point x="823.2891535995698" y="927.8515816354349" type="curve" smooth="yes"/>
      <point x="763.6716733934486" y="955.2818120151821"/>
      <point x="691.8144748446689" y="970.7853486242097"/>
      <point x="629.0" y="971.0" type="curve" smooth="yes"/>
      <point x="434.16553604740636" y="968.4845443837063"/>
      <point x="283.2567459456169" y="821.1805509743563"/>
    </contour>
  </outline>
</glyph>
